<svg width="366" height="345" viewBox="0 0 366 345" fill="none" xmlns="http://www.w3.org/2000/svg">
<path d="M363.302 302.167H333.312V302.393H363.302V302.167Z" fill="#EBEBEB"/>
<path d="M255.838 304.63H247.969V304.856H255.838V304.63Z" fill="#EBEBEB"/>
<path d="M332.406 293.764H315.03V293.99H332.406V293.764Z" fill="#EBEBEB"/>
<path d="M42.5311 295.285H3.42285V295.512H42.5311V295.285Z" fill="#EBEBEB"/>
<path d="M56.3309 295.285H50.5991V295.512H56.3309V295.285Z" fill="#EBEBEB"/>
<path d="M159.792 299.106H74.9658V299.332H159.792V299.106Z" fill="#EBEBEB"/>
<path d="M326.539 63.986C353.848 60.9707 374.059 50.9469 362.378 28.9797C350.498 6.64116 319.25 28.9797 319.25 28.9797C319.25 28.9797 326.403 0.00390625 302.724 0.00390625C276.728 0.00390625 282.025 31.9859 282.025 31.9859C282.025 31.9859 265.663 5.43686 249.309 22.931C236.47 36.6673 253.792 48.8914 253.792 48.8914C253.792 48.8914 222.335 43.4585 221.42 56.733C220.506 70.0075 300.361 66.8836 326.539 63.986Z" fill="#F5F5F5"/>
<path d="M69.3247 101.899C85.1075 100.151 96.7883 94.3653 90.0333 81.6613C83.1697 68.749 65.1051 81.6613 65.1051 81.6613C65.1051 81.6613 69.2432 64.9187 55.5522 64.9097C40.5301 64.9097 43.5906 83.3998 43.5906 83.3998C43.5906 83.3998 34.1373 68.0517 24.684 78.1751C17.2589 86.1163 27.2737 93.1791 27.2737 93.1791C27.2737 93.1791 9.09139 90.0371 8.55715 97.7066C8.02291 105.376 54.194 103.574 69.3247 101.899Z" fill="#F0F0F0"/>
<path d="M155.374 48.1851C140.813 54.5235 115.867 56.579 94.7057 56.0176C73.7707 55.4652 56.4939 52.3956 56.4939 48.2213C56.4939 38.2609 81.9563 38.7136 81.9563 38.7136C81.9563 38.7136 67.9937 27.9292 81.0508 18.34C97.4946 6.23362 109.338 25.1312 109.338 25.1312C109.338 25.1312 102.611 2.46677 121.101 0.193984C143.231 -2.52249 137.771 24.1895 137.771 24.1895C137.771 24.1895 160.508 7.89067 167.199 31.4335C169.3 38.8404 164.284 44.2915 155.374 48.1851Z" fill="#F0F0F0"/>
<path d="M21.6868 45.8489C21.292 45.7531 20.9047 45.6291 20.5277 45.4777C19.8305 45.206 18.9341 44.7442 18.0014 44.2915C17.2253 43.9059 16.3895 43.6549 15.5294 43.549C14.8684 43.4765 14.4247 43.549 14.3613 43.3769C14.298 43.2049 14.6873 42.888 15.4932 42.734C16.5244 42.5981 17.5726 42.7781 18.4994 43.2502C19.3678 43.7026 20.1593 44.2893 20.8447 44.9887C21.3699 45.4686 21.6868 45.8489 21.6868 45.8489Z" fill="#E6E6E6"/>
<path d="M25.7523 42.5803L24.9102 42.9063C24.4122 43.1055 23.7874 43.3952 23.0992 43.7031C21.7048 44.3188 20.5095 44.9617 20.3103 44.681C20.2198 44.5543 20.4099 44.2373 20.8083 43.848C21.3355 43.342 21.9488 42.9341 22.6193 42.6437C23.3178 42.3439 24.0841 42.2376 24.8378 42.3358C25.066 42.3631 25.2906 42.4147 25.5078 42.4897L25.7523 42.5803Z" fill="#E6E6E6"/>
<path d="M14.1439 48.2938L13.8723 48.1852L13.2565 47.832C12.5991 47.4772 11.9149 47.1745 11.2101 46.9266C9.58025 46.338 8.1224 46.4648 8.07713 46.2203C8.03185 45.9758 8.41216 45.9215 9.03695 45.8309C9.86561 45.7325 10.7058 45.8286 11.4908 46.1116C12.2775 46.382 12.9799 46.8533 13.5282 47.4789C13.6945 47.6637 13.8431 47.8638 13.9719 48.0765L14.1439 48.2938Z" fill="#E6E6E6"/>
<path d="M15.7376 44.9252L15.1581 45.2603L13.8542 45.9847C12.8672 46.528 12.1156 47.1618 11.9255 46.9898C11.7353 46.8177 11.9255 46.6457 12.179 46.3106C12.5151 45.8641 12.9447 45.4964 13.4376 45.2331C13.9322 44.9653 14.487 44.8282 15.0494 44.8347C15.2817 44.8353 15.513 44.8658 15.7376 44.9252Z" fill="#E6E6E6"/>
<path d="M12.7949 43.0058C12.7949 43.0058 12.2425 42.8066 11.3913 42.4534C10.5402 42.1003 9.41737 41.5479 8.16779 41.1857C7.11663 40.8294 6.0074 40.6758 4.89896 40.733C4.0478 40.733 3.50451 40.9413 3.43207 40.7873C3.35963 40.6334 3.80332 40.2169 4.75408 39.8818C6.00115 39.5616 7.31516 39.6183 8.52999 40.0448C9.69726 40.4596 10.7734 41.0961 11.6992 41.9192C12.0859 42.2591 12.4518 42.6219 12.7949 43.0058Z" fill="#E6E6E6"/>
<path d="M16.5344 38.2246L16.2175 38.3061L15.3935 38.5506C14.54 38.8336 13.7027 39.163 12.8853 39.5376C10.9928 40.3888 9.77942 41.6474 9.50777 41.4482C9.39006 41.3486 9.50777 40.8868 10.033 40.2892C10.6753 39.5125 11.4868 38.8931 12.4053 38.4782C13.3196 38.0574 14.327 37.8796 15.3301 37.962C15.6354 37.9856 15.9382 38.034 16.2356 38.1069L16.5344 38.2246Z" fill="#E6E6E6"/>
<path d="M217.092 18.5667C216.405 18.4062 215.732 18.1881 215.082 17.9147C213.877 17.4439 212.365 16.6471 210.699 15.8593C209.35 15.196 207.899 14.7615 206.407 14.5735C205.266 14.4467 204.487 14.5735 204.379 14.2747C204.27 13.9758 204.94 13.4235 206.335 13.1609C208.128 12.9185 209.952 13.2346 211.559 14.0664C213.066 14.8486 214.439 15.8665 215.625 17.0817C216.54 17.9691 217.092 18.5667 217.092 18.5667Z" fill="#E6E6E6"/>
<path d="M224.155 12.8711L222.697 13.4325C221.837 13.7856 220.741 14.2837 219.519 14.8179C217.092 15.8864 214.991 17.0092 214.683 16.5202C214.52 16.2938 214.846 15.7505 215.589 15.0714C216.521 14.1931 217.6 13.4852 218.776 12.9797C219.99 12.456 221.323 12.2714 222.634 12.4455C223.028 12.4971 223.416 12.5881 223.793 12.7172L224.155 12.8711Z" fill="#E6E6E6"/>
<path d="M204.026 22.8316L203.627 22.5871C203.374 22.4332 203.002 22.2159 202.559 21.9714C201.414 21.3676 200.224 20.853 199 20.4321C196.166 19.4179 193.64 19.6352 193.567 19.2096C193.567 19.0195 194.147 18.6935 195.242 18.5396C196.678 18.3657 198.135 18.5269 199.498 19.0104C200.86 19.4926 202.079 20.3118 203.039 21.3919C203.322 21.7128 203.577 22.0583 203.799 22.4241L204.026 22.8316Z" fill="#E6E6E6"/>
<path d="M206.742 16.9547C206.742 16.9547 206.344 17.1992 205.728 17.5432L203.473 18.8109C201.762 19.7164 200.449 20.8392 200.123 20.5404C199.978 20.4046 200.123 19.9518 200.558 19.3633C201.147 18.59 201.894 17.951 202.749 17.4889C203.611 17.0347 204.572 16.8014 205.547 16.8098C205.949 16.813 206.35 16.8616 206.742 16.9547Z" fill="#E6E6E6"/>
<path d="M347.274 319.869V316.211H0V292.324H347.274V288.286L366 303.733L347.274 319.869Z" fill="#068EFF"/>
<g opacity="0.2">
<path d="M347.274 319.869V316.211H0V292.324H347.274V288.286L366 303.733L347.274 319.869Z" fill="black"/>
</g>
<path d="M58.9657 143.651C60.0614 147.473 60.994 151.801 63.3574 153.856L75.9437 160.53L74.9115 164.061C74.9115 164.061 59.0744 159.742 56.8016 157.723C54.7552 155.912 52.7903 146.422 52.5911 145.68L58.9657 143.651Z" fill="#FFB87D"/>
<path d="M72.9104 159.878L75.6269 159.389C76.0297 159.311 76.4452 159.324 76.842 159.429C77.2388 159.534 77.6066 159.728 77.9178 159.996L80.2992 162.06C80.4395 162.207 80.5265 162.396 80.5462 162.598C80.5659 162.8 80.5172 163.003 80.4079 163.174L79.1674 165.365C79.0787 165.55 78.926 165.695 78.7377 165.775C78.5494 165.855 78.3384 165.864 78.1441 165.8L75.1379 164.541L71.9234 162.92C71.9234 162.92 71.8238 160.068 72.9104 159.878Z" fill="#FFB87D"/>
<g opacity="0.1">
<path d="M58.9657 143.651C60.0614 147.473 60.994 151.801 63.3574 153.856L75.9437 160.53L74.9115 164.061C74.9115 164.061 59.0744 159.742 56.8016 157.723C54.7552 155.912 52.7903 146.422 52.5911 145.68L58.9657 143.651Z" fill="black"/>
<path d="M72.9103 159.878L75.6267 159.389C76.0296 159.311 76.4451 159.324 76.8418 159.429C77.2386 159.534 77.6064 159.728 77.9176 159.996L80.2991 162.06C80.4394 162.207 80.5264 162.396 80.5461 162.598C80.5658 162.8 80.5171 163.003 80.4077 163.174L79.1672 165.365C79.0786 165.55 78.9258 165.695 78.7375 165.775C78.5492 165.855 78.3383 165.864 78.144 165.8L75.1378 164.541L71.9233 162.92C71.9233 162.92 71.8237 160.068 72.9103 159.878Z" fill="black"/>
</g>
<path d="M54.3116 151.629C52.6998 148.568 49.6211 137.05 53.1978 132.894C53.1978 132.894 55.9143 132.894 58.7847 137.992C59.9709 140.093 61.9358 146.295 62.7236 147.708L54.3116 151.629Z" fill="#068EFF"/>
<path opacity="0.2" d="M56.5301 151.33C56.5301 151.33 56.7112 144.43 56.8198 142.709C56.8198 142.709 60.6139 146.268 56.5301 151.33Z" fill="black"/>
<path d="M100.365 299.052H92.6501C92.1588 299.053 91.6722 298.957 91.2187 298.768C90.7653 298.579 90.3541 298.301 90.0092 297.951C89.6643 297.601 89.3927 297.186 89.2103 296.73C89.0278 296.274 88.9382 295.786 88.9466 295.294L90.7576 179.545C90.7741 178.579 90.4328 177.64 89.7994 176.91C89.166 176.179 88.285 175.709 87.3258 175.588L77.2567 175.407L78.4067 165.728L93.5284 165.809C94.671 165.777 95.8087 165.972 96.8752 166.383C97.9417 166.794 98.9158 167.413 99.7407 168.205C100.566 168.996 101.225 169.943 101.68 170.992C102.136 172.04 102.378 173.169 102.393 174.312L104.123 295.294C104.129 295.79 104.036 296.281 103.849 296.74C103.662 297.198 103.386 297.615 103.036 297.965C102.685 298.315 102.269 298.592 101.81 298.779C101.351 298.965 100.86 299.058 100.365 299.052Z" fill="#263238"/>
<g opacity="0.5">
<path d="M100.365 299.052H92.6501C92.1588 299.053 91.6722 298.957 91.2187 298.768C90.7653 298.579 90.3541 298.301 90.0092 297.951C89.6643 297.601 89.3927 297.186 89.2103 296.73C89.0278 296.274 88.9382 295.786 88.9466 295.294L90.7576 179.545C90.7741 178.579 90.4328 177.64 89.7994 176.91C89.166 176.179 88.285 175.709 87.3258 175.588L77.2567 175.407L78.4067 165.728L93.5284 165.809C94.671 165.777 95.8087 165.972 96.8752 166.383C97.9417 166.794 98.9158 167.413 99.7407 168.205C100.566 168.996 101.225 169.943 101.68 170.992C102.136 172.04 102.378 173.169 102.393 174.312L104.123 295.294C104.129 295.79 104.036 296.281 103.849 296.74C103.662 297.198 103.386 297.615 103.036 297.965C102.685 298.315 102.269 298.592 101.81 298.779C101.351 298.965 100.86 299.058 100.365 299.052Z" fill="white"/>
</g>
<path d="M72.8923 191.996C72.5128 191.96 72.1441 191.849 71.8075 191.67C71.4709 191.491 71.1729 191.247 70.9306 190.953C70.6883 190.658 70.5066 190.319 70.3957 189.954C70.2848 189.589 70.2471 189.206 70.2845 188.827L73.997 151.249C74.0344 150.869 74.1463 150.5 74.3263 150.163C74.5063 149.827 74.7508 149.529 75.046 149.287C75.3411 149.044 75.6811 148.863 76.0464 148.752C76.4118 148.641 76.7954 148.604 77.1753 148.641C77.5553 148.678 77.9241 148.79 78.2608 148.97C78.5975 149.15 78.8955 149.395 79.1376 149.69C79.3798 149.985 79.5614 150.325 79.6722 150.69C79.783 151.056 79.8207 151.439 79.7831 151.819L76.0706 189.397C75.9929 190.163 75.6146 190.867 75.0188 191.354C74.423 191.841 73.6582 192.072 72.8923 191.996Z" fill="#263238"/>
<path opacity="0.5" d="M72.8923 191.996C72.5128 191.96 72.1441 191.849 71.8075 191.67C71.4709 191.491 71.1729 191.247 70.9306 190.953C70.6883 190.658 70.5066 190.319 70.3957 189.954C70.2848 189.589 70.2471 189.206 70.2845 188.827L73.997 151.249C74.0344 150.869 74.1463 150.5 74.3263 150.163C74.5063 149.827 74.7508 149.529 75.046 149.287C75.3411 149.044 75.6811 148.863 76.0464 148.752C76.4118 148.641 76.7954 148.604 77.1753 148.641C77.5553 148.678 77.9241 148.79 78.2608 148.97C78.5975 149.15 78.8955 149.395 79.1376 149.69C79.3798 149.985 79.5614 150.325 79.6722 150.69C79.783 151.056 79.8207 151.439 79.7831 151.819L76.0706 189.397C75.9929 190.163 75.6146 190.867 75.0188 191.354C74.423 191.841 73.6582 192.072 72.8923 191.996Z" fill="white"/>
<path d="M73.7344 192.077L73.5714 198.37C73.5714 198.37 71.9596 201.087 70.8549 198.687C69.7502 196.287 71.9868 191.588 71.9868 191.588L73.7344 192.077Z" fill="#263238"/>
<path opacity="0.6" d="M73.7344 192.077L73.5714 198.37C73.5714 198.37 71.9596 201.087 70.8549 198.687C69.7502 196.287 71.9868 191.588 71.9868 191.588L73.7344 192.077Z" fill="white"/>
<path d="M76.4872 149.021L76.6502 142.683C76.6502 142.683 78.262 139.966 79.3667 142.357C80.4714 144.747 78.2348 149.456 78.2348 149.456L76.4872 149.021Z" fill="#263238"/>
<path opacity="0.6" d="M76.4872 149.021L76.6502 142.683C76.6502 142.683 78.262 139.966 79.3667 142.357C80.4714 144.747 78.2348 149.456 78.2348 149.456L76.4872 149.021Z" fill="white"/>
<path opacity="0.3" d="M78.8596 153.802C78.7871 154.203 78.6003 154.574 78.3216 154.87C78.043 155.167 77.6844 155.377 77.2892 155.475C76.8939 155.572 76.4789 155.553 76.0942 155.42C75.7094 155.287 75.3714 155.046 75.1208 154.725C74.8702 154.404 74.7178 154.018 74.682 153.612C74.6461 153.207 74.7283 152.799 74.9187 152.439C75.1091 152.08 75.3995 151.783 75.755 151.584C76.1104 151.386 76.5157 151.294 76.9219 151.321C77.5057 151.398 78.0359 151.701 78.3983 152.165C78.7607 152.629 78.9264 153.217 78.8596 153.802Z" fill="white"/>
<path opacity="0.3" d="M75.636 185.974C75.562 186.374 75.3743 186.744 75.0953 187.039C74.8163 187.334 74.458 187.543 74.0634 187.639C73.6688 187.736 73.2547 187.717 72.8708 187.584C72.4869 187.451 72.1496 187.21 71.8993 186.89C71.6491 186.57 71.4966 186.184 71.4602 185.78C71.4237 185.375 71.5049 184.968 71.6939 184.609C71.8829 184.249 72.1717 183.952 72.5257 183.752C72.8796 183.553 73.2836 183.46 73.6892 183.484C74.2774 183.557 74.8128 183.86 75.1778 184.327C75.5428 184.793 75.7076 185.386 75.636 185.974Z" fill="white"/>
<path opacity="0.3" d="M76.4781 175.769C76.4058 176.169 76.2193 176.54 75.9411 176.837C75.6629 177.134 75.3049 177.344 74.9102 177.442C74.5154 177.54 74.1007 177.521 73.7161 177.389C73.3315 177.257 72.9932 177.016 72.7422 176.696C72.4911 176.376 72.3378 175.991 72.3009 175.586C72.264 175.181 72.3449 174.773 72.5339 174.413C72.723 174.053 73.0121 173.755 73.3665 173.556C73.7208 173.356 74.1254 173.263 74.5313 173.288C75.1168 173.363 75.6492 173.665 76.0135 174.129C76.3779 174.594 76.5448 175.183 76.4781 175.769Z" fill="white"/>
<path opacity="0.3" d="M77.6008 165.175C77.5283 165.576 77.3415 165.947 77.0628 166.243C76.7842 166.54 76.4256 166.75 76.0304 166.848C75.6351 166.945 75.2201 166.926 74.8354 166.793C74.4506 166.66 74.1126 166.419 73.862 166.098C73.6114 165.777 73.459 165.391 73.4232 164.985C73.3873 164.58 73.4696 164.172 73.6599 163.813C73.8503 163.453 74.1408 163.156 74.4962 162.957C74.8516 162.759 75.2569 162.667 75.6631 162.694C76.2489 162.766 76.782 163.068 77.1453 163.534C77.5086 163.999 77.6725 164.589 77.6008 165.175Z" fill="white"/>
<path d="M29.7004 197.954L45.3111 202.481H45.3745L45.5466 202.409L48.3898 201.277L59.9077 196.686L59.1561 190.067C59.1605 190.043 59.1605 190.019 59.1561 189.995L58.0695 180.387L32.0638 179.799L30.6784 187.686L30.1894 190.402C30.0807 190.991 29.9992 191.597 29.9359 192.213L29.7457 194.296L29.7004 197.954Z" fill="#263238"/>
<path d="M74.0241 298.5C73.1186 293.529 72.2131 285.615 72.2131 285.615L66.8435 291.826C66.8435 291.826 68.2017 298.808 68.8356 300.755C70.4293 300.266 72.4304 298.844 74.0241 298.5Z" fill="#FFB573"/>
<path d="M42.5674 193.834C43.9438 199.856 53.4334 244.044 53.4334 244.044C55.3258 267.677 65.3858 292.216 65.3858 292.216L73.8613 290.405C73.8613 290.405 60.7135 197.683 59.147 189.986L47.8374 192.766L42.5674 193.834Z" fill="#263238"/>
<path opacity="0.2" d="M44.7133 204.012L49.4853 225.743C49.4853 225.743 48.3896 198.244 46.2255 196.061C44.0614 193.879 43.998 200.734 44.7133 204.012Z" fill="black"/>
<path d="M50.6081 132.505C46.6239 132.152 45.7908 131.527 41.7886 131.6C39.7422 131.663 33.3584 131.427 31.4931 132.505C25.9787 135.683 31.9911 175.715 32.0545 179.763L58.0693 180.415C57.7886 171.188 55.9143 164.116 56.9556 153.114C59.002 131.536 53.3427 132.849 50.6081 132.505Z" fill="#068EFF"/>
<path d="M38.1395 131.926L38.6194 132.396C39.2532 133.012 39.8871 133.628 40.5481 134.207C42.2798 135.272 44.1727 136.049 46.1531 136.507C47.3483 135.901 49.5849 135.729 50.101 135.203C50.3169 134.673 50.3918 134.096 50.3183 133.528C50.2811 133.268 50.1983 133.017 50.0739 132.786C49.0955 132.445 48.2747 131.759 47.7648 130.857C47.6759 130.699 47.6031 130.532 47.5475 130.359C47.1561 128.844 47.235 127.246 47.7739 125.777L40.6024 119.276C41.2181 122.925 41.6075 129.843 38.1395 131.926Z" fill="#FFB573"/>
<path opacity="0.2" d="M43.3915 124.021C43.5182 125.741 45.9178 129.191 47.3575 127.905C47.4386 127.193 47.5841 126.49 47.7922 125.804L43.5454 121.956C43.3725 122.63 43.3204 123.329 43.3915 124.021Z" fill="black"/>
<path d="M50.3364 133.537C50.4099 134.105 50.335 134.682 50.1191 135.212C50.3673 134.962 50.5833 134.682 50.762 134.379C50.8886 134.196 50.9771 133.99 51.0222 133.772C51.0673 133.554 51.0681 133.329 51.0246 133.111L50.6262 132.985C50.4444 132.932 50.266 132.869 50.0919 132.794C50.2164 133.026 50.2991 133.277 50.3364 133.537Z" fill="#FFB573"/>
<path d="M37.415 132.288C37.415 132.288 37.9764 132.695 38.9634 133.293C39.4071 133.565 39.9504 133.881 40.5662 134.198C39.9051 133.619 39.2713 133.003 38.6375 132.387L38.1575 131.917C38.0336 131.996 37.9034 132.066 37.7682 132.125C37.6541 132.187 37.5362 132.241 37.415 132.288Z" fill="#FFB573"/>
<path d="M51.4412 116.17L51.8487 118.515C51.8487 118.515 55.0632 119.095 55.7061 118.859C55.3266 118.178 55.1536 117.401 55.2081 116.623C55.4525 115.717 56.8561 115.717 57.2635 114.812C57.671 113.906 57.7797 110.818 56.9466 110.619C56.1136 110.42 51.1424 109.551 51.1424 109.551C47.276 110.665 51.4412 116.17 51.4412 116.17Z" fill="#263238"/>
<path d="M43.799 109.36C44.4041 108.643 45.1448 108.052 45.9788 107.621C46.8127 107.19 47.7234 106.928 48.6588 106.85C49.5941 106.772 50.5357 106.879 51.4296 107.165C52.3235 107.451 53.1521 107.911 53.868 108.518C58.1058 112.059 56.4125 119.665 53.868 123.794C51.0882 128.385 44.2155 128.693 41.662 123.631C39.9687 120.272 40.9829 117.365 42.2778 112.285C42.5493 111.205 43.0703 110.203 43.799 109.36Z" fill="#FFB573"/>
<path d="M43.8351 135.412L46.4067 139.341L46.9228 140.002L45.963 165.284L49.4401 168L52.5278 164.433L48.3988 139.903L48.8606 138.889L50.1101 135.955L48.8877 134.379L45.9268 133.899L43.8351 135.412Z" fill="#263238"/>
<path opacity="0.9" d="M39.4887 129.861L47.0677 132.079L47.7106 130.033L51.7309 132.686L50.5176 138.282L47.0314 133.582L43.835 139.178L37.234 132.251L39.4887 129.861Z" fill="#068EFF"/>
<path opacity="0.9" d="M39.4887 129.861L47.0677 132.079L47.7106 130.033L51.7309 132.686L50.5176 138.282L47.0314 133.582L43.835 139.178L37.234 132.251L39.4887 129.861Z" fill="white"/>
<path d="M50.3094 123.106C50.5472 123.232 50.7996 123.33 51.0609 123.396C51.0788 123.4 51.0972 123.4 51.1153 123.397C51.1334 123.394 51.1507 123.388 51.1662 123.378C51.1818 123.369 51.1953 123.356 51.206 123.341C51.2166 123.326 51.2243 123.309 51.2284 123.292C51.2326 123.274 51.2332 123.255 51.2302 123.237C51.2272 123.219 51.2207 123.202 51.2111 123.186C51.2014 123.171 51.1888 123.157 51.1739 123.146C51.159 123.136 51.1421 123.128 51.1243 123.124C50.153 122.833 49.3037 122.232 48.7066 121.413C48.6863 121.383 48.6555 121.361 48.6203 121.353C48.5852 121.345 48.5481 121.35 48.5165 121.367C48.4842 121.388 48.4612 121.42 48.4528 121.458C48.4443 121.495 48.4509 121.534 48.4712 121.567C48.9478 122.223 49.5792 122.752 50.3094 123.106Z" fill="#263238"/>
<path d="M40.8108 121.63L40.9013 118.479L44.0615 120.498C44.0615 120.498 43.156 116.26 43.808 114.522C44.0525 113.616 45.0938 113.535 45.5012 112.647C45.9087 111.76 46.0174 108.636 45.1934 108.437C44.3694 108.238 40.186 107.459 40.186 107.459C36.3196 108.573 40.8108 121.63 40.8108 121.63Z" fill="#263238"/>
<path d="M22.0217 299.632C23.7331 293.501 26.5492 285.669 26.5492 285.669L18.6442 290.196C18.6442 290.196 16.8876 297.132 16.6522 299.152C18.273 299.251 20.4552 299.387 22.0217 299.632Z" fill="#FFB573"/>
<path d="M50.1827 186.183C50.1012 187.378 49.8296 189.805 49.4402 193.037C49.3859 193.463 49.3315 193.943 49.2681 194.368C48.9693 196.75 48.6162 199.484 48.2268 202.409C48.2268 202.59 48.1453 203.079 48.1363 203.152C46.0899 218.545 43.1923 238.746 42.7033 241.354C39.9868 256.222 27.0926 290.903 26.323 293.031C26.323 293.094 16.5618 291.328 16.5618 291.328C20.1294 273.726 22.2754 254.873 28.8402 241.173C29.1662 237.352 29.5103 212.786 29.7457 197.954C29.7457 196.659 29.7457 195.446 29.7457 194.332L29.9359 192.249C29.9993 191.652 30.0808 191.045 30.1894 190.438L30.6784 187.722L50.1827 186.183Z" fill="#263238"/>
<path d="M49.9563 115.491C50.2279 115.491 50.4271 115.871 50.3999 116.297C50.3728 116.722 50.1192 117.048 49.8385 117.03C49.5578 117.012 49.3677 116.65 49.3949 116.224C49.422 115.799 49.6846 115.464 49.9563 115.491Z" fill="#263238"/>
<path d="M54.9364 116.025C55.2171 116.025 55.4344 116.378 55.4163 116.803C55.3982 117.229 55.1719 117.573 54.8912 117.564C54.6104 117.555 54.4022 117.211 54.4112 116.776C54.4203 116.342 54.6195 116.016 54.9364 116.025Z" fill="#263238"/>
<path d="M52.1384 121.259C52.4783 121.373 52.839 121.412 53.1956 121.373C53.5521 121.334 53.8958 121.218 54.2029 121.033C53.4251 119.862 52.8155 118.588 52.3919 117.248L52.1384 121.259Z" fill="#ED893E"/>
<path d="M48.6885 114.576C48.6452 114.529 48.6212 114.468 48.6212 114.404C48.6212 114.34 48.6452 114.279 48.6885 114.232C48.9865 113.968 49.3438 113.78 49.73 113.684C50.1162 113.588 50.52 113.586 50.9069 113.68C50.968 113.7 51.0184 113.744 51.0472 113.802C51.0761 113.86 51.081 113.926 51.0608 113.988C51.0525 114.019 51.0378 114.049 51.0177 114.075C50.9975 114.101 50.9723 114.123 50.9436 114.139C50.9148 114.155 50.8831 114.165 50.8504 114.169C50.8176 114.172 50.7845 114.169 50.753 114.16C50.4459 114.093 50.1274 114.1 49.8235 114.18C49.5197 114.26 49.2392 114.412 49.0054 114.621C48.9711 114.636 48.9341 114.644 48.8967 114.644C48.8593 114.644 48.8223 114.636 48.7881 114.621C48.7515 114.615 48.7173 114.6 48.6885 114.576Z" fill="#263238"/>
<path d="M55.9416 115.292C55.7723 115.03 55.544 114.812 55.2751 114.655C55.0062 114.498 54.7041 114.406 54.3932 114.386C54.3398 114.377 54.2908 114.351 54.2533 114.312C54.2158 114.273 54.1919 114.223 54.1849 114.169C54.1798 114.137 54.1812 114.104 54.1889 114.072C54.1966 114.041 54.2106 114.011 54.23 113.985C54.2494 113.959 54.2738 113.937 54.3019 113.92C54.3299 113.903 54.3609 113.893 54.3932 113.888C54.7895 113.91 55.1749 114.027 55.5168 114.228C55.8587 114.43 56.1472 114.711 56.3581 115.047C56.3741 115.074 56.3844 115.105 56.3885 115.136C56.3926 115.167 56.3904 115.199 56.3819 115.229C56.3735 115.26 56.359 115.288 56.3393 115.313C56.3197 115.338 56.2953 115.358 56.2676 115.373C56.2518 115.38 56.2349 115.383 56.2178 115.383C56.2006 115.383 56.1837 115.38 56.168 115.373C56.1264 115.38 56.0837 115.376 56.0441 115.362C56.0044 115.348 55.9691 115.324 55.9416 115.292Z" fill="#263238"/>
<path d="M23.9957 297.603C25.5441 299.215 27.6177 300.238 32.6341 301.497C33.7479 301.787 33.268 304.766 30.5062 304.739C27.7445 304.712 23.8056 303.915 21.8225 303.743C18.599 303.453 17.2226 303.462 14.6782 303.163C14.6125 303.177 14.5447 303.177 14.479 303.163C13.9719 303.009 12.6046 303.091 16.0908 296.245C16.3715 295.684 16.7971 295.222 17.3675 295.34L22.556 296.1C22.72 296.125 22.8759 296.188 23.0111 296.284C23.1464 296.38 23.2572 296.506 23.3347 296.653C23.5296 296.987 23.7507 297.305 23.9957 297.603Z" fill="#263238"/>
<path d="M75.9257 296.942C77.619 298.391 80.0728 299.568 85.2613 300.13C86.4203 300.265 86.1668 303.426 83.3236 303.806C80.4803 304.186 75.2375 304.096 73.2092 304.204C69.8951 304.385 64.6795 304.413 66.1735 300.935C66.1735 300.935 66.5086 300.582 67.0156 296.408C67.0429 296.06 67.1941 295.734 67.4416 295.488C67.6892 295.242 68.0168 295.093 68.3648 295.068H73.9698C74.1476 295.067 74.323 295.109 74.4807 295.191C74.6385 295.273 74.7739 295.393 74.8753 295.539C75.1875 296.034 75.5388 296.503 75.9257 296.942Z" fill="#263238"/>
<path opacity="0.2" d="M34.8254 142.764C35.1242 143.171 41.7343 138.463 41.2725 145.942C41.0914 148.758 44.2697 145.942 43.5996 149.691L36.6817 153.63C35.3959 154.798 33.2136 147.862 32.0546 143.081C31.5837 141.134 33.5939 141.08 34.8254 142.764Z" fill="black"/>
<path d="M45.3019 144.331C47.8011 148.197 51.2872 153.929 53.5238 153.467L68.392 153.15L70.5108 156.392C70.5108 156.392 50.9522 161.281 47.7377 159.498C44.8944 157.913 39.4796 148.161 39.0087 147.409L45.3019 144.331Z" fill="#FFB87D"/>
<path d="M67.6768 153.666L70.0491 151.583C70.8006 150.937 71.7764 150.611 72.7656 150.678L76.5144 150.85C76.7396 150.849 76.9572 150.932 77.1246 151.082C77.2921 151.233 77.3973 151.441 77.4198 151.665L77.6734 154.173C77.6964 154.394 77.6371 154.616 77.5068 154.797C77.3765 154.977 77.1844 155.103 76.9671 155.151L73.155 156.011L68.8901 156.709C68.8901 156.709 66.7713 154.472 67.6768 153.666Z" fill="#FFB87D"/>
<path d="M37.7593 151.692C35.4775 148.07 27.9256 137.521 31.8917 133.148C31.8917 133.148 36.6546 128.493 42.7576 136.697C44.5686 139.115 46.778 144.52 47.8646 146.205L37.7593 151.692Z" fill="#068EFF"/>
<path d="M41.1095 113.634C42.5673 114.187 42.9205 116.55 42.7032 118.026C42.4587 119.665 41.191 120.634 39.9867 119.466C39.08 118.54 38.5479 117.311 38.4926 116.016C38.4474 114.404 39.6517 113.091 41.1095 113.634Z" fill="#FFB573"/>
<path d="M56.367 111.624C56.6448 111.586 56.9122 111.494 57.154 111.352C57.3957 111.21 57.6069 111.022 57.7754 110.798C57.9438 110.574 58.0661 110.319 58.1352 110.047C58.2043 109.776 58.2189 109.493 58.178 109.216C58.1484 108.643 57.9806 108.086 57.6889 107.593C57.3972 107.099 56.9902 106.683 56.5029 106.381C52.7994 104.57 50.7892 101.809 49.9018 101.682C49.6392 101.637 46.7597 102.832 40.6748 104.905C39.6607 105.25 39.4253 107.758 40.1315 108.573C40.5704 108.993 41.1202 109.279 41.7162 109.397C44.2891 110.097 46.9702 110.308 49.6211 110.021C50.2201 109.896 50.8401 109.911 51.4321 110.067C52.0026 110.275 52.9805 111.09 52.7813 111.669C53.2521 110.972 53.7502 110.601 54.5923 110.836C55.2027 111.054 55.7959 111.318 56.367 111.624Z" fill="#263238"/>
<path d="M228.546 24.9414C228.546 24.9414 268.841 129.318 244.32 252.301C244.32 252.301 272.345 214.959 309.515 214.959C335.974 214.959 338.908 230.035 348.705 234.237C348.687 234.237 353.559 122.354 228.546 24.9414Z" fill="#068EFF"/>
<path opacity="0.7" d="M228.546 24.9414C228.546 24.9414 268.841 129.318 244.32 252.301C244.32 252.301 272.345 214.959 309.515 214.959C335.974 214.959 338.908 230.035 348.705 234.237C348.687 234.237 353.559 122.354 228.546 24.9414Z" fill="white"/>
<path opacity="0.1" d="M228.546 24.9414C228.546 24.9414 269.103 127.262 244.583 250.201C343.988 131.862 228.546 24.9414 228.546 24.9414Z" fill="black"/>
<path d="M348.506 233.648L248.06 250.328L233.816 252.691C232.956 252.836 234.233 254.918 235.084 254.783L349.774 235.767C350.679 235.631 349.366 233.54 348.506 233.685V233.648Z" fill="#263238"/>
<path d="M230.457 299.242H226.663C226.166 299.244 225.673 299.146 225.214 298.956C224.755 298.765 224.338 298.485 223.987 298.132C223.637 297.779 223.36 297.36 223.173 296.9C222.985 296.439 222.891 295.946 222.896 295.448L226.455 27.9659C226.464 27.4118 226.69 26.8835 227.085 26.4942C227.479 26.1049 228.01 25.8856 228.565 25.8833C229.12 25.8832 229.654 26.1015 230.05 26.491C230.447 26.8806 230.674 27.4103 230.683 27.9659L234.242 295.448C234.247 295.947 234.152 296.442 233.964 296.904C233.776 297.366 233.497 297.786 233.145 298.139C232.792 298.492 232.373 298.771 231.912 298.961C231.45 299.15 230.956 299.246 230.457 299.242Z" fill="#263238"/>
<path opacity="0.5" d="M230.457 299.242H226.663C226.166 299.244 225.673 299.146 225.214 298.956C224.755 298.765 224.338 298.485 223.987 298.132C223.637 297.779 223.36 297.36 223.173 296.9C222.985 296.439 222.891 295.946 222.896 295.448L226.455 27.9659C226.464 27.4118 226.69 26.8835 227.085 26.4942C227.479 26.1049 228.01 25.8856 228.565 25.8833C229.12 25.8832 229.654 26.1015 230.05 26.491C230.447 26.8806 230.674 27.4103 230.683 27.9659L234.242 295.448C234.247 295.947 234.152 296.442 233.964 296.904C233.776 297.366 233.497 297.786 233.145 298.139C232.792 298.492 232.373 298.771 231.912 298.961C231.45 299.15 230.956 299.246 230.457 299.242Z" fill="white"/>
<path d="M226.111 31.2619C227.551 32.113 229.506 31.9772 231.073 31.6512C231.232 31.5995 231.366 31.4911 231.449 31.3468C231.533 31.2025 231.561 31.0324 231.528 30.8689C231.494 30.7054 231.401 30.56 231.267 30.4605C231.133 30.3609 230.967 30.3142 230.801 30.3292C229.606 30.5828 227.813 30.7005 226.871 30.1391C226.12 29.6954 225.359 30.8091 226.111 31.2619Z" fill="#068EFF"/>
<path d="M165.732 285.859L169.219 298.79L175.494 297.241L172.161 283.387L165.732 285.859Z" fill="#7F3E3B"/>
<path d="M150.049 177.553C150.049 177.553 161.748 220.383 164.999 234.853C167.978 248.091 174.307 288.195 174.307 288.195L166.049 290.513C166.049 290.513 157.302 265.232 155.183 256.639C154.151 252.383 153.164 243.573 151.924 239.38C148.736 228.623 138.341 208.784 134.964 198.09C133.732 194.196 131.342 182.072 131.342 182.072L150.049 177.553Z" fill="#068EFF"/>
<path d="M163.659 288.204L164.999 291.881L176.037 289.028L175.276 285.388L163.659 288.204Z" fill="#068EFF"/>
<path opacity="0.5" d="M163.659 288.204L164.999 291.881L176.037 289.028L175.276 285.388L163.659 288.204Z" fill="white"/>
<path d="M176.281 297.413C176.251 297.414 176.221 297.405 176.196 297.387C176.171 297.369 176.154 297.343 176.146 297.314C176.128 297.288 176.119 297.258 176.119 297.228C176.119 297.197 176.128 297.167 176.146 297.142C176.227 297.06 178.11 295.331 179.17 295.385C179.269 295.393 179.366 295.42 179.454 295.465C179.543 295.51 179.622 295.572 179.686 295.648C179.771 295.734 179.83 295.843 179.854 295.962C179.878 296.081 179.867 296.205 179.822 296.318C179.392 296.822 178.787 297.146 178.129 297.223C177.521 297.347 176.902 297.411 176.281 297.413ZM176.707 297.105C177.866 297.015 179.423 296.671 179.595 296.2C179.595 296.137 179.595 296.037 179.505 295.865C179.466 295.817 179.416 295.778 179.359 295.751C179.303 295.724 179.241 295.711 179.179 295.711C179.086 295.694 178.991 295.694 178.898 295.711C178.086 296.033 177.342 296.506 176.707 297.105Z" fill="#068EFF"/>
<path d="M176.2 297.422C176.176 297.411 176.156 297.393 176.141 297.37C176.127 297.348 176.119 297.322 176.118 297.296C176.01 296.362 176.18 295.417 176.607 294.579C176.695 294.46 176.807 294.361 176.934 294.286C177.062 294.211 177.203 294.163 177.35 294.145C177.757 294.145 177.92 294.289 177.966 294.461C178.228 295.168 177.06 296.888 176.363 297.386C176.354 297.393 176.343 297.396 176.331 297.396C176.32 297.396 176.309 297.393 176.3 297.386C176.287 297.399 176.271 297.409 176.254 297.415C176.237 297.421 176.218 297.424 176.2 297.422ZM177.314 294.48C177.128 294.517 176.963 294.624 176.852 294.778C176.498 295.442 176.344 296.193 176.408 296.942C177.069 296.3 177.821 294.996 177.712 294.561C177.712 294.561 177.658 294.416 177.395 294.452H177.314V294.48Z" fill="#068EFF"/>
<path d="M175.466 296.435L168.856 297.875C168.73 297.906 168.618 297.977 168.537 298.079C168.457 298.181 168.413 298.307 168.413 298.437L168.259 304.44C168.246 304.566 168.26 304.694 168.3 304.814C168.34 304.935 168.404 305.046 168.49 305.14C168.575 305.234 168.679 305.308 168.795 305.36C168.912 305.411 169.037 305.437 169.164 305.436H169.354C171.727 304.875 173.818 304.277 176.788 303.625C180.293 302.864 179.505 303.507 183.607 302.674C186.097 302.176 186.006 299.052 184.929 299.134C179.994 299.532 179.215 298.083 177.033 296.644C176.799 296.505 176.54 296.416 176.271 296.38C176.002 296.344 175.728 296.363 175.466 296.435Z" fill="#263238"/>
<path opacity="0.2" d="M145.078 222.14C144.807 212.025 141.112 201.313 141.112 201.313L136.847 203.251C139.048 208.802 142.172 215.593 145.078 222.14Z" fill="black"/>
<path d="M109.293 279.765L105.245 292.578L111.186 295.149L115.849 281.667L109.293 279.765Z" fill="#7F3E3B"/>
<path d="M150.049 177.553C150.049 177.553 137.608 228.632 132.202 245.239C128.58 256.322 114.518 288.53 114.518 288.53L106.368 284.754C106.368 284.754 112.779 258.495 115.794 249.947C116.7 247.457 118.837 242.64 119.561 240.095C122.033 231.403 124.705 213.302 124.94 204.238C125.04 200.534 123.881 193.173 123.917 189.469C123.917 186.237 125.103 176.611 125.103 176.611L150.049 177.553Z" fill="#068EFF"/>
<path d="M105.689 281.875L104.467 285.588L115.387 290.097L116.691 286.62L105.689 281.875Z" fill="#068EFF"/>
<path opacity="0.5" d="M105.689 281.875L104.467 285.588L115.387 290.097L116.691 286.62L105.689 281.875Z" fill="white"/>
<path d="M111.665 296.635C111.64 296.615 111.62 296.588 111.609 296.558C111.598 296.527 111.595 296.494 111.602 296.463C111.609 296.432 111.625 296.405 111.647 296.384C111.67 296.363 111.698 296.349 111.729 296.345C111.838 296.345 114.31 296.073 115.124 296.798C115.276 296.938 115.375 297.127 115.405 297.332C115.428 297.451 115.416 297.573 115.371 297.686C115.326 297.798 115.25 297.895 115.152 297.966C114.527 298.09 113.879 297.97 113.341 297.631C112.752 297.352 112.191 297.018 111.665 296.635ZM112.173 296.635C113.16 297.277 114.572 297.948 115.007 297.685C115.061 297.685 115.133 297.585 115.106 297.359C115.103 297.295 115.086 297.233 115.057 297.177C115.027 297.121 114.985 297.071 114.934 297.033C114.862 296.971 114.783 296.916 114.699 296.87C113.889 296.632 113.04 296.555 112.2 296.644L112.173 296.635Z" fill="#068EFF"/>
<path d="M111.665 296.589C111.652 296.565 111.645 296.539 111.645 296.512C111.645 296.485 111.652 296.458 111.665 296.435C111.665 296.362 112.571 294.805 113.531 294.515C113.67 294.47 113.818 294.456 113.964 294.474C114.11 294.493 114.249 294.544 114.373 294.624C114.717 294.841 114.744 295.095 114.69 295.267C114.527 296 112.616 296.661 111.81 296.661H111.756C111.719 296.647 111.687 296.622 111.665 296.589ZM114.165 294.85C113.993 294.782 113.802 294.782 113.63 294.85C112.978 295.178 112.443 295.7 112.1 296.344C113.006 296.236 114.3 295.638 114.436 295.203C114.436 295.203 114.436 295.059 114.246 294.923H114.165V294.85Z" fill="#068EFF"/>
<path d="M111.557 295.322L105.436 292.379C105.322 292.325 105.193 292.314 105.072 292.347C104.95 292.38 104.845 292.456 104.775 292.56L101.397 297.395C101.248 297.601 101.182 297.855 101.212 298.106C101.242 298.358 101.367 298.59 101.56 298.754C101.61 298.794 101.665 298.828 101.723 298.853C103.942 299.876 105.961 300.664 108.705 302.013C111.946 303.58 110.95 303.598 114.735 305.49C117.017 306.631 118.629 304.014 117.714 303.408C113.522 300.691 113.667 298.989 112.68 296.445C112.453 295.947 112.054 295.548 111.557 295.322Z" fill="#263238"/>
<path d="M135.371 182.126L125.094 182.18L124.922 184.725L135.426 184.67L135.371 182.126Z" fill="#263238"/>
<path d="M150.348 182.044L144.462 182.081L144.562 184.616L151.009 184.58L150.348 182.044Z" fill="#263238"/>
<path d="M142.579 182.09L137.508 182.117L137.545 184.652L142.642 184.625L142.579 182.09Z" fill="#263238"/>
<path d="M133.569 104.553C133.569 104.553 138.024 103.086 136.63 108.175L133.252 107.043L133.569 104.553Z" fill="#263238"/>
<path d="M127.964 119.384C129.25 122.427 131.043 127.787 130.065 131.02C129.951 131.395 129.969 131.798 130.115 132.162C130.262 132.526 130.529 132.829 130.871 133.021C133.363 134.58 136.341 135.166 139.238 134.669C142.95 134.035 142.796 132.007 141.746 130.621C141.606 130.438 141.43 130.285 141.229 130.172C141.029 130.058 140.807 129.986 140.578 129.96C136.856 129.58 135.978 126.583 136.05 123.794L127.964 119.384Z" fill="#7F3E3B"/>
<path opacity="0.2" d="M131.288 121.195L136.096 123.785C136.087 124.467 136.132 125.148 136.232 125.822C135.303 125.857 134.381 125.663 133.544 125.259C132.708 124.855 131.983 124.253 131.432 123.504C130.826 122.554 130.916 121.404 131.288 121.195Z" fill="black"/>
<path d="M125.528 114.486C127.186 119.185 127.919 122.019 131.043 123.785C135.742 126.456 141.003 122.572 140.831 117.446C140.632 112.838 137.952 105.947 132.682 105.367C130.889 105.158 129.087 105.669 127.671 106.788C126.255 107.907 125.341 109.542 125.13 111.334C125.004 112.402 125.141 113.483 125.528 114.486Z" fill="#7F3E3B"/>
<path d="M133.488 112.964C133.606 113.354 133.895 113.616 134.149 113.544C134.402 113.471 134.529 113.1 134.411 112.702C134.294 112.303 134.004 112.059 133.75 112.131C133.497 112.204 133.397 112.575 133.488 112.964Z" fill="#263238"/>
<path d="M137.925 111.724C138.033 112.104 138.332 112.367 138.586 112.294C138.839 112.222 138.957 111.842 138.848 111.461C138.74 111.081 138.441 110.809 138.187 110.882C137.934 110.954 137.798 111.326 137.925 111.724Z" fill="#263238"/>
<path d="M136.259 113.109C137.064 114.167 138.012 115.108 139.075 115.907C138.858 116.182 138.583 116.406 138.27 116.562C137.957 116.719 137.614 116.804 137.264 116.813L136.259 113.109Z" fill="#630F0F"/>
<path d="M132.148 111.797C132.108 111.786 132.071 111.767 132.039 111.742C132.008 111.688 131.997 111.624 132.009 111.563C132.021 111.502 132.054 111.446 132.102 111.407C132.412 111.19 132.769 111.049 133.143 110.996C133.518 110.942 133.899 110.978 134.258 111.099C134.315 111.123 134.362 111.169 134.387 111.226C134.412 111.283 134.414 111.348 134.393 111.407C134.369 111.467 134.322 111.515 134.263 111.54C134.204 111.566 134.136 111.567 134.076 111.543C133.792 111.45 133.49 111.425 133.194 111.471C132.898 111.516 132.617 111.631 132.374 111.806C132.339 111.824 132.299 111.833 132.26 111.831C132.22 111.83 132.181 111.818 132.148 111.797Z" fill="#263238"/>
<path d="M138.993 109.415C138.978 109.452 138.954 109.484 138.922 109.508C138.89 109.532 138.852 109.547 138.812 109.551C138.516 109.576 138.23 109.671 137.979 109.829C137.727 109.986 137.516 110.201 137.363 110.456C137.333 110.512 137.282 110.554 137.222 110.574C137.161 110.594 137.095 110.591 137.037 110.565C137.009 110.551 136.984 110.532 136.964 110.509C136.943 110.486 136.927 110.459 136.917 110.429C136.907 110.4 136.903 110.368 136.905 110.337C136.907 110.306 136.915 110.276 136.929 110.248C137.117 109.923 137.379 109.646 137.693 109.44C138.008 109.234 138.366 109.104 138.74 109.062C138.77 109.057 138.8 109.058 138.83 109.065C138.859 109.073 138.887 109.086 138.911 109.105C138.935 109.124 138.954 109.147 138.969 109.174C138.983 109.201 138.991 109.231 138.993 109.261C139.009 109.311 139.009 109.365 138.993 109.415Z" fill="#263238"/>
<path d="M117.578 138.227L123.772 181.148L152.159 181.039L152.087 131.146C152.084 130.634 151.964 130.128 151.738 129.668C151.512 129.208 151.184 128.805 150.78 128.49C150.376 128.174 149.905 127.955 149.404 127.847C148.902 127.74 148.383 127.747 147.885 127.869L120.141 134.47C119.321 134.662 118.604 135.155 118.13 135.851C117.655 136.546 117.459 137.394 117.578 138.227Z" fill="#263238"/>
<path d="M188.723 118.814L194.283 114.476L196.999 108.926C197.153 108.621 197.234 108.285 197.234 107.943C197.234 107.602 197.153 107.265 196.999 106.961L196.365 105.784C196.222 105.516 196.025 105.281 195.787 105.094C195.548 104.907 195.274 104.771 194.98 104.695C194.686 104.619 194.38 104.605 194.081 104.654C193.782 104.703 193.496 104.813 193.241 104.978L191.43 106.155C191.137 106.347 190.894 106.607 190.722 106.912C190.55 107.218 190.455 107.561 190.443 107.912L190.317 112.439L185.201 115.717L188.723 118.814Z" fill="#7F3E3B"/>
<path d="M145.431 131.428C145.607 130.383 146.115 129.423 146.88 128.69C147.645 127.957 148.627 127.492 149.678 127.362C154.948 126.71 164.465 125.379 168.159 123.939C173.284 121.938 187.383 112.874 187.383 112.874L191.068 118.307C191.068 118.307 176.625 129.933 171.093 132.605C167.127 134.515 157.51 136.136 151 137.078C150.235 137.189 149.455 137.118 148.722 136.871C147.99 136.624 147.325 136.209 146.783 135.658C146.241 135.107 145.836 134.436 145.601 133.699C145.366 132.963 145.308 132.182 145.431 131.419V131.428Z" fill="#263238"/>
<path d="M134.122 133.945L136.068 132.08L139.039 132.27L139.681 135.593L139.527 137.929L140.922 139.803L144.752 167.484L142.335 171.894L137.599 168.453L136.657 141.153L137.101 138.545L134.049 135.113L134.122 133.945Z" fill="#068EFF"/>
<path d="M129.314 130.332L126.67 132.912L132.329 136.362L135.752 132.595L142.597 133.338L141.474 129.299L139.319 128.548L135.181 130.884L129.314 130.332Z" fill="#263238"/>
<path opacity="0.3" d="M129.314 130.332L126.67 132.912L132.329 136.362L135.752 132.595L142.597 133.338L141.474 129.299L139.319 128.548L135.181 130.884L129.314 130.332Z" fill="white"/>
<path d="M134.303 119.248C134.058 119.183 133.819 119.098 133.587 118.995C133.569 118.989 133.551 118.979 133.537 118.966C133.522 118.953 133.51 118.937 133.501 118.919C133.493 118.901 133.488 118.882 133.487 118.862C133.486 118.843 133.49 118.823 133.497 118.805C133.516 118.771 133.547 118.745 133.583 118.732C133.62 118.718 133.66 118.719 133.696 118.732C134.275 118.999 134.908 119.126 135.545 119.104C136.182 119.082 136.804 118.911 137.363 118.605C137.38 118.594 137.398 118.586 137.418 118.582C137.438 118.578 137.458 118.578 137.477 118.582C137.497 118.587 137.515 118.595 137.532 118.607C137.548 118.618 137.561 118.633 137.572 118.651C137.585 118.663 137.596 118.679 137.604 118.696C137.611 118.713 137.615 118.732 137.615 118.75C137.615 118.769 137.611 118.788 137.604 118.805C137.596 118.822 137.585 118.837 137.572 118.85C137.082 119.135 136.54 119.317 135.978 119.386C135.416 119.454 134.846 119.408 134.303 119.248Z" fill="#263238"/>
<path d="M126.543 118.334C126.543 118.334 130.4 118.587 126.932 112.493C127.794 111.286 128.27 109.847 128.299 108.364C128.299 108.364 138.903 104.579 136.286 101.329C133.669 98.078 131.215 102.361 131.215 102.361C131.215 102.361 127.231 99.7985 126.099 104.969C126.099 104.969 121.49 106.119 123.509 110.302C123.037 111.093 122.858 112.025 123.002 112.935C123.146 113.845 123.604 114.675 124.297 115.282C124.297 115.282 124.487 117.908 126.543 118.334Z" fill="#263238"/>
<path d="M124.451 119.611C125.39 120.446 126.619 120.878 127.874 120.815C129.54 120.706 129.83 119.104 128.915 117.818C128.001 116.532 126.199 115.328 124.777 116.061C124.46 116.223 124.19 116.463 123.991 116.757C123.791 117.052 123.67 117.392 123.637 117.746C123.605 118.101 123.662 118.457 123.805 118.783C123.947 119.109 124.169 119.394 124.451 119.611Z" fill="#7F3E3B"/>
<path d="M227.243 30.981C220.904 48.8736 195.134 103.565 194.138 106.608C193.603 108.238 194.011 107.694 192.589 108.699C174.045 121.856 156.37 136.48 138.378 150.352L128.508 157.931C127.43 158.594 126.522 159.5 125.855 160.575C123.817 164.324 123.138 169.739 122.151 173.832C120.729 179.708 119.38 185.802 119.317 191.869C119.317 195.047 119.453 200.571 123.536 201.304C127.62 202.038 128.969 197.112 129.395 193.997C130.753 183.276 128.145 171.486 125.71 161.064C125.51 160.159 124.125 160.466 124.333 161.354C126.452 170.409 128.227 180.007 128.227 189.361C128.227 191.742 127.43 203.722 122.323 199.158C119.118 196.297 120.865 188.175 121.418 184.616C122.4 178.544 123.767 172.541 125.51 166.642C125.99 164.976 126.416 163.228 127.023 161.598C127.448 160.475 127.186 160.838 127.457 160.512C128.979 158.701 131.704 157.252 133.578 155.821L144.933 147.101L175.05 123.984L187.482 114.44C189.619 112.801 192.363 111.244 194.21 109.279C196.519 106.825 221.828 50.6574 228.619 31.4609C228.665 31.2885 228.644 31.105 228.561 30.9472C228.477 30.7895 228.337 30.6693 228.168 30.6108C228 30.5523 227.815 30.5598 227.652 30.6319C227.488 30.7039 227.358 30.8351 227.288 30.9991L227.243 30.981Z" fill="#068EFF"/>
<g opacity="0.3">
<path d="M227.243 30.981C220.904 48.8736 195.134 103.565 194.138 106.608C193.603 108.238 194.011 107.694 192.589 108.699C174.045 121.856 156.37 136.48 138.378 150.352L128.508 157.931C127.43 158.594 126.522 159.5 125.855 160.575C123.817 164.324 123.138 169.739 122.151 173.832C120.729 179.708 119.38 185.802 119.317 191.869C119.317 195.047 119.453 200.571 123.536 201.304C127.62 202.038 128.969 197.112 129.395 193.997C130.753 183.276 128.145 171.486 125.71 161.064C125.51 160.159 124.125 160.466 124.333 161.354C126.452 170.409 128.227 180.007 128.227 189.361C128.227 191.742 127.43 203.722 122.323 199.158C119.118 196.297 120.865 188.175 121.418 184.616C122.4 178.544 123.767 172.541 125.51 166.642C125.99 164.976 126.416 163.228 127.023 161.598C127.448 160.475 127.186 160.838 127.457 160.512C128.979 158.701 131.704 157.252 133.578 155.821L144.933 147.101L175.05 123.984L187.482 114.44C189.619 112.801 192.363 111.244 194.21 109.279C196.519 106.825 221.828 50.6574 228.619 31.4609C228.665 31.2885 228.644 31.105 228.561 30.9472C228.477 30.7895 228.337 30.6693 228.168 30.6108C228 30.5523 227.815 30.5598 227.652 30.6319C227.488 30.7039 227.358 30.8351 227.288 30.9991L227.243 30.981Z" fill="black"/>
</g>
<path d="M120.412 159.334L124.27 159.914L127.964 156.392L129.549 157.071C130.074 157.293 130.516 157.675 130.811 158.163C131.107 158.65 131.242 159.219 131.197 159.787C131.167 160.242 131.022 160.682 130.777 161.067C130.531 161.452 130.193 161.768 129.793 161.988L126.09 164.052C125.737 164.252 125.345 164.37 124.94 164.398C124.536 164.426 124.131 164.364 123.754 164.215L123.328 164.052L118.801 163.147L120.412 159.334Z" fill="#7F3E3B"/>
<path d="M124.342 137.241C124.016 136.643 123.565 136.123 123.019 135.717C122.473 135.311 121.845 135.027 121.18 134.886C120.514 134.745 119.825 134.75 119.162 134.9C118.498 135.05 117.874 135.342 117.334 135.756C110.09 141.324 96.6524 152.552 98.3185 158.085C99.9756 163.436 119.942 164.333 119.942 164.333L122.758 158.103C122.758 158.103 112.299 157.315 111.584 154.481C110.869 151.647 118.14 146.422 122.74 143.389C123.722 142.75 124.428 141.764 124.716 140.628C125.005 139.492 124.855 138.289 124.297 137.259L124.342 137.241Z" fill="#263238"/>
<path d="M202.251 280.525L197.126 294.28L203.292 295.774L209.984 282.4L202.251 280.525Z" fill="#FFC3BD"/>
<path d="M204.397 295.873C204.369 295.858 204.346 295.836 204.33 295.809C204.314 295.782 204.306 295.751 204.307 295.719C204.308 295.688 204.319 295.658 204.338 295.633C204.358 295.609 204.385 295.591 204.415 295.584C204.524 295.584 206.996 294.823 207.974 295.357C208.066 295.403 208.147 295.467 208.214 295.544C208.281 295.622 208.332 295.712 208.363 295.81C208.408 295.921 208.418 296.042 208.392 296.158C208.366 296.275 208.306 296.381 208.218 296.462C207.592 296.702 206.898 296.702 206.271 296.462C205.631 296.32 205.004 296.123 204.397 295.873ZM204.922 295.783C206.054 296.199 207.639 296.571 208.019 296.226C208.073 296.226 208.137 296.109 208.019 295.901C208.004 295.839 207.976 295.781 207.935 295.732C207.894 295.683 207.842 295.645 207.784 295.62C207.695 295.573 207.601 295.54 207.503 295.52C206.637 295.447 205.765 295.536 204.931 295.783H204.922Z" fill="#068EFF"/>
<path d="M204.325 295.846C204.31 295.823 204.302 295.796 204.302 295.769C204.302 295.742 204.31 295.715 204.325 295.692C204.325 295.62 204.913 293.972 205.864 293.501C206.003 293.431 206.156 293.391 206.311 293.381C206.467 293.372 206.623 293.394 206.769 293.447C207.168 293.582 207.249 293.818 207.222 293.99C207.222 294.723 205.366 295.728 204.506 295.882C204.496 295.887 204.485 295.89 204.474 295.89C204.463 295.89 204.452 295.887 204.442 295.882C204.4 295.884 204.358 295.872 204.325 295.846ZM206.552 293.7C206.363 293.657 206.165 293.679 205.991 293.763C205.401 294.195 204.956 294.795 204.714 295.484C205.619 295.212 206.833 294.388 206.887 293.954C206.887 293.908 206.887 293.8 206.634 293.718H206.552V293.7Z" fill="#068EFF"/>
<path d="M203.971 294.841L197.144 293.229C197.019 293.199 196.887 293.212 196.771 293.267C196.654 293.321 196.559 293.413 196.501 293.528L193.957 298.789C193.897 298.898 193.861 299.019 193.85 299.143C193.84 299.268 193.855 299.393 193.895 299.511C193.935 299.629 193.999 299.738 194.082 299.83C194.166 299.923 194.268 299.996 194.382 300.047L194.572 300.12C197.044 300.654 199.263 301.025 202.323 301.768C205.945 302.628 204.913 302.836 209.151 303.905C211.704 304.548 212.863 301.75 211.813 301.342C206.987 299.531 206.833 297.92 205.33 295.692C204.997 295.251 204.514 294.948 203.971 294.841Z" fill="#263238"/>
<path d="M235.265 283.64L233.527 298.228H239.865L243.225 283.64H235.265Z" fill="#FFC3BD"/>
<path d="M235.302 163.183C235.302 163.183 242.201 177.951 248.784 174.954C255.367 171.957 253.602 158.818 253.602 158.818L256.119 153.738L253.828 147.101L248.929 148.007L249.771 150.316L248.703 153.141L250.133 158.737L247.055 168.616L242.165 159.832L235.302 163.183Z" fill="#FFC3BD"/>
<path d="M239.793 151.954L245.814 161.634L236.026 167.239L231.091 157.324C230.694 156.527 230.574 155.621 230.749 154.749C230.925 153.877 231.386 153.088 232.06 152.507L233.771 151.031C234.21 150.653 234.725 150.375 235.282 150.216C235.838 150.057 236.422 150.02 236.994 150.107C237.566 150.195 238.113 150.406 238.596 150.724C239.079 151.043 239.487 151.463 239.793 151.954Z" fill="#068EFF"/>
<path opacity="0.2" d="M235.99 157.885L235.528 166.234L236.026 167.239L239.575 165.211L239.041 156.409L235.99 157.885Z" fill="black"/>
<path d="M229.706 195.997C229.706 195.997 247.426 234.816 248.92 248.779C250.007 258.947 243.36 289.29 243.36 289.29H234.106C234.106 289.29 234.966 274.467 235.111 262.325C235.175 257.209 235.682 252.563 235.03 249.711C232.992 240.828 218.36 217.304 218.36 217.304C218.36 217.304 213.244 210.06 210.491 205.261C207.738 200.461 208.408 193.227 208.408 193.227L229.706 195.997Z" fill="#263238"/>
<path d="M232.82 288.141L233.246 291.319H244.275L244.755 288.141H232.82Z" fill="#068EFF"/>
<path opacity="0.5" d="M235.03 249.712C234.948 237.098 218.251 209.309 218.251 209.309L214.339 206.067L214.602 211.79C216.603 214.814 218.36 217.304 218.36 217.304C218.36 217.304 233.002 240.829 235.03 249.712Z" fill="black"/>
<path d="M217.201 194.132C217.201 194.132 228.51 235.413 226.255 248.778C224.444 259.499 207.738 288.14 207.738 288.14L199.869 284.663C199.869 284.663 205.203 270.764 208.924 258.965C210.5 253.922 212.338 249.258 212.411 246.234C212.646 235.432 202.568 215.239 200.829 204.581C199.924 198.904 202.686 193.245 202.686 193.245L217.201 194.132Z" fill="#263238"/>
<path d="M198.484 285.94L207.684 290.105L209.549 287.461L199.435 283.115L198.484 285.94Z" fill="#068EFF"/>
<path d="M232.096 152.317C229.099 150.37 229.244 148.142 230.285 145.978C230.542 145.449 230.829 144.935 231.145 144.439L228.257 139.567L226.138 135.945C225.676 139.866 224.254 146.811 220.94 148.36C222.753 150.916 225.34 152.821 228.32 153.793C233.155 155.377 232.096 152.317 232.096 152.317Z" fill="#FFC3BD"/>
<path opacity="0.2" d="M231.091 144.448C230.773 144.952 230.485 145.475 230.231 146.014C228.818 145.154 227.351 142.8 227.704 141.161C227.81 140.615 227.977 140.084 228.203 139.576L231.091 144.448Z" fill="black"/>
<path d="M224.2 133.12C225.395 138.218 225.821 141.269 228.882 143.542C229.866 144.297 231.038 144.768 232.271 144.904C233.504 145.041 234.751 144.837 235.877 144.316C237.002 143.795 237.964 142.975 238.657 141.947C239.351 140.918 239.75 139.719 239.811 138.48C240.146 133.709 238.145 126.175 232.739 124.808C231.577 124.48 230.349 124.464 229.178 124.761C228.008 125.058 226.936 125.658 226.071 126.5C225.206 127.342 224.577 128.397 224.249 129.559C223.921 130.721 223.904 131.949 224.2 133.12Z" fill="#FFC3BD"/>
<path d="M232.286 133.509C232.35 133.935 232.63 134.234 232.902 134.179C233.174 134.125 233.346 133.772 233.273 133.355C233.201 132.939 232.929 132.622 232.648 132.694C232.368 132.767 232.205 133.093 232.286 133.509Z" fill="#263238"/>
<path d="M237.04 132.875C237.103 133.292 237.384 133.6 237.656 133.536C237.927 133.473 238.1 133.138 238.027 132.712C237.955 132.287 237.683 131.988 237.402 132.051C237.122 132.115 236.968 132.45 237.04 132.875Z" fill="#263238"/>
<path d="M235.555 133.301C236.277 134.52 237.157 135.637 238.172 136.624C237.914 136.868 237.607 137.054 237.271 137.168C236.935 137.282 236.578 137.322 236.225 137.285L235.555 133.301Z" fill="#ED847E"/>
<path d="M234.948 138.734C234.458 138.748 233.97 138.662 233.514 138.481C233.058 138.301 232.643 138.029 232.295 137.684C232.274 137.66 232.262 137.63 232.262 137.598C232.262 137.566 232.274 137.535 232.295 137.512C232.307 137.5 232.321 137.49 232.337 137.484C232.352 137.477 232.369 137.474 232.386 137.474C232.403 137.474 232.419 137.477 232.435 137.484C232.45 137.49 232.465 137.5 232.476 137.512C232.865 137.878 233.332 138.15 233.842 138.307C234.353 138.464 234.892 138.502 235.419 138.417C235.436 138.407 235.454 138.401 235.473 138.4C235.492 138.398 235.512 138.401 235.53 138.408C235.548 138.415 235.564 138.426 235.577 138.44C235.59 138.454 235.6 138.47 235.605 138.489C235.611 138.507 235.612 138.527 235.609 138.545C235.606 138.564 235.599 138.583 235.588 138.598C235.577 138.614 235.563 138.627 235.546 138.637C235.529 138.646 235.511 138.651 235.492 138.653H235.446C235.283 138.694 235.116 138.721 234.948 138.734Z" fill="#263238"/>
<path d="M230.548 132.178C230.509 132.188 230.469 132.188 230.43 132.178C230.373 132.149 230.329 132.099 230.309 132.038C230.288 131.977 230.293 131.91 230.321 131.852C230.492 131.5 230.746 131.195 231.062 130.963C231.378 130.731 231.745 130.579 232.132 130.521C232.164 130.519 232.197 130.523 232.227 130.533C232.258 130.543 232.286 130.559 232.311 130.58C232.335 130.601 232.355 130.627 232.369 130.655C232.384 130.684 232.392 130.715 232.395 130.748C232.399 130.779 232.396 130.811 232.387 130.842C232.378 130.872 232.363 130.901 232.342 130.925C232.322 130.95 232.297 130.97 232.269 130.985C232.24 130.999 232.209 131.008 232.177 131.01C231.872 131.052 231.581 131.169 231.33 131.348C231.079 131.528 230.876 131.766 230.738 132.042C230.721 132.08 230.694 132.112 230.661 132.136C230.627 132.159 230.588 132.174 230.548 132.178Z" fill="#263238"/>
<path d="M238.797 130.974C238.757 130.975 238.717 130.966 238.682 130.947C238.647 130.927 238.618 130.899 238.597 130.865C238.417 130.604 238.18 130.387 237.904 130.231C237.628 130.074 237.32 129.981 237.004 129.96C236.938 129.949 236.879 129.912 236.84 129.858C236.801 129.804 236.785 129.736 236.795 129.67C236.804 129.618 236.829 129.57 236.866 129.533C236.904 129.495 236.952 129.471 237.004 129.462C237.402 129.483 237.789 129.598 238.135 129.796C238.481 129.994 238.776 130.27 238.996 130.603C239.015 130.629 239.028 130.66 239.035 130.691C239.042 130.723 239.043 130.756 239.037 130.788C239.031 130.82 239.018 130.851 239.001 130.878C238.983 130.905 238.96 130.929 238.932 130.947C238.891 130.97 238.844 130.979 238.797 130.974Z" fill="#263238"/>
<path d="M200.766 196.233L208.01 151.8C208.183 150.72 208.754 149.744 209.61 149.062C210.466 148.38 211.545 148.043 212.637 148.115L235.573 149.6C236.199 149.641 236.808 149.815 237.361 150.11C237.914 150.406 238.398 150.815 238.78 151.312C239.163 151.809 239.434 152.382 239.578 152.993C239.721 153.603 239.733 154.237 239.611 154.852L231.091 197.845L200.766 196.233Z" fill="#068EFF"/>
<path opacity="0.2" d="M208.001 151.8L204.379 173.967L209.006 176.43L215.218 155.078L208.209 150.967C208.112 151.237 208.043 151.516 208.001 151.8Z" fill="black"/>
<path d="M223.295 149.763L228.673 150.171L227.569 153.847L226.02 155.024L226.953 156.419L225.06 186.626L221.574 189.053L218.251 186.544L223.295 156.373L224.653 154.852L223.295 153.467V149.763Z" fill="#263238"/>
<path d="M220.678 147.101L225.721 148.966L231.091 148.034L233.128 149.446L230.113 154.273L225.767 150.343L219.863 153.177L218.414 148.486L220.678 147.101Z" fill="#068EFF"/>
<path opacity="0.9" d="M220.678 147.101L225.721 148.966L231.091 148.034L233.128 149.446L230.113 154.273L225.767 150.343L219.863 153.177L218.414 148.486L220.678 147.101Z" fill="white"/>
<path d="M226.527 137.467L228.003 137.023L226.527 130.205L228.003 127.244C228.003 127.244 238.434 126.954 238.172 121.05C238.172 121.05 237.022 123.259 235.12 123.25C235.12 123.25 236.623 119.076 232.775 118.614C232.775 118.614 232.431 121.331 230.059 121.684C230.059 121.684 230.855 119.221 227.342 118.967C227.342 118.967 229.352 121.394 224.997 124.228C220.642 127.062 215.752 131.997 220.587 136C220.587 136 225.26 139.721 224.807 142.103L226.527 137.467Z" fill="#263238"/>
<path d="M222.969 137.729C223.496 138.777 224.398 139.588 225.495 140.002C226.935 140.518 227.686 139.25 227.306 137.829C226.971 136.543 225.812 134.732 224.354 134.823C222.896 134.913 222.335 136.434 222.969 137.729Z" fill="#FFC3BD"/>
<path d="M240.97 298.101C240.937 298.097 240.906 298.083 240.882 298.061C240.858 298.038 240.841 298.009 240.835 297.976C240.829 297.944 240.833 297.91 240.848 297.88C240.862 297.851 240.886 297.826 240.916 297.811C241.015 297.757 243.252 296.462 244.32 296.752C244.519 296.805 244.69 296.931 244.8 297.105C244.869 297.201 244.906 297.317 244.906 297.435C244.906 297.554 244.869 297.669 244.8 297.766C244.257 298.162 243.586 298.343 242.917 298.273C242.264 298.269 241.613 298.212 240.97 298.101ZM241.459 297.893C242.654 298.028 244.275 298.01 244.574 297.594C244.574 297.539 244.655 297.449 244.574 297.259C244.543 297.204 244.5 297.156 244.448 297.12C244.397 297.084 244.337 297.06 244.275 297.05C244.179 297.037 244.081 297.037 243.985 297.05C243.1 297.153 242.243 297.423 241.459 297.847V297.893Z" fill="#068EFF"/>
<path d="M240.888 298.047C240.866 298.031 240.849 298.011 240.836 297.987C240.823 297.964 240.816 297.937 240.816 297.911C240.876 296.995 241.221 296.121 241.803 295.412C241.918 295.314 242.053 295.24 242.197 295.195C242.342 295.15 242.494 295.134 242.645 295.149C243.061 295.194 243.197 295.403 243.215 295.575C243.351 296.299 241.821 297.702 241.051 298.047H240.988C240.972 298.053 240.955 298.057 240.938 298.057C240.921 298.057 240.904 298.053 240.888 298.047ZM242.545 295.439C242.352 295.44 242.166 295.511 242.02 295.638C241.546 296.196 241.253 296.884 241.178 297.612C241.975 297.132 242.989 296.036 242.935 295.602C242.935 295.602 242.935 295.457 242.636 295.43L242.545 295.439Z" fill="#068EFF"/>
<path d="M240.309 297.195H233.291C233.163 297.198 233.039 297.243 232.94 297.323C232.84 297.403 232.769 297.514 232.739 297.639L231.508 303.353C231.476 303.473 231.469 303.599 231.487 303.722C231.506 303.845 231.55 303.963 231.616 304.068C231.682 304.173 231.77 304.264 231.873 304.334C231.975 304.404 232.092 304.452 232.214 304.476H232.413C234.939 304.421 237.194 304.267 240.336 304.258C244.049 304.258 243.116 304.684 247.48 304.72C250.115 304.72 250.577 301.75 249.463 301.614C244.347 300.998 243.813 299.459 241.83 297.639C241.394 297.312 240.853 297.154 240.309 297.195Z" fill="#263238"/>
<path d="M110.144 342.515H105.916C104.951 342.514 104.007 342.244 103.187 341.735C102.368 341.227 101.708 340.5 101.279 339.636C100.851 338.772 100.673 337.805 100.764 336.846C100.855 335.886 101.212 334.97 101.796 334.203L139.763 284.4C140.663 283.221 141.824 282.264 143.154 281.606C144.484 280.948 145.948 280.606 147.432 280.606H154.024C154.788 280.606 155.538 280.812 156.194 281.203C156.851 281.594 157.389 282.155 157.753 282.826C158.117 283.498 158.292 284.256 158.261 285.019C158.229 285.782 157.992 286.523 157.574 287.162L127.503 333.143C125.615 336.024 123.04 338.389 120.009 340.025C116.979 341.662 113.588 342.517 110.144 342.515Z" fill="#068EFF"/>
<path opacity="0.7" d="M110.19 342.515H105.952C104.989 342.515 104.045 342.245 103.226 341.737C102.408 341.229 101.748 340.502 101.32 339.639C100.893 338.775 100.715 337.81 100.807 336.851C100.899 335.892 101.257 334.978 101.841 334.212L139.799 284.41C140.699 283.228 141.859 282.27 143.189 281.61C144.519 280.951 145.984 280.607 147.469 280.606H154.07C154.834 280.608 155.583 280.816 156.239 281.208C156.895 281.6 157.433 282.161 157.797 282.833C158.16 283.506 158.335 284.263 158.304 285.027C158.273 285.79 158.036 286.531 157.619 287.171L127.539 333.143C125.653 336.023 123.079 338.388 120.05 340.024C117.021 341.661 113.632 342.517 110.19 342.515Z" fill="white"/>
<path d="M254.181 137.629L207.485 202.118C182.662 236.4 157.84 270.676 133.017 304.946L115.813 328.634C114.219 330.843 117.624 333.315 119.235 331.115L165.995 266.626L240.463 163.798L257.667 140.11C259.261 137.91 255.856 135.429 254.253 137.629H254.181Z" fill="#068EFF"/>
<g opacity="0.3">
<path d="M254.181 137.629L207.485 202.118C182.662 236.4 157.84 270.676 133.017 304.946L115.813 328.634C114.219 330.843 117.624 333.315 119.235 331.115L165.995 266.626L240.463 163.798L257.667 140.11C259.261 137.91 255.856 135.429 254.253 137.629H254.181Z" fill="white"/>
</g>
<path d="M203.935 157.885C203.935 157.885 197.515 167.963 200.757 176.194C203.999 184.425 220.098 179.001 220.098 179.001L222.362 179.843L227.333 177.815H230.05L230.213 172.563L225.468 170.879L219.464 174.682L206.742 173.27L210.047 162.195L203.935 157.885Z" fill="#FFC3BD"/>
<path d="M213.081 148.695C214.163 149.294 214.984 150.275 215.384 151.447C215.784 152.618 215.735 153.896 215.245 155.033L210.464 166.162L200.241 160.729L206.362 150.497C207.029 149.382 208.102 148.571 209.356 148.235C210.61 147.899 211.946 148.064 213.081 148.695Z" fill="#068EFF"/>
<path d="M63.9461 342.841C78.0174 341.999 98.8981 343.53 120.331 342.923C141.764 342.316 144.861 323.962 115.152 320.702C85.4425 317.442 131.052 335.326 114.355 334.004C97.6576 332.682 79.5477 299.369 65.3768 303.715C54.6014 307.02 73.4628 323.989 73.4628 323.989C73.4628 323.989 49.3586 306.948 40.4938 316.745C33.3857 324.587 62.9863 328.978 62.9863 328.978C62.9863 328.978 45.0213 326.579 41.0371 335.425C36.8447 344.58 54.3479 343.43 63.9461 342.841Z" fill="#068EFF"/>
<path opacity="0.5" d="M63.9461 342.841C78.0174 341.999 98.8981 343.53 120.331 342.923C141.764 342.316 144.861 323.962 115.152 320.702C85.4425 317.442 131.052 335.326 114.355 334.004C97.6576 332.682 79.5477 299.369 65.3768 303.715C54.6014 307.02 73.4628 323.989 73.4628 323.989C73.4628 323.989 49.3586 306.948 40.4938 316.745C33.3857 324.587 62.9863 328.978 62.9863 328.978C62.9863 328.978 45.0213 326.579 41.0371 335.425C36.8447 344.58 54.3479 343.43 63.9461 342.841Z" fill="white"/>
<path d="M194.274 344.724H188.433C188.253 344.724 188.08 344.653 187.953 344.526C187.826 344.398 187.754 344.225 187.754 344.045C187.754 343.865 187.826 343.692 187.953 343.565C188.08 343.438 188.253 343.366 188.433 343.366H194.274C194.454 343.366 194.626 343.438 194.754 343.565C194.881 343.692 194.953 343.865 194.953 344.045C194.953 344.225 194.881 344.398 194.754 344.526C194.626 344.653 194.454 344.724 194.274 344.724Z" fill="#068EFF"/>
<path d="M183.199 344.724H174.977C174.797 344.724 174.625 344.653 174.497 344.526C174.37 344.398 174.298 344.225 174.298 344.045C174.298 343.865 174.37 343.692 174.497 343.565C174.625 343.438 174.797 343.366 174.977 343.366H183.199C183.379 343.366 183.552 343.438 183.68 343.565C183.807 343.692 183.878 343.865 183.878 344.045C183.878 344.225 183.807 344.398 183.68 344.526C183.552 344.653 183.379 344.724 183.199 344.724Z" fill="#068EFF"/>
<path d="M168.223 344.724H84.6004C84.4203 344.724 84.2476 344.653 84.1202 344.526C83.9929 344.398 83.9213 344.225 83.9213 344.045C83.9213 343.865 83.9929 343.692 84.1202 343.565C84.2476 343.438 84.4203 343.366 84.6004 343.366H168.223C168.403 343.366 168.576 343.438 168.703 343.565C168.83 343.692 168.902 343.865 168.902 344.045C168.902 344.225 168.83 344.398 168.703 344.526C168.576 344.653 168.403 344.724 168.223 344.724Z" fill="#068EFF"/>
<path d="M313.662 285.533L314.64 296.897L320.734 296.544L320.282 284.727L313.662 285.533Z" fill="#CE7A63"/>
<path d="M261.606 281.449L256.933 291.762L262.285 294.859L267.618 284.455L261.606 281.449Z" fill="#CE7A63"/>
<path d="M301.538 189.442C301.538 189.442 316.279 229.112 318.96 243.129C321.079 254.212 321.233 288.403 321.233 288.403L313.083 289.109C313.083 289.109 311.209 272.62 309.316 258.975C308.661 254.017 307.632 249.117 306.238 244.315C302.923 233.621 290.844 215.339 286.951 204.853C285.61 201.231 284.134 189.56 284.134 189.56L301.538 189.442Z" fill="#263238"/>
<path d="M311.661 287.036L322.364 286.14L322.346 290.296L312.359 291.011L311.661 287.036Z" fill="#068EFF"/>
<path opacity="0.5" d="M292.592 198.416L285.402 204.428C287.077 207.679 294.176 218.717 296.549 222.538C297.373 213.356 292.592 198.416 292.592 198.416Z" fill="black"/>
<path d="M298.351 189.442C298.351 189.442 291.007 235.169 286.435 249.621C283.184 259.916 266.396 288.005 266.396 288.005L259.732 284.319C259.732 284.319 266.07 269.08 270.489 257.245C271.992 253.216 273.812 249.567 274.337 247.067C276.61 236.374 275.723 214.252 276.338 203.323C276.537 199.855 278.022 189.532 278.022 189.532L298.351 189.442Z" fill="#263238"/>
<path d="M259.75 281.576L258.002 285.306L266.541 290.069L268.488 286.447L259.75 281.576Z" fill="#068EFF"/>
<path d="M321.386 296.58C321.358 296.574 321.332 296.56 321.313 296.539C321.293 296.518 321.281 296.491 321.278 296.462C321.273 296.434 321.277 296.406 321.288 296.38C321.299 296.355 321.318 296.333 321.341 296.317C321.432 296.263 323.397 295.031 324.347 295.294C324.435 295.32 324.518 295.363 324.589 295.42C324.661 295.478 324.72 295.549 324.764 295.629C324.824 295.722 324.855 295.831 324.855 295.941C324.855 296.052 324.824 296.161 324.764 296.254C324.291 296.622 323.694 296.793 323.098 296.734C322.524 296.74 321.95 296.689 321.386 296.58ZM321.821 296.381C322.871 296.516 324.302 296.489 324.538 296.091C324.538 296.037 324.61 295.955 324.538 295.774C324.513 295.722 324.476 295.677 324.43 295.643C324.385 295.608 324.331 295.585 324.275 295.575C324.188 295.557 324.099 295.557 324.012 295.575C323.236 295.696 322.491 295.97 321.821 296.381Z" fill="#068EFF"/>
<path d="M321.314 296.58C321.294 296.563 321.279 296.542 321.27 296.519C321.26 296.495 321.257 296.469 321.26 296.444C321.319 295.586 321.634 294.766 322.165 294.09C322.265 293.997 322.384 293.926 322.514 293.882C322.643 293.839 322.781 293.823 322.917 293.836C323.279 293.836 323.397 294.071 323.415 294.234C323.532 294.914 322.174 296.245 321.504 296.571C321.494 296.575 321.483 296.578 321.472 296.578C321.461 296.578 321.451 296.575 321.441 296.571L321.314 296.58ZM322.79 294.108C322.618 294.107 322.453 294.172 322.328 294.289C321.9 294.827 321.639 295.479 321.577 296.163C322.274 295.71 323.17 294.669 323.134 294.262C323.134 294.262 323.134 294.117 322.862 294.099L322.79 294.108Z" fill="#068EFF"/>
<path d="M320.834 295.738L314.668 295.81C314.55 295.816 314.438 295.861 314.35 295.939C314.261 296.016 314.201 296.12 314.179 296.236L313.074 301.669C313.028 301.889 313.065 302.119 313.179 302.313C313.293 302.507 313.475 302.652 313.69 302.719C313.75 302.728 313.811 302.728 313.871 302.719C316.089 302.656 318.072 302.502 320.843 302.475C324.112 302.475 323.279 302.864 327.118 302.882C329.436 302.882 329.835 300.057 328.875 299.93C324.347 299.369 323.913 297.92 322.174 296.218C321.808 295.888 321.326 295.715 320.834 295.738Z" fill="#263238"/>
<path d="M262.72 295.086C262.699 295.065 262.684 295.039 262.676 295.01C262.668 294.982 262.667 294.951 262.674 294.923C262.685 294.897 262.702 294.874 262.725 294.856C262.747 294.839 262.773 294.827 262.801 294.823C262.901 294.823 265.164 294.705 265.889 295.421C266.021 295.559 266.101 295.738 266.115 295.928C266.13 296.037 266.113 296.148 266.067 296.247C266.02 296.347 265.946 296.431 265.853 296.489C265.509 296.661 264.802 296.426 264.177 296.082C263.662 295.795 263.174 295.462 262.72 295.086ZM263.19 295.086C264.096 295.729 265.327 296.417 265.735 296.19C265.789 296.19 265.853 296.109 265.844 295.901C265.844 295.842 265.831 295.784 265.806 295.73C265.781 295.677 265.744 295.63 265.699 295.593C265.636 295.529 265.563 295.476 265.481 295.439C264.747 295.181 263.968 295.073 263.19 295.122V295.086Z" fill="#068EFF"/>
<path d="M262.665 295.04C262.652 295.018 262.644 294.993 262.644 294.968C262.644 294.942 262.652 294.917 262.665 294.895C262.665 294.832 263.571 293.446 264.476 293.238C264.607 293.203 264.744 293.198 264.878 293.223C265.011 293.248 265.137 293.303 265.246 293.383C265.554 293.6 265.572 293.836 265.508 293.99C265.318 294.651 263.553 295.158 262.792 295.113H262.738C262.706 295.098 262.68 295.072 262.665 295.04ZM265.029 293.582C264.88 293.499 264.705 293.476 264.54 293.519C263.929 293.784 263.416 294.234 263.073 294.805C263.888 294.75 265.119 294.27 265.264 293.899C265.264 293.899 265.264 293.754 265.101 293.619H265.029V293.582Z" fill="#068EFF"/>
<path d="M262.575 294.044L257.142 291.029C257.041 290.973 256.923 290.954 256.81 290.978C256.697 291.001 256.596 291.064 256.526 291.156L253.212 295.412C253.063 295.591 252.989 295.822 253.006 296.055C253.023 296.287 253.129 296.505 253.302 296.661L253.447 296.77C255.43 297.82 257.241 298.671 259.695 300.03C262.584 301.623 261.669 301.596 265.047 303.525C267.084 304.693 268.669 302.384 267.872 301.777C264.159 299.061 264.377 297.512 263.58 295.131C263.394 294.655 263.035 294.267 262.575 294.044Z" fill="#263238"/>
<path d="M304.409 120.969C304.409 120.969 309.38 121.62 308.338 117.817C308.338 117.817 308.112 118.958 302.697 118.723C297.282 118.487 304.409 120.969 304.409 120.969Z" fill="#263238"/>
<path opacity="0.9" d="M304.409 120.969C304.409 120.969 309.38 121.62 308.338 117.817C308.338 117.817 308.112 118.958 302.697 118.723C297.282 118.487 304.409 120.969 304.409 120.969Z" fill="black"/>
<path d="M314.079 149.899L317.103 153.095C317.188 153.185 317.298 153.246 317.418 153.269C317.539 153.293 317.664 153.279 317.776 153.228C317.888 153.177 317.981 153.092 318.042 152.985C318.103 152.879 318.13 152.756 318.118 152.634L316.614 136.48L313.898 131.509C313.596 130.955 313.524 130.304 313.699 129.698L314.115 128.203C314.161 128.038 314.188 127.868 314.197 127.696C314.231 127.081 314.5 126.501 314.948 126.077C315.396 125.653 315.989 125.416 316.605 125.415C317.082 125.416 317.549 125.557 317.946 125.822L320.743 127.705C321.149 127.976 321.463 128.363 321.645 128.816C321.826 129.268 321.865 129.765 321.758 130.241L320.481 135.9C320.481 135.9 326.647 159.715 322.292 162.25C318.281 164.577 309.615 156.817 309.615 156.817L314.079 149.899Z" fill="#CE7A63"/>
<path d="M303.268 144.973C303.746 144.311 304.388 143.785 305.13 143.445C305.873 143.105 306.692 142.964 307.505 143.036C310.837 143.271 317.393 150.741 317.393 150.741L311.462 160.177C311.462 160.177 303.684 153.322 302.407 150.488C301.975 149.59 301.826 148.582 301.979 147.597C302.133 146.612 302.582 145.697 303.268 144.973Z" fill="#068EFF"/>
<path opacity="0.2" d="M308.157 157.071C308.393 153.313 308.529 149.211 308.529 149.211L305.685 154.59C306.446 155.441 307.306 156.292 308.157 157.071Z" fill="black"/>
<path d="M296.087 143.615L299.111 142.574C299.126 141.678 299.346 140.799 299.754 140.002C300.006 139.477 300.287 138.966 300.596 138.472L297.735 133.645L295.634 130.105C295.218 133.627 294.022 139.604 291.36 141.831L296.087 143.615Z" fill="#CE7A63"/>
<path opacity="0.2" d="M300.596 138.472C300.287 138.972 300.006 139.489 299.754 140.02C298.351 139.169 296.902 136.833 297.246 135.212C297.348 134.673 297.512 134.147 297.735 133.646L300.596 138.472Z" fill="black"/>
<path d="M276.872 145.308L277.38 190.972L280.096 191.389C287.5 192.503 295.057 191.993 302.244 189.895L309.063 146.341C309.143 145.934 309.134 145.515 309.036 145.113C308.938 144.711 308.753 144.335 308.494 144.011C308.235 143.688 307.909 143.425 307.538 143.241C307.167 143.056 306.76 142.955 306.346 142.945L279.779 142.483C279.402 142.475 279.027 142.541 278.676 142.679C278.325 142.817 278.004 143.024 277.734 143.287C277.463 143.55 277.248 143.864 277.1 144.211C276.952 144.558 276.875 144.931 276.872 145.308Z" fill="#068EFF"/>
<path opacity="0.2" d="M276.818 165.429C279.861 159.996 282.459 150.035 282.459 150.035L276.854 152.806L276.818 165.429Z" fill="black"/>
<path d="M293.769 127.253C294.955 132.305 295.381 135.312 298.414 137.575C299.391 138.331 300.556 138.804 301.783 138.943C303.011 139.081 304.252 138.88 305.373 138.362C306.494 137.844 307.451 137.028 308.14 136.003C308.829 134.978 309.223 133.784 309.28 132.55C309.597 127.823 307.614 120.362 302.253 119.013C301.102 118.69 299.887 118.676 298.728 118.972C297.57 119.268 296.51 119.863 295.654 120.698C294.798 121.532 294.177 122.577 293.852 123.728C293.528 124.878 293.512 126.094 293.805 127.253H293.769Z" fill="#CE7A63"/>
<path d="M301.819 127.633C301.882 128.05 302.172 128.348 302.435 128.294C302.697 128.24 302.869 127.887 302.806 127.479C302.742 127.072 302.453 126.755 302.181 126.818C301.909 126.882 301.701 127.226 301.819 127.633Z" fill="#263238"/>
<path d="M306.482 126.963C306.545 127.38 306.826 127.678 307.098 127.624C307.369 127.57 307.532 127.217 307.469 126.8C307.406 126.384 307.116 126.085 306.844 126.148C306.573 126.212 306.41 126.583 306.482 126.963Z" fill="#263238"/>
<path d="M305.015 127.407C305.733 128.612 306.607 129.717 307.614 130.694C307.358 130.935 307.054 131.119 306.721 131.233C306.388 131.347 306.035 131.389 305.685 131.355L305.015 127.407Z" fill="#BA4D3C"/>
<path d="M304.173 132.668C303.688 132.682 303.204 132.597 302.753 132.418C302.301 132.239 301.891 131.97 301.547 131.626C301.526 131.604 301.514 131.575 301.514 131.545C301.514 131.514 301.526 131.485 301.547 131.463C301.559 131.451 301.573 131.442 301.589 131.435C301.604 131.429 301.621 131.425 301.638 131.425C301.655 131.425 301.671 131.429 301.687 131.435C301.702 131.442 301.716 131.451 301.728 131.463C302.11 131.829 302.571 132.101 303.075 132.258C303.579 132.415 304.113 132.453 304.635 132.369C304.65 132.363 304.666 132.36 304.681 132.361C304.697 132.362 304.713 132.365 304.727 132.372C304.742 132.379 304.755 132.389 304.765 132.4C304.776 132.412 304.784 132.426 304.789 132.441C304.801 132.473 304.8 132.507 304.786 132.538C304.773 132.568 304.747 132.592 304.716 132.604H304.671C304.507 132.639 304.341 132.66 304.173 132.668Z" fill="#263238"/>
<path d="M300.062 126.32C300.023 126.329 299.983 126.329 299.944 126.32C299.915 126.306 299.889 126.287 299.867 126.263C299.845 126.24 299.829 126.212 299.818 126.182C299.807 126.151 299.802 126.119 299.803 126.087C299.805 126.055 299.813 126.023 299.827 125.994C299.998 125.643 300.252 125.339 300.568 125.109C300.884 124.878 301.251 124.728 301.637 124.672C301.701 124.67 301.763 124.692 301.81 124.734C301.857 124.776 301.886 124.835 301.891 124.898C301.893 124.931 301.89 124.963 301.88 124.993C301.87 125.024 301.853 125.052 301.832 125.077C301.811 125.101 301.786 125.121 301.757 125.136C301.728 125.15 301.697 125.159 301.665 125.161C301.365 125.206 301.08 125.322 300.832 125.498C300.585 125.674 300.384 125.906 300.243 126.175C300.229 126.213 300.204 126.247 300.172 126.273C300.141 126.298 300.102 126.314 300.062 126.32Z" fill="#263238"/>
<path d="M308.23 125.152C308.189 125.153 308.148 125.143 308.112 125.124C308.075 125.105 308.044 125.077 308.021 125.043C307.846 124.782 307.612 124.564 307.339 124.407C307.066 124.25 306.76 124.158 306.446 124.138C306.413 124.132 306.382 124.12 306.355 124.103C306.327 124.085 306.303 124.062 306.285 124.035C306.266 124.008 306.253 123.978 306.247 123.945C306.24 123.913 306.24 123.88 306.247 123.848C306.255 123.797 306.278 123.75 306.314 123.713C306.349 123.676 306.395 123.65 306.446 123.64C306.84 123.664 307.223 123.778 307.565 123.974C307.908 124.171 308.2 124.444 308.42 124.772C308.439 124.798 308.453 124.827 308.461 124.859C308.468 124.89 308.47 124.923 308.465 124.955C308.46 124.987 308.448 125.018 308.431 125.045C308.414 125.073 308.392 125.097 308.365 125.116C308.325 125.142 308.278 125.155 308.23 125.152Z" fill="#263238"/>
<path d="M293.678 145.272L295.254 148.423L295.725 149.111L293.253 174.284L296.558 177.209L299.854 173.831L297.21 149.111L297.735 148.115L299.157 145.263L298.025 143.615L295.1 142.963L293.678 145.272Z" fill="#263238"/>
<path d="M290.727 140.6L296.196 142.709L300.633 140.772L302.969 143.434L300.687 148.903L296.159 144.213L291.686 149.111L288.481 142.99L290.727 140.6Z" fill="#068EFF"/>
<path opacity="0.9" d="M290.727 140.6L296.196 142.709L300.633 140.772L302.969 143.434L300.687 148.903L296.159 144.213L291.686 149.111L288.481 142.99L290.727 140.6Z" fill="white"/>
<path d="M313.988 125.976H309.814V128.973H313.988V125.976Z" fill="#263238"/>
<path opacity="0.2" d="M313.988 125.976H309.814V128.973H313.988V125.976Z" fill="white"/>
<path d="M327.435 125.288H313.563V129.725H327.435V125.288Z" fill="#263238"/>
<path opacity="0.4" d="M327.435 125.288H313.563V129.725H327.435V125.288Z" fill="white"/>
<path d="M343.426 124.753H326.249V130.25H343.426V124.753Z" fill="#263238"/>
<path opacity="0.5" d="M343.426 124.753H326.249V130.25H343.426V124.753Z" fill="white"/>
<path d="M269.112 154.372C269.112 154.372 263.1 162.522 263.29 165.736C263.598 170.825 274.708 182.651 274.708 182.651L276.103 187.097C276.277 187.653 276.66 188.12 277.171 188.4L280.793 190.356C281.292 190.628 281.875 190.702 282.425 190.562C282.976 190.423 283.454 190.081 283.763 189.605L284.596 188.328C284.86 187.914 284.982 187.425 284.944 186.935C284.907 186.445 284.712 185.981 284.388 185.612L282.948 184.009L282.731 183.792L278.158 180.695C278.158 180.695 274.536 174.311 272.598 169.711C271.925 168.335 271.511 166.846 271.376 165.319C271.376 162.884 275.713 156.572 275.713 156.572L269.112 154.372Z" fill="#CE7A63"/>
<path d="M280.929 143.026C279.706 142.121 276.863 142.347 275.496 143.026C271.974 144.837 266.305 155.332 266.305 155.332L276.51 160.919C276.51 160.919 282.604 151.755 282.903 148.115C283.057 146.621 282.16 143.905 280.929 143.026Z" fill="#068EFF"/>
<path d="M310.702 125.605H308.927V129.435H310.702V125.605Z" fill="#068EFF"/>
<path d="M344.902 124.165H343.127V130.811H344.902V124.165Z" fill="#068EFF"/>
<path d="M294.792 131.563C294.792 131.563 296.766 130.413 296.512 126.329C297.153 125.835 297.67 125.2 298.024 124.472C298.377 123.745 298.557 122.945 298.55 122.137C298.55 122.137 308.818 120.443 306.971 116.785C305.124 113.127 297.762 112.158 297.762 112.158C297.762 112.158 300.107 115.78 293.551 119.185C286.996 122.589 292.918 131.364 292.918 131.364L294.792 131.563Z" fill="#263238"/>
<path d="M292.555 131.817C293.07 132.858 293.964 133.662 295.055 134.062C296.476 134.587 297.228 133.32 296.866 131.916C296.503 130.513 295.39 128.847 293.941 128.946C292.492 129.046 291.922 130.531 292.555 131.817Z" fill="#CE7A63"/>
<path d="M290.953 122.952C290.953 122.952 287.793 121.077 288.915 119.801C290.038 118.524 290.953 122.952 290.953 122.952Z" fill="#263238"/>
<path d="M302.86 134.035C302.469 133.745 302.141 133.378 301.896 132.958C301.65 132.538 301.491 132.073 301.429 131.59C301.437 131.563 301.453 131.54 301.475 131.523C301.497 131.506 301.524 131.497 301.551 131.497C301.579 131.497 301.606 131.506 301.628 131.523C301.65 131.54 301.666 131.563 301.674 131.59C301.75 132.114 301.945 132.614 302.243 133.051C302.541 133.489 302.935 133.853 303.394 134.117C303.408 134.124 303.42 134.134 303.43 134.147C303.44 134.159 303.447 134.173 303.451 134.188C303.456 134.204 303.457 134.22 303.455 134.235C303.453 134.251 303.447 134.266 303.439 134.28C303.432 134.295 303.421 134.308 303.408 134.319C303.395 134.329 303.38 134.337 303.364 134.341C303.347 134.346 303.33 134.347 303.314 134.344C303.297 134.341 303.281 134.334 303.267 134.325C303.135 134.246 302.999 134.15 302.86 134.035Z" fill="#263238"/>
</svg>
