<svg width="366" height="325" viewBox="0 0 366 325" fill="none" xmlns="http://www.w3.org/2000/svg">
<path d="M256.228 300.962H248.511V301.184H256.228V300.962Z" fill="#EBEBEB"/>
<path d="M60.5647 291.797H54.9434V292.019H60.5647V291.797Z" fill="#EBEBEB"/>
<path d="M49.7486 173.856C51.7201 100.024 112.383 40.5777 186.677 40.5777C260.971 40.5777 321.66 100.024 323.605 173.856H352.972C350.992 83.8345 277.16 11.21 186.677 11.21C96.1935 11.21 22.3878 83.8345 20.3809 173.856H49.7486Z" fill="#F5F5F5"/>
<path d="M49.7483 173.855C51.7197 100.023 112.382 40.5773 186.676 40.5773C260.97 40.5773 321.66 100.023 323.604 173.855H345.637C343.657 87.8836 273.11 18.5537 186.676 18.5537C100.243 18.5537 29.6962 87.8836 27.7158 173.855H49.7483Z" fill="#EBEBEB"/>
<path d="M49.7484 173.856C51.7198 100.024 112.382 40.5779 186.676 40.5779C260.97 40.5779 321.66 100.024 323.604 173.856H338.293C336.312 91.9248 269.069 25.8984 186.676 25.8984C104.283 25.8984 37.0315 91.9248 35.0601 173.856H49.7484Z" fill="#FAFAFA"/>
<path d="M49.7485 173.856C51.72 100.024 112.383 40.578 186.677 40.578C260.971 40.578 321.66 100.024 323.605 173.856H330.949C329.97 136.242 314.34 100.496 287.39 74.2382C260.439 47.98 224.299 33.2852 186.672 33.2852C149.045 33.2852 112.905 47.98 85.9548 74.2382C59.0044 100.496 43.3743 136.242 42.3955 173.856H49.7485Z" fill="#E0E0E0"/>
<path d="M27.032 270.493C27.032 270.493 22.8581 256.524 31.2946 253.744C39.731 250.965 44.7396 244.429 44.4555 237.04C44.1713 229.652 53.0518 222.458 59.7121 229.376C66.3725 236.294 65.4844 224.048 74.3649 221.082C83.2454 218.116 90.776 225.327 88.3428 231.925C85.9095 238.523 94.6745 242.653 105.216 237.04C115.757 231.428 127.248 241.631 125.028 249.624C122.808 257.616 124.628 258.504 131.244 255.84C137.86 253.176 149.76 260.724 145.595 270.493C141.43 280.261 27.032 270.493 27.032 270.493Z" fill="#E0E0E0"/>
<path d="M250.199 271.825C245.758 267.385 249.755 259.836 254.195 258.948C258.635 258.06 263.075 250.254 263.315 245.272C263.555 240.29 271.512 225.007 283.944 234.447C296.377 243.887 292.603 235.841 301.599 233.186C310.595 230.531 316.26 238.168 312.317 243.896C312.317 243.896 321.349 241.631 325.07 250.068C328.791 258.504 325.07 263.744 325.07 263.744C325.07 263.744 342.067 263.246 340.54 273.752C339.012 284.258 250.199 271.825 250.199 271.825Z" fill="#E0E0E0"/>
<path d="M355.494 272.091V284.257H12.7079V272.091C12.6816 271.605 12.7535 271.119 12.9193 270.661C13.0851 270.203 13.3414 269.784 13.673 269.427C14.0045 269.071 14.4045 268.785 14.849 268.587C15.2935 268.388 15.7734 268.281 16.2601 268.272H351.942C352.429 268.281 352.909 268.388 353.353 268.587C353.798 268.785 354.198 269.071 354.529 269.427C354.861 269.784 355.117 270.203 355.283 270.661C355.449 271.119 355.521 271.605 355.494 272.091Z" fill="#EBEBEB"/>
<path d="M53.5583 268.272H32.2451V284.257H53.5583V268.272Z" fill="#F5F5F5"/>
<path d="M93.5203 268.272H73.0952V284.257H93.5203V268.272Z" fill="#F5F5F5"/>
<path d="M134.37 268.272H113.057V284.257H134.37V268.272Z" fill="#F5F5F5"/>
<path d="M174.333 268.272H153.908V284.257H174.333V268.272Z" fill="#F5F5F5"/>
<path d="M214.295 268.272H193.87V284.257H214.295V268.272Z" fill="#F5F5F5"/>
<path d="M255.145 268.272H233.832V284.257H255.145V268.272Z" fill="#F5F5F5"/>
<path d="M295.107 268.272H274.682V284.257H295.107V268.272Z" fill="#F5F5F5"/>
<path d="M335.957 268.272H314.644V284.257H335.957V268.272Z" fill="#F5F5F5"/>
<path d="M70.0137 167.692C70.018 166.47 69.7354 165.265 69.1886 164.172C68.6419 163.079 67.8462 162.13 66.8657 161.401C65.8852 160.672 64.7472 160.183 63.5433 159.974C62.3394 159.765 61.1033 159.841 59.9343 160.197C60.3174 157.585 60.0713 154.92 59.2164 152.422C58.3616 149.925 56.9227 147.667 55.0195 145.838C53.1164 144.009 50.8039 142.66 48.2745 141.905C45.7451 141.149 43.0719 141.009 40.4772 141.495C38.8446 138.805 36.3808 136.719 33.4581 135.553C30.5354 134.387 27.3126 134.204 24.2767 135.032C21.2407 135.859 18.5565 137.652 16.6297 140.14C14.7028 142.628 13.638 145.675 13.596 148.821H13.3562C9.81394 148.821 6.41673 150.228 3.91195 152.733C1.40717 155.238 0 158.635 0 162.177C0 165.72 1.40717 169.117 3.91195 171.622C6.41673 174.127 9.81394 175.534 13.3562 175.534H62.4386C64.4733 175.469 66.4026 174.614 67.817 173.15C69.2313 171.686 70.0193 169.728 70.0137 167.692Z" fill="#E0E0E0"/>
<path d="M366 169.948C366.006 168.727 365.724 167.521 365.179 166.428C364.633 165.335 363.838 164.386 362.858 163.657C361.878 162.927 360.741 162.439 359.537 162.23C358.334 162.02 357.098 162.097 355.929 162.453C356.039 161.656 356.096 160.852 356.098 160.047C356.098 157.611 355.561 155.204 354.526 152.999C353.49 150.794 351.981 148.845 350.107 147.289C348.232 145.733 346.038 144.609 343.68 143.998C341.322 143.386 338.858 143.302 336.463 143.751C334.829 141.065 332.366 138.984 329.445 137.82C326.524 136.657 323.304 136.475 320.27 137.302C317.237 138.129 314.555 139.92 312.628 142.405C310.702 144.89 309.636 147.934 309.591 151.077H309.316C305.773 151.077 302.376 152.485 299.871 154.989C297.367 157.494 295.959 160.891 295.959 164.434C295.959 167.976 297.367 171.373 299.871 173.878C302.376 176.383 305.773 177.79 309.316 177.79H358.371C360.416 177.741 362.36 176.893 363.787 175.427C365.213 173.961 366.007 171.994 366 169.948Z" fill="#E0E0E0"/>
<path d="M350.566 85.9394C350.566 84.6134 350.039 83.3417 349.101 82.4041C348.164 81.4664 346.892 80.9397 345.566 80.9397C345.082 80.9391 344.601 81.0078 344.136 81.1439C344.208 80.6379 344.243 80.1275 344.243 79.6165C344.248 78.2234 343.977 76.8431 343.447 75.5547C342.917 74.2663 342.138 73.0951 341.155 72.1084C340.172 71.1217 339.003 70.3388 337.716 69.8046C336.43 69.2704 335.05 68.9954 333.657 68.9954C333.002 68.9961 332.348 69.0555 331.704 69.173C330.66 67.4582 329.087 66.1293 327.222 65.3867C325.357 64.6442 323.301 64.5283 321.364 65.0566C319.427 65.5849 317.715 66.7287 316.485 68.3154C315.255 69.9022 314.575 71.8458 314.547 73.8531H314.396C312.181 73.9245 310.081 74.8545 308.54 76.4463C306.998 78.0381 306.137 80.167 306.137 82.3828C306.137 84.5985 306.998 86.7274 308.54 88.3192C310.081 89.911 312.181 90.841 314.396 90.9124H345.726C347.019 90.8711 348.247 90.3298 349.149 89.4023C350.052 88.4749 350.56 87.2335 350.566 85.9394Z" fill="#E0E0E0"/>
<path d="M239.027 21.0404C239.027 19.7215 238.503 18.4565 237.57 17.5239C236.638 16.5913 235.373 16.0673 234.054 16.0673C233.569 16.0652 233.087 16.137 232.624 16.2805C232.698 15.7717 232.737 15.2583 232.739 14.7441C232.728 11.9562 231.612 9.28637 229.636 7.31912C227.661 5.35187 224.986 4.24739 222.198 4.24741C221.546 4.24765 220.895 4.30711 220.253 4.42502C219.215 2.71697 217.649 1.39318 215.792 0.653562C213.935 -0.0860549 211.888 -0.201334 209.959 0.325134C208.031 0.851602 206.326 1.99123 205.102 3.57191C203.879 5.15259 203.203 7.0885 203.176 9.08727H203.025C200.774 9.08727 198.614 9.98172 197.022 11.5739C195.43 13.166 194.536 15.3254 194.536 17.577C194.536 19.8286 195.43 21.988 197.022 23.5802C198.614 25.1723 200.774 26.0667 203.025 26.0667H234.196C235.499 26.0296 236.736 25.4819 237.64 24.5418C238.543 23.6017 239.041 22.3443 239.027 21.0404Z" fill="#E0E0E0"/>
<path d="M83.1035 65.4428C83.1035 64.1238 82.5795 62.8589 81.6469 61.9263C80.7143 60.9937 79.4494 60.4697 78.1304 60.4697C77.6465 60.4691 77.165 60.5379 76.7007 60.674C76.7724 60.168 76.808 59.6576 76.8072 59.1465C76.8131 57.7597 76.545 56.3853 76.0183 55.1024C75.4916 53.8194 74.7167 52.6531 73.7382 51.6704C72.7596 50.6877 71.5965 49.9079 70.3158 49.3758C69.0351 48.8438 67.6618 48.5699 66.275 48.5699C65.6227 48.5701 64.9717 48.6296 64.3302 48.7475C63.2921 47.04 61.7269 45.7165 59.8707 44.9767C58.0145 44.2369 55.968 44.1209 54.04 44.6462C52.1121 45.1716 50.4074 46.3097 49.183 47.889C47.9587 49.4682 47.2813 51.4028 47.253 53.4009H47.102C44.8504 53.4009 42.691 54.2953 41.0989 55.8874C39.5068 57.4796 38.6123 59.639 38.6123 61.8906C38.6123 64.1422 39.5068 66.3016 41.0989 67.8937C42.691 69.4859 44.8504 70.3803 47.102 70.3803H78.2636C79.5525 70.3436 80.7769 69.8086 81.6795 68.8878C82.5821 67.967 83.0925 66.7321 83.1035 65.4428Z" fill="#E0E0E0"/>
<path d="M184.101 324.362C279.195 324.362 356.285 319.861 356.285 314.31C356.285 308.758 279.195 304.257 184.101 304.257C89.0067 304.257 11.9175 308.758 11.9175 314.31C11.9175 319.861 89.0067 324.362 184.101 324.362Z" fill="#F5F5F5"/>
<path d="M252.17 101.604L249.24 97.6083C249.327 97.1312 249.299 96.64 249.157 96.1763C249.015 95.7126 248.763 95.2899 248.423 94.9441C247.25 93.6121 239.64 94.3136 238.468 94.4291C237.295 94.5445 235.359 99.2156 236.505 100.574C237.651 101.933 244.968 102.164 245.643 101.578L247.952 104.793L252.17 101.604Z" fill="#9F5B53"/>
<path d="M296.253 91.685C296.022 88.4881 298.029 87.2448 300.586 88.3371C303.144 89.4294 305.355 85.673 308.765 86.561C312.175 87.449 311.128 90.8503 312.886 91.685C314.644 92.5198 316.625 91.5163 317.388 95.7967C318.152 100.077 315.346 97.857 316.58 101.605C317.815 105.352 321.491 106.409 318.356 109.597C315.221 112.785 313.09 114.037 315.55 116.701C318.01 119.365 315.346 121.923 314.218 122.802C313.09 123.681 319.111 128.77 317.415 133.334C315.719 137.899 301.572 142.117 292.843 138.787C284.113 135.457 281.689 130.413 282.186 124.676C282.683 118.939 286.919 117.421 286.626 115.627C286.333 113.833 283.545 112.261 285.125 109.624C286.706 106.986 291.093 106.755 289.69 104.233C288.287 101.711 288.465 98.9049 290.045 97.6705C291.626 96.4361 293.1 96.7824 292.807 94.2515C292.514 91.7206 296.253 91.685 296.253 91.685Z" fill="#263238"/>
<path d="M288.607 119.357C288.607 119.357 268.564 119.535 264.816 114.917C261.068 110.299 251.593 99.2871 251.593 99.2871L246.265 102.608C246.265 102.608 255.589 123.433 261.441 128.007C267.294 132.58 284.717 133.521 284.717 133.521L288.607 119.357Z" fill="#068EFF"/>
<path opacity="0.3" d="M288.607 119.357C288.607 119.357 268.564 119.535 264.816 114.917C261.068 110.299 251.593 99.2871 251.593 99.2871L246.265 102.608C246.265 102.608 255.589 123.433 261.441 128.007C267.294 132.58 284.717 133.521 284.717 133.521L288.607 119.357Z" fill="white"/>
<path d="M254.399 303.103L259.728 304.044L261.912 296.78L263.902 290.12L257.765 287.971L255.98 295.981L254.399 303.103Z" fill="#E4897B"/>
<path d="M260.926 303.902C261.015 303.307 253.724 302.499 253.724 302.499C253.724 302.499 248.485 306.229 244 306.477C239.515 306.726 241.46 309.745 246.282 310.598L258.2 312.703C261.619 313.307 259.994 310.012 260.926 303.902Z" fill="#068EFF"/>
<path d="M249 303.387C248.91 303.276 248.857 303.138 248.849 302.995C248.841 302.851 248.878 302.709 248.956 302.588C249.001 302.49 249.067 302.402 249.148 302.33C249.229 302.259 249.323 302.204 249.426 302.171C249.976 302.051 250.548 302.087 251.078 302.277C250.545 301.86 250.101 301.389 250.146 301.007C250.146 300.759 250.368 300.581 250.723 300.483C250.881 300.437 251.047 300.426 251.209 300.45C251.372 300.475 251.527 300.534 251.664 300.625C252.552 301.203 252.881 302.988 252.89 303.067C252.899 303.096 252.899 303.127 252.89 303.156V303.201C252.886 303.212 252.881 303.223 252.873 303.232C252.865 303.241 252.856 303.249 252.845 303.254H252.783C251.93 303.499 251.05 303.642 250.163 303.68C249.96 303.712 249.752 303.703 249.552 303.653C249.352 303.602 249.164 303.512 249 303.387ZM249.56 302.499C249.505 302.515 249.455 302.542 249.412 302.579C249.37 302.616 249.335 302.661 249.311 302.712C249.187 302.979 249.266 303.076 249.311 303.103C249.595 303.44 250.989 303.281 252.135 303.014C251.336 302.73 250.128 302.322 249.56 302.552V302.499ZM250.829 300.821C250.723 300.821 250.536 300.918 250.528 301.016C250.528 301.345 251.416 302.091 252.419 302.686C252.297 302.005 251.957 301.382 251.451 300.91C251.332 300.833 251.193 300.792 251.051 300.794C250.975 300.806 250.901 300.827 250.829 300.856V300.821Z" fill="#263238"/>
<path opacity="0.2" d="M255.953 296.149L261.885 296.931L263.892 290.19L257.756 288.006L255.953 296.149Z" fill="black"/>
<path d="M289.948 305.385H295.356L296.244 297.854L297.043 290.945L290.623 289.897L290.267 298.094L289.948 305.385Z" fill="#E4897B"/>
<path d="M296.511 305.038C296.511 304.443 289.175 304.905 289.175 304.905C289.175 304.905 284.673 309.488 280.295 310.518C275.917 311.548 278.359 314.176 283.252 314.176H295.356C298.828 314.176 296.662 311.21 296.511 305.038Z" fill="#068EFF"/>
<path d="M284.673 306.601C284.569 306.505 284.496 306.38 284.465 306.242C284.433 306.104 284.444 305.96 284.495 305.829C284.522 305.723 284.571 305.624 284.638 305.539C284.705 305.453 284.79 305.382 284.886 305.331C285.406 305.12 285.976 305.058 286.529 305.154C285.934 304.834 285.419 304.443 285.392 304.061C285.392 303.813 285.543 303.6 285.872 303.449C286.02 303.378 286.183 303.342 286.347 303.342C286.511 303.342 286.674 303.378 286.822 303.449C287.817 303.857 288.429 305.571 288.456 305.642C288.467 305.666 288.473 305.691 288.473 305.718C288.473 305.744 288.467 305.769 288.456 305.793L288.394 305.846C287.439 306.313 286.412 306.613 285.357 306.734C285.12 306.776 284.876 306.729 284.673 306.601ZM285.081 305.66C284.98 305.715 284.904 305.808 284.868 305.917C284.797 306.21 284.868 306.282 284.922 306.308C285.268 306.592 286.609 306.184 287.683 305.731C286.84 305.466 285.939 305.441 285.081 305.66ZM286.041 303.795C285.943 303.839 285.774 303.937 285.774 304.035C285.774 304.372 286.849 304.923 287.932 305.349C287.689 304.704 287.248 304.154 286.671 303.777C286.579 303.735 286.479 303.714 286.378 303.715C286.261 303.716 286.146 303.743 286.041 303.795Z" fill="#263238"/>
<path opacity="0.2" d="M290.268 298.262L296.244 298.005L297.043 291.016L290.623 289.941L290.268 298.262Z" fill="black"/>
<path d="M255.447 291.895L264.203 293.441C273.031 271.426 279.3 253.061 283.74 237.813C286.129 229.59 287.985 222.281 289.424 215.79L289.024 239.767V294.187H297.905C319.52 191.075 304.201 167.507 304.201 167.507L278.332 163.066C277.31 167.842 276.586 172.676 276.165 177.542L275.002 186.102L264.914 238.328L255.447 291.895Z" fill="#263238"/>
<path opacity="0.2" d="M255.447 291.895L264.203 293.441C273.031 271.426 279.3 253.061 283.74 237.813C286.129 229.59 287.985 222.281 289.424 215.79L289.024 239.767V294.187H297.905C319.52 191.075 304.201 167.507 304.201 167.507L278.332 163.066C277.31 167.842 276.586 172.676 276.165 177.542L275.002 186.102L264.914 238.328L255.447 291.895Z" fill="white"/>
<path d="M265.571 292.384L254.719 288.787L254.861 293.396L263.839 296.264L265.571 292.384Z" fill="#263238"/>
<path d="M299.086 292.881L287.772 291.229L288.713 295.75L298.056 297.011L299.086 292.881Z" fill="#263238"/>
<path d="M304.228 163.643V167.506L277.844 165.482V160.917L304.228 163.643Z" fill="#263238"/>
<path d="M283.565 166.212L289.332 166.729L289.724 162.35L283.957 161.834L283.565 166.212Z" fill="white"/>
<path d="M295.026 168.692L296.339 168.759L296.679 162.098L295.366 162.031L295.026 168.692Z" fill="#263238"/>
<path opacity="0.2" d="M295.026 168.692L296.339 168.759L296.679 162.098L295.366 162.031L295.026 168.692Z" fill="white"/>
<path d="M278.895 166.925L280.208 166.992L280.547 160.332L279.235 160.265L278.895 166.925Z" fill="#263238"/>
<path opacity="0.2" d="M278.895 166.925L280.208 166.992L280.547 160.332L279.235 160.265L278.895 166.925Z" fill="white"/>
<path d="M317.389 126.478C316.589 128.103 315.861 129.649 315.186 131.105C314.609 132.331 314.076 133.494 313.57 134.604L312.682 136.487C312.469 136.966 312.256 137.446 312.06 137.908C311.359 139.497 310.737 140.98 310.178 142.348C309.849 143.165 309.547 143.955 309.29 144.719L308.899 145.767C308.295 147.374 307.789 148.866 307.345 150.278C306.963 151.504 306.625 152.676 306.315 153.83C305.906 155.384 305.56 156.894 305.24 158.43C304.991 159.611 304.76 160.81 304.53 162.054C304.423 162.577 304.325 163.11 304.228 163.652L277.844 160.908C277.933 159.425 278.03 157.986 278.137 156.583C278.226 155.34 278.314 154.132 278.412 152.96C278.554 151.29 278.696 149.692 278.838 148.156C278.963 146.912 279.087 145.713 279.211 144.559C279.389 142.872 279.575 141.282 279.762 139.772C279.913 138.511 280.073 137.321 280.224 136.22C280.463 134.444 280.703 132.89 280.925 131.46C281.147 130.031 281.343 128.956 281.529 127.908C281.772 126.594 281.985 125.502 282.169 124.631C283.332 119.303 284.184 119.188 284.184 119.188C284.184 119.188 290.117 119.312 295.205 119.951H295.338C298.777 120.483 302.179 121.23 305.524 122.189C305.959 122.305 306.412 122.429 306.812 122.562C310.428 123.609 313.963 124.917 317.389 126.478Z" fill="#068EFF"/>
<path opacity="0.6" d="M317.389 126.478C316.589 128.103 315.861 129.649 315.186 131.105C314.609 132.331 314.076 133.494 313.57 134.604L312.682 136.487C312.469 136.966 312.256 137.446 312.06 137.908C311.359 139.497 310.737 140.98 310.178 142.348C309.849 143.165 309.547 143.955 309.29 144.719L308.899 145.767C308.295 147.374 307.789 148.866 307.345 150.278C306.963 151.504 306.625 152.676 306.315 153.83C305.906 155.384 305.56 156.894 305.24 158.43C304.991 159.611 304.76 160.81 304.53 162.054C304.423 162.577 304.325 163.11 304.228 163.652L277.844 160.908C277.933 159.425 278.03 157.986 278.137 156.583C278.226 155.34 278.314 154.132 278.412 152.96C278.554 151.29 278.696 149.692 278.838 148.156C278.963 146.912 279.087 145.713 279.211 144.559C279.389 142.872 279.575 141.282 279.762 139.772C279.913 138.511 280.073 137.321 280.224 136.22C280.463 134.444 280.703 132.89 280.925 131.46C281.147 130.031 281.343 128.956 281.529 127.908C281.772 126.594 281.985 125.502 282.169 124.631C283.332 119.303 284.184 119.188 284.184 119.188C284.184 119.188 290.117 119.312 295.205 119.951H295.338C298.777 120.483 302.179 121.23 305.524 122.189C305.959 122.305 306.412 122.429 306.812 122.562C310.428 123.609 313.963 124.917 317.389 126.478Z" fill="white"/>
<path opacity="0.2" d="M283.758 237.84C286.147 229.617 288.003 222.308 289.442 215.817C289.316 208.133 288.756 200.463 287.763 192.843C287.763 192.843 283.98 222.468 283.758 237.84Z" fill="black"/>
<path d="M297.62 119.836C294.503 119.383 292.585 121.159 294.024 124.143C295.462 127.127 295.942 127.571 300.844 126.691C305.746 125.812 311.447 121.861 297.62 119.836Z" fill="#068EFF"/>
<path d="M313.57 134.604L312.682 136.487C312.469 136.966 312.255 137.446 312.06 137.908C304.228 136.07 289.548 132.739 280.89 131.443C281.103 130.12 281.307 128.939 281.494 127.891C292.313 129.47 303.025 131.712 313.57 134.604Z" fill="#068EFF"/>
<path d="M310.204 142.375C309.876 143.192 309.574 143.982 309.316 144.746L308.925 145.794C300.933 143.938 287.888 141.025 279.789 139.782C279.94 138.521 280.099 137.331 280.25 136.229C290.341 137.721 300.341 139.772 310.204 142.375Z" fill="#068EFF"/>
<path d="M307.345 150.305C306.963 151.53 306.625 152.703 306.315 153.857C298.473 152.081 286.609 149.417 278.838 148.183C278.963 146.939 279.087 145.74 279.211 144.586C288.681 146.006 298.072 147.915 307.345 150.305Z" fill="#068EFF"/>
<path d="M305.24 158.439C304.991 159.62 304.76 160.819 304.529 162.062C296.954 160.286 285.809 157.844 278.137 156.592C278.226 155.349 278.314 154.141 278.412 152.969C284.895 153.972 294.947 155.748 305.24 158.439Z" fill="#068EFF"/>
<g opacity="0.3">
<path d="M297.62 119.836C294.503 119.383 292.585 121.159 294.024 124.143C295.462 127.127 295.942 127.571 300.844 126.691C305.746 125.812 311.447 121.861 297.62 119.836Z" fill="white"/>
<path d="M313.57 134.604L312.682 136.487C312.469 136.966 312.255 137.446 312.06 137.908C304.228 136.07 289.548 132.739 280.89 131.443C281.103 130.12 281.307 128.939 281.494 127.891C292.313 129.47 303.025 131.712 313.57 134.604Z" fill="white"/>
<path d="M310.204 142.375C309.876 143.192 309.574 143.982 309.316 144.746L308.925 145.794C300.933 143.938 287.888 141.025 279.789 139.782C279.94 138.521 280.099 137.331 280.25 136.229C290.341 137.721 300.341 139.772 310.204 142.375Z" fill="white"/>
<path d="M307.345 150.305C306.963 151.53 306.625 152.703 306.315 153.857C298.473 152.081 286.609 149.417 278.838 148.183C278.963 146.939 279.087 145.74 279.211 144.586C288.681 146.006 298.072 147.915 307.345 150.305Z" fill="white"/>
<path d="M305.24 158.439C304.991 159.62 304.76 160.819 304.529 162.062C296.954 160.286 285.809 157.844 278.137 156.592C278.226 155.349 278.314 154.141 278.412 152.969C284.895 153.972 294.947 155.748 305.24 158.439Z" fill="white"/>
</g>
<path d="M296.688 125.972C303.242 125.91 305.506 123.379 305.506 123.379C301.865 119.028 306.066 112.723 306.066 112.723L298.118 113.255C298.168 114.36 298.141 115.467 298.038 116.568C297.532 121.292 295.374 121.088 295.374 121.088C293.731 123.486 296.688 125.972 296.688 125.972Z" fill="#9F5B53"/>
<path opacity="0.2" d="M298.118 113.264C298.168 114.369 298.141 115.476 298.038 116.577C303.286 117.198 306.031 112.731 306.031 112.731L298.118 113.264Z" fill="black"/>
<path d="M304.983 92.0843C298.269 90.9209 295.489 94.1356 293.784 100.965C291.671 109.508 292.514 115.982 301.235 115.6C313.064 115.031 316.136 93.9847 304.983 92.0843Z" fill="#9F5B53"/>
<path d="M298.198 101.303C297.483 102.21 296.663 103.03 295.756 103.745C295.904 104.056 296.135 104.32 296.423 104.51C296.711 104.699 297.045 104.806 297.39 104.819L298.198 101.303Z" fill="#892B29"/>
<path d="M302.398 101.472C302.292 102.022 302.496 102.52 302.86 102.599C303.224 102.679 303.615 102.28 303.748 101.711C303.881 101.143 303.65 100.664 303.286 100.592C302.922 100.521 302.505 100.965 302.398 101.472Z" fill="#263238"/>
<path d="M303.402 100.663L302.301 99.9619C302.301 99.9619 302.7 101.081 303.402 100.663Z" fill="#263238"/>
<path d="M295.596 100.006C295.48 100.548 295.694 101.054 296.058 101.125C296.422 101.196 296.813 100.814 296.946 100.237C297.079 99.6599 296.848 99.1892 296.484 99.1093C296.12 99.0293 295.702 99.4556 295.596 100.006Z" fill="#263238"/>
<path d="M296.599 99.189L295.498 98.4785C295.498 98.4785 295.898 99.6152 296.599 99.189Z" fill="#263238"/>
<path d="M303.269 96.8447C303.811 96.8733 304.339 97.0258 304.814 97.2906C305.288 97.5554 305.695 97.9254 306.004 98.3722" stroke="#263238" stroke-width="0.64355" stroke-linecap="round" stroke-linejoin="round"/>
<path d="M298.447 95.7169C298.007 95.52 297.529 95.425 297.048 95.4388C296.566 95.4527 296.094 95.575 295.667 95.7968" stroke="#263238" stroke-width="0.64355" stroke-linecap="round" stroke-linejoin="round"/>
<path d="M297.914 107.626C298.099 108.438 298.224 109.263 298.287 110.094H298.731C300.72 110.236 301.688 109.65 302.158 108.949C302.5 108.397 302.638 107.744 302.549 107.102C301.282 107.56 299.931 107.739 298.588 107.626C298.171 107.652 297.914 107.626 297.914 107.626Z" fill="#263238"/>
<path d="M298.588 107.661L298.722 108.389C300.595 108.522 301.927 108.389 302.558 107.829C302.588 107.599 302.588 107.367 302.558 107.137C301.288 107.596 299.934 107.775 298.588 107.661Z" fill="white"/>
<path d="M298.73 110.13C300.72 110.272 301.688 109.686 302.158 108.984C301.402 108.943 300.644 109.036 299.92 109.26C299.441 109.416 299.025 109.721 298.73 110.13Z" fill="#DE5753"/>
<path d="M310.355 104.633C310.355 104.633 308.171 98.5761 309.387 94.3934C309.387 94.3934 297.034 86.6496 294.024 100.033C294.024 100.033 294.814 87.8219 306.403 89.5624C317.992 91.303 315 108.211 308.179 112.172C308.162 112.172 311.696 108.425 310.355 104.633Z" fill="#263238"/>
<path d="M309.005 105.859C309.206 105.093 309.701 104.438 310.384 104.037C311.066 103.636 311.88 103.521 312.646 103.718C314.689 104.313 314.937 108.754 309.582 108.878C308.81 108.896 308.517 108.07 309.005 105.859Z" fill="#9F5B53"/>
<path d="M320.088 150.314L312.096 147.854C312.096 147.854 312.273 146.194 311.377 145.794C310.48 145.394 299.033 144.222 298.731 145.279C298.429 146.336 299.05 152.916 300.844 153.84C302.638 154.763 310.488 155.119 310.719 154.728C310.95 154.337 311.377 153.84 311.377 153.84L319.582 156.371L320.088 150.314Z" fill="#9F5B53"/>
<path d="M317.388 126.479C323.72 129.356 337.538 154.434 335.434 160.162C333.329 165.89 315.994 156.805 315.994 156.805L317.388 148.209L321.349 149.204C321.349 149.204 316.394 141.078 312.096 137.908C312.136 135.7 312.638 133.525 313.57 131.523C314.581 129.658 315.868 127.957 317.388 126.479Z" fill="#068EFF"/>
<path opacity="0.3" d="M317.388 126.479C323.72 129.356 337.538 154.434 335.434 160.162C333.329 165.89 315.994 156.805 315.994 156.805L317.388 148.209L321.349 149.204C321.349 149.204 316.394 141.078 312.096 137.908C312.136 135.7 312.638 133.525 313.57 131.523C314.581 129.658 315.868 127.957 317.388 126.479Z" fill="white"/>
<path d="M125.659 66.9437L129.46 44.1297C127.417 42.105 132.124 30.5249 132.124 29.2727C132.124 28.0206 139.281 33.3666 139.406 34.5122C139.53 35.6578 137.63 43.81 135.489 44.9823L134.37 69.3414C134.37 69.3414 129.841 71.2596 125.659 66.9437Z" fill="#E4897B"/>
<path d="M91.3267 85.1936C91.3267 85.1936 114.958 84.1635 119.496 80.8777C124.033 77.5919 127.168 49.4053 127.168 49.4053L138.713 50.542C138.713 50.542 135.631 81.7746 129.584 89.6161C123.536 97.4575 99.7365 101.214 99.7365 101.214L91.3267 85.1936Z" fill="#263238"/>
<path opacity="0.2" d="M138.731 50.542C138.731 50.542 135.649 81.7746 129.601 89.6161C126.591 93.5057 119.149 96.4096 112.453 98.3367C108.27 99.5263 104.025 100.487 99.7364 101.214L95.1541 92.4667L91.3354 85.1936C91.3354 85.1936 114.966 84.1635 119.504 80.8777C124.042 77.5919 127.177 49.4053 127.177 49.4053L138.731 50.542Z" fill="white"/>
<path opacity="0.2" d="M112.453 98.3003C108.271 99.5019 104.025 100.474 99.7366 101.213L95.1543 92.4658C99.7366 92.8654 109.399 94.1798 112.453 98.3003Z" fill="black"/>
<path d="M37.4488 113.398L25.2381 93.7185C26.3571 91.0544 27.9911 82.023 27.4671 80.8774C26.9432 79.7318 18.3913 77.1831 18.036 78.2576C16.9793 81.1171 17.5387 96.5514 19.9986 96.8178L30.3444 118.939C30.3444 118.939 35.2198 118.992 37.4488 113.398Z" fill="#E4897B"/>
<path d="M95.5181 307.56L102.729 308.324L104.079 292.783L96.8768 292.02L95.5181 307.56Z" fill="#E4897B"/>
<path d="M59.5698 307.037H66.5499L67.1271 290.865H60.1382L59.5698 307.037Z" fill="#E4897B"/>
<path d="M67.518 306.228H59.0371C58.8979 306.227 58.7626 306.274 58.6541 306.361C58.5457 306.449 58.4708 306.571 58.4421 306.707L57.0657 312.924C57.0105 313.191 57.0638 313.469 57.2136 313.697C57.3635 313.925 57.5977 314.085 57.8649 314.14C57.9387 314.149 58.0132 314.149 58.0869 314.14C60.831 314.096 62.8291 313.927 66.2747 313.927C68.3972 313.927 74.8 314.149 77.7305 314.149C80.6611 314.149 81.043 311.254 79.8441 310.988C74.4625 309.815 70.413 308.19 68.6902 306.645C68.3674 306.361 67.9478 306.212 67.518 306.228Z" fill="#263238"/>
<path d="M67.9977 307.196C67.9652 307.188 67.936 307.17 67.9138 307.144C67.8917 307.119 67.8776 307.088 67.8734 307.054C67.8693 307.023 67.8747 306.991 67.8889 306.962C67.9032 306.934 67.9256 306.91 67.9533 306.894C68.202 306.735 70.4576 305.349 71.2302 305.749C71.3179 305.789 71.3917 305.854 71.4423 305.937C71.4929 306.019 71.518 306.114 71.5144 306.211C71.54 306.376 71.5215 306.545 71.4606 306.701C71.3998 306.857 71.2989 306.994 71.1681 307.099C70.7744 307.366 70.3015 307.491 69.8271 307.454C69.2098 307.434 68.5965 307.348 67.9977 307.196ZM68.4773 306.965C69.2919 307.241 70.1807 307.196 70.9638 306.841C71.0474 306.768 71.1115 306.676 71.1503 306.572C71.1891 306.468 71.2013 306.356 71.1858 306.246C71.1858 306.113 71.1237 306.051 71.0793 306.051C71.0148 306.013 70.9401 305.998 70.8661 306.006C70.0136 306.177 69.2023 306.512 68.4773 306.992V306.965Z" fill="#068EFF"/>
<path d="M67.953 307.232C67.9291 307.215 67.9095 307.192 67.8956 307.166C67.8818 307.14 67.8741 307.111 67.873 307.081C67.873 306.983 68.0507 304.976 68.8588 304.319C68.9538 304.236 69.0655 304.174 69.1865 304.137C69.3075 304.1 69.435 304.09 69.5603 304.106C69.6867 304.102 69.8102 304.144 69.9082 304.224C70.0061 304.304 70.0718 304.417 70.0932 304.541C70.2353 305.278 68.841 306.815 68.1217 307.205H68.0418C68.0157 307.223 67.9846 307.233 67.953 307.232ZM69.0719 304.515C68.5833 305.143 68.2955 305.905 68.246 306.699C68.9653 306.158 69.8534 304.994 69.7646 304.541C69.7646 304.497 69.7646 304.373 69.5248 304.373H69.4449C69.3079 304.376 69.1762 304.426 69.0719 304.515Z" fill="#068EFF"/>
<path d="M103.484 306.006H95.003C94.8637 306.005 94.7284 306.052 94.62 306.14C94.5115 306.227 94.4366 306.349 94.408 306.486L93.0315 312.702C92.9764 312.969 93.0296 313.247 93.1794 313.476C93.3293 313.704 93.5635 313.863 93.8307 313.919C93.9045 313.927 93.979 313.927 94.0527 313.919C96.7968 313.874 98.7949 313.705 102.241 313.705C104.363 313.705 110.766 313.927 113.696 313.927C116.627 313.927 117.009 311.032 115.81 310.766C110.428 309.594 106.379 307.969 104.656 306.423C104.333 306.139 103.914 305.99 103.484 306.006Z" fill="#263238"/>
<path d="M103.964 306.992C103.931 306.984 103.902 306.966 103.88 306.94C103.858 306.915 103.843 306.884 103.839 306.85C103.835 306.819 103.841 306.786 103.855 306.758C103.869 306.73 103.891 306.706 103.919 306.69C104.168 306.53 106.423 305.145 107.196 305.545C107.284 305.585 107.358 305.65 107.408 305.733C107.459 305.815 107.484 305.91 107.48 306.007C107.506 306.172 107.487 306.341 107.426 306.497C107.366 306.653 107.265 306.79 107.134 306.895C106.74 307.162 106.267 307.287 105.793 307.25C105.176 307.23 104.562 307.144 103.964 306.992ZM104.443 306.761C105.258 307.037 106.147 306.992 106.93 306.637C107.013 306.564 107.077 306.472 107.116 306.368C107.155 306.264 107.167 306.152 107.152 306.042C107.152 305.909 107.089 305.847 107.045 305.847C106.981 305.809 106.906 305.794 106.832 305.802C105.983 305.96 105.172 306.279 104.443 306.744V306.761Z" fill="#068EFF"/>
<path d="M103.919 306.992C103.895 306.974 103.876 306.952 103.862 306.926C103.848 306.899 103.84 306.87 103.839 306.841C103.839 306.743 104.017 304.736 104.825 304.079C104.92 303.996 105.032 303.933 105.153 303.897C105.274 303.86 105.401 303.849 105.527 303.866C105.653 303.862 105.777 303.904 105.874 303.984C105.972 304.064 106.038 304.176 106.059 304.301C106.202 305.038 104.807 306.575 104.088 306.965H104.008C103.982 306.983 103.951 306.993 103.919 306.992ZM105.065 304.328C104.576 304.956 104.288 305.718 104.239 306.512C104.958 305.971 105.846 304.807 105.758 304.354C105.758 304.31 105.758 304.186 105.518 304.186H105.438C105.301 304.189 105.169 304.239 105.065 304.328Z" fill="#068EFF"/>
<path opacity="0.2" d="M96.8769 292.02L104.079 292.783L103.377 300.793L96.1665 300.039L96.8769 292.02Z" fill="black"/>
<path opacity="0.2" d="M60.1384 290.874H67.1273L66.8254 299.213H59.8364L60.1384 290.874Z" fill="black"/>
<path d="M63.0247 149.017H100.074C103.626 168.252 114.629 236.338 106.717 296.992L94.1685 295.447C94.1685 295.447 95.3318 214.919 84.2579 185.151C82.988 201.083 81.4694 218.009 80.1551 227.058C76.9315 249.259 70.0314 297.773 70.0314 297.773H57.2612C57.2612 297.773 59.8721 251.337 61.0798 229.518C62.4386 205.816 62.9714 153.883 63.0247 149.017Z" fill="#068EFF"/>
<path d="M108.146 299.914L92.623 297.605L93.1026 293.307L109.247 295.429L108.146 299.914Z" fill="#068EFF"/>
<path d="M71.5676 297.872H56.5063V293.369L72.136 293.076L71.5676 297.872Z" fill="#068EFF"/>
<path opacity="0.2" d="M84.2578 185.143C86.0787 190.347 87.4629 195.694 88.3961 201.128C89.4351 186.919 85.2879 171.911 85.2879 171.911L84.2578 185.143Z" fill="black"/>
<path d="M56.604 88.1943C58.6557 95.7306 60.1399 103.41 61.0442 111.168C61.3373 113.548 61.5771 115.884 61.7724 118.148C62.03 121.025 62.2076 123.796 62.3497 126.425C62.5273 129.755 62.5806 133.689 62.5717 137.561C62.5717 146.441 62.1987 155.011 62.1987 155.011C69.3031 156.787 89.8347 155.606 101.051 154.789C102.372 144.064 102.717 133.242 102.081 122.455C101.71 115.332 100.928 108.237 99.7365 101.204C99.1339 97.4496 98.2975 93.7362 97.2322 90.0859C96.8198 88.792 96.0452 87.6434 95.0001 86.7762C93.955 85.909 92.6833 85.3594 91.3355 85.1927C89.9768 85.024 88.405 84.8553 86.7532 84.7576C86.1138 84.7576 85.4744 84.6954 84.8262 84.6865C79.5284 84.7468 74.2386 85.1145 68.9834 85.7877C67.9888 85.9032 66.9764 86.0541 65.9995 86.214C62.835 86.7083 59.6988 87.3693 56.604 88.1943Z" fill="#263238"/>
<path opacity="0.7" d="M101.051 154.799C89.8348 155.616 69.3032 156.797 62.1988 155.021C62.1988 155.021 62.554 146.469 62.5718 137.57C62.5718 133.699 62.5274 129.765 62.3498 126.434C62.2077 123.77 62.0301 121.035 61.7725 118.158C61.5771 115.893 61.3374 113.558 61.0443 111.178C60.9733 110.538 60.8934 109.89 60.8046 109.251C60.547 107.199 60.2362 105.157 59.9165 103.123V103.07L63.371 98.0967L70.2356 88.2039C70.2356 88.2039 81.6559 92.8217 86.3981 86.2324C91.1091 89.752 95.3998 93.8014 99.186 98.301C99.3725 99.189 99.5501 100.201 99.7277 101.223C100.922 108.255 101.708 115.35 102.081 122.474C102.716 133.258 102.372 144.077 101.051 154.799Z" fill="white"/>
<path d="M74.6846 99.8463C80.7109 99.6865 86.7415 99.8673 92.7475 100.388C93.4461 100.469 94.0904 100.804 94.5572 101.33C95.0241 101.856 95.2809 102.535 95.2784 103.239C95.2796 103.616 95.2062 103.989 95.0625 104.338C94.9187 104.686 94.7075 105.003 94.4409 105.269C94.1743 105.536 93.8576 105.747 93.5091 105.891C93.1605 106.035 92.787 106.108 92.41 106.107H74.7645C74.0292 106.108 73.3216 105.827 72.7878 105.321C72.254 104.815 71.9348 104.124 71.8961 103.39V102.866C71.8746 102.483 71.9303 102.1 72.0598 101.739C72.1894 101.378 72.3903 101.047 72.6504 100.765C72.9106 100.483 73.2247 100.257 73.5742 100.099C73.9236 99.9411 74.3012 99.8552 74.6846 99.8463Z" fill="#263238"/>
<path opacity="0.2" d="M56.604 88.1943C58.6557 95.7306 60.1399 103.41 61.0442 111.168C61.3373 113.548 61.5771 115.884 61.7724 118.148C62.03 121.025 62.2076 123.796 62.3497 126.425C62.5273 129.755 62.5806 133.689 62.5717 137.561C62.5717 146.441 62.1987 155.011 62.1987 155.011C69.3031 156.787 89.8347 155.606 101.051 154.789C102.372 144.064 102.717 133.242 102.081 122.455C101.71 115.332 100.928 108.237 99.7365 101.204C99.1339 97.4496 98.2975 93.7362 97.2322 90.0859C96.8198 88.792 96.0452 87.6434 95.0001 86.7762C93.955 85.909 92.6833 85.3594 91.3355 85.1927C89.9768 85.024 88.405 84.8553 86.7532 84.7576C86.1138 84.7576 85.4744 84.6954 84.8262 84.6865C79.5284 84.7468 74.2386 85.1145 68.9834 85.7877C67.9888 85.9032 66.9764 86.0541 65.9995 86.214C62.835 86.7083 59.6988 87.3693 56.604 88.1943Z" fill="white"/>
<path d="M87.8901 53.8007C87.8901 53.8007 90.0835 61.5 85.4923 65.8248C80.9011 70.1496 78.6011 52.3887 78.6011 52.3887L87.8901 53.8007Z" fill="#263238"/>
<path d="M68.9658 85.7433C72.367 88.8338 80.7058 87.6882 80.7058 87.6882C80.7058 87.6882 85.9009 86.2673 84.8086 84.6422C81.7448 84.136 80.2618 82.7062 79.649 80.8769C79.3135 79.7429 79.2078 78.5533 79.3382 77.3779C79.3891 76.7226 79.4751 76.0704 79.5958 75.4242L69.2944 67.7959C70.6442 72.8311 72.296 82.0935 68.9658 85.7433Z" fill="#E4897B"/>
<path opacity="0.2" d="M71.6743 72.6445C72.0828 78.8609 77.1624 80.5304 79.6667 80.8767C79.3312 79.7428 79.2255 78.5532 79.3559 77.3778L71.6743 72.6445Z" fill="black"/>
<path d="M71.7807 75.3179C73.0467 76.7509 74.7481 77.7285 76.6235 78.1007C78.499 78.4729 80.4448 78.2191 82.162 77.3782C84.3999 76.331 86.1579 74.4747 87.0818 72.1831C87.2061 71.8723 87.3216 71.5437 87.4193 71.2063C89.1954 65.0521 88.6181 54.7507 81.9578 51.7314C79.6802 50.6812 77.0788 50.5786 74.7256 51.4463C72.3724 52.314 70.4603 54.0807 69.4096 56.3581C68.7751 57.7027 68.4707 59.1792 68.5216 60.6651C68.6548 67.583 68.4239 71.6592 71.7807 75.3179Z" fill="#E4897B"/>
<path d="M78.9472 63.0182C78.8851 63.5777 79.2048 64.0483 79.5777 64.0572C79.9507 64.0661 80.2615 63.6221 80.2882 63.0626C80.3148 62.5031 80.0218 62.0325 79.6577 62.0236C79.2936 62.0147 78.9739 62.4498 78.9472 63.0182Z" fill="#263238"/>
<path d="M85.3144 63.2675C85.2523 63.827 85.572 64.2977 85.9361 64.3154C86.3002 64.3332 86.6199 63.8803 86.6465 63.3208C86.6731 62.7613 86.3801 62.2907 86.016 62.2729C85.6519 62.2551 85.3322 62.7791 85.3144 63.2675Z" fill="#263238"/>
<path d="M83.2807 63.4717C83.8801 65.2195 84.7199 66.8753 85.7761 68.3915C85.377 68.65 84.9266 68.8188 84.4559 68.8863C83.9852 68.9537 83.5054 68.9182 83.0498 68.7822L83.2807 63.4717Z" fill="#DE5753"/>
<path d="M77.0556 60.8781C77.1157 60.8916 77.1784 60.8879 77.2365 60.8675C77.2946 60.8471 77.3457 60.8108 77.3842 60.7627C77.6397 60.4363 77.9678 60.1741 78.3424 59.9968C78.717 59.8195 79.1278 59.7321 79.5421 59.7414C79.5853 59.7463 79.6291 59.7426 79.6708 59.7305C79.7126 59.7184 79.7515 59.6982 79.7854 59.6709C79.8193 59.6436 79.8474 59.6099 79.8681 59.5717C79.8889 59.5335 79.9018 59.4916 79.9062 59.4484C79.9138 59.3616 79.8876 59.2752 79.833 59.2074C79.7783 59.1395 79.6996 59.0954 79.6132 59.0843C79.0898 59.0611 78.5684 59.1636 78.0926 59.3829C77.6168 59.6023 77.2004 59.9322 76.878 60.3453C76.8173 60.4068 76.7832 60.4897 76.7832 60.5762C76.7832 60.6626 76.8173 60.7456 76.878 60.8071C76.9324 60.8413 76.9926 60.8653 77.0556 60.8781Z" fill="#263238"/>
<path d="M88.1298 61.1892C88.1931 61.2109 88.2618 61.2109 88.3251 61.1892C88.3654 61.1737 88.402 61.1501 88.4329 61.12C88.4638 61.0899 88.4883 61.0538 88.5049 61.014C88.5215 60.9742 88.5299 60.9314 88.5295 60.8882C88.5291 60.8451 88.52 60.8025 88.5027 60.7629C88.304 60.2768 87.9913 59.8456 87.591 59.5056C87.1907 59.1656 86.7146 58.9267 86.2027 58.8092C86.1161 58.7986 86.0286 58.821 85.9578 58.872C85.887 58.9231 85.8381 58.999 85.8208 59.0845C85.8104 59.1701 85.8331 59.2564 85.8843 59.3258C85.9355 59.3951 86.0113 59.4423 86.0961 59.4575C86.4944 59.5655 86.8621 59.7644 87.1703 60.0387C87.4785 60.3131 87.7188 60.6552 87.8722 61.0382C87.9002 61.0819 87.9381 61.1184 87.9829 61.1447C88.0276 61.1709 88.078 61.1862 88.1298 61.1892Z" fill="#263238"/>
<path d="M77.1979 48.4102C76.3721 48.4102 75.5462 48.4102 74.7203 48.4723C72.3324 48.5619 70.0231 49.3492 68.0777 50.7368C63.7263 54.1381 65.4668 61.1803 66.6746 65.736C68.2819 71.7925 71.1148 74.2701 71.1148 74.2701C69.2677 71.526 68.9657 65.7448 69.8982 65.4696C70.8306 65.1943 70.9017 66.3132 70.9017 66.3132C72.8554 64.7058 74.2763 60.7185 73.2728 58.1698C72.5091 56.2072 74.5782 54.4134 76.6118 55.1238L77.2246 55.328L78.1748 55.63L77.1979 48.4102Z" fill="#263238"/>
<path d="M65.2979 66.2158C66.0008 67.8087 67.3071 69.0575 68.93 69.688C71.088 70.5051 72.3756 68.6313 71.9583 66.4822C71.5675 64.5729 69.9868 61.7933 67.7311 61.9088C65.4755 62.0242 64.4542 64.2443 65.2979 66.2158Z" fill="#E4897B"/>
<path d="M82.0821 70.1588C81.646 70.8665 81.2631 71.6056 80.9365 72.37C80.7855 72.37 80.6434 72.3079 80.5014 72.2634C78.5743 71.7573 77.8372 70.887 77.6241 70.0789C77.5303 69.6787 77.5303 69.2624 77.6241 68.8622C77.6675 68.6328 77.7454 68.4112 77.855 68.2051C78.8985 69.0442 80.1098 69.6498 81.4072 69.9812C81.8245 70.0966 82.0821 70.1588 82.0821 70.1588Z" fill="#263238"/>
<path d="M81.425 69.9715L81.0697 70.6198C79.2936 70.1402 78.0415 69.563 77.6152 68.8437C77.6587 68.6143 77.7365 68.3927 77.8461 68.1865C78.8967 69.0322 80.1175 69.641 81.425 69.9715Z" fill="white"/>
<path d="M80.5013 72.2627C78.5742 71.7565 77.8372 70.8862 77.624 70.0781C78.3549 70.2837 79.0435 70.6175 79.6576 71.0639C80.0607 71.3621 80.3566 71.7826 80.5013 72.2627Z" fill="#DE5753"/>
<path d="M65.5644 60.8606C65.5644 60.8606 64.4721 56.6334 64.6763 54.2002C64.8806 51.7669 70.0845 46.4919 75.7592 45.9858C81.4338 45.4796 82.8635 45.9858 84.6396 47.9039C86.4157 49.8221 87.6768 54.9462 87.6768 54.9462C87.6768 54.9462 76.5495 52.3175 65.5644 60.8606Z" fill="#068EFF"/>
<path d="M65.5645 60.861C65.5645 60.861 75.9635 49.4585 86.3536 48.5704C96.7438 47.6824 98.2268 50.7728 88.3429 56.5628C88.3429 56.5628 82.2242 51.4655 65.5645 60.861Z" fill="#068EFF"/>
<path opacity="0.2" d="M65.5645 60.861C65.5645 60.861 75.9635 49.4585 86.3536 48.5704C96.7438 47.6824 98.2268 50.7728 88.3429 56.5628C88.3429 56.5628 82.2242 51.4655 65.5645 60.861Z" fill="black"/>
<path opacity="0.2" d="M60.8046 109.25C60.547 107.199 60.2362 105.157 59.9165 103.123V103.07C60.2184 102.563 62.6961 98.4163 62.9447 95.4502C63.1535 96.3263 63.296 97.2168 63.371 98.1143C63.6374 100.965 63.5131 105.53 60.8046 109.25Z" fill="black"/>
<path d="M60.3606 106.044C58.6822 112.03 48.6739 124.826 40.717 125.919C26.3572 127.89 19.688 102.519 19.688 102.519L29.643 95.796C29.643 95.796 34.6605 107.136 37.2536 108.877C40.4594 111.035 51.0183 92.4747 56.6041 88.1943C56.6041 88.1943 64.9873 89.5886 60.3606 106.044Z" fill="#263238"/>
<path opacity="0.2" d="M60.3606 106.044C58.6822 112.03 48.6739 124.826 40.717 125.919C26.3572 127.89 19.688 102.519 19.688 102.519L29.643 95.796C29.643 95.796 34.6605 107.136 37.2536 108.877C40.4594 111.035 51.0183 92.4747 56.6041 88.1943C56.6041 88.1943 64.9873 89.5886 60.3606 106.044Z" fill="white"/>
<path d="M204.269 97.4126L210.423 93.1322C211.109 91.8612 211.934 90.67 212.883 89.58C214.108 88.3013 217.971 86.2943 219.028 86.4186C220.085 86.5429 224.951 90.0507 223.042 91.8979C221.133 93.745 216.47 96.0717 215.689 95.7875L214.907 95.5033L207.19 101.72L204.269 97.4126Z" fill="#EEC1BB"/>
<path d="M212.883 98.4879C212.883 98.4879 195.912 113.398 189.429 116.64C186.25 118.238 178.773 120.813 172.059 122.998C165.132 125.245 158.96 127.092 158.96 127.092L157.886 125.094L151.75 113.682C151.75 113.682 183.808 109.242 186.623 108.061C189.438 106.88 208.656 93.1152 208.656 93.1152L212.883 98.4879Z" fill="#263238"/>
<path opacity="0.2" d="M172.086 122.997C165.159 125.244 158.987 127.091 158.987 127.091L157.913 125.093V119.836C157.913 119.836 167.726 120.147 172.086 122.997Z" fill="black"/>
<path d="M111.032 174.496L106.805 180.712C106.605 182.137 106.253 183.536 105.757 184.886C105.056 186.52 102.161 189.761 101.131 190.019C100.101 190.277 94.2928 188.722 95.4295 186.325C96.5662 183.927 100.092 180.108 100.926 180.108H101.752L106.77 171.574L111.032 174.496Z" fill="#EEC1BB"/>
<path d="M140.667 79.306C145.427 79.2438 155.151 87.6181 155.151 87.6181C155.151 87.6181 158.028 100.051 160.719 102.599L158.659 103.488L156.936 100.877L157.913 104.651C157.913 104.651 149.307 108.496 142.212 108.869C135.116 109.242 131.84 107.812 131.84 107.812L132.55 104.651L131.174 107.368L128.261 106.134C129.621 101.359 130.595 96.483 131.174 91.5522C131.84 84.6165 140.667 79.306 140.667 79.306Z" fill="#263238"/>
<path d="M151.563 272.758C146.19 279.507 141.368 285.626 137.159 290.093C132.958 294.613 130.791 297.419 130.791 297.419L126.626 295.03C126.626 295.03 130.472 288.947 135.685 280.555C140.125 273.451 145.551 264.659 150.479 256.516C156.864 246.001 162.397 236.57 163.862 233.196C164.901 230.798 162.086 221.589 158.96 212.904C155.79 204.068 152.309 195.755 152.309 195.755L163.676 176.538C163.676 176.538 168.294 189.335 172.396 202.833C175.061 211.714 177.556 220.816 178.382 226.89C179.527 235.371 164.884 255.992 151.563 272.758Z" fill="#EEC1BB"/>
<path opacity="0.2" d="M151.598 272.758C146.27 279.507 141.075 285.626 137.239 290.093C136.688 287.349 136.137 284.098 135.693 280.555C140.134 273.451 145.56 264.659 150.488 256.516C150.381 261.952 150.752 267.387 151.598 272.758Z" fill="black"/>
<path opacity="0.2" d="M172.379 202.833L158.961 212.904C155.79 204.068 152.309 195.755 152.309 195.755L163.676 176.538C163.676 176.538 168.276 189.335 172.379 202.833Z" fill="black"/>
<path d="M148.943 307.232L144.139 307.881C144.139 307.881 137.194 273.717 137.407 245.522C134.832 236.194 132.821 226.719 131.386 217.149C129.681 205.604 128.847 192.745 131.093 183.154L147.922 190.729L148.268 215.968L148.552 237.006L148.943 307.232Z" fill="#EEC1BB"/>
<path opacity="0.2" d="M148.233 215.95L131.36 217.131C129.655 205.587 128.82 192.728 131.067 183.137L147.895 190.712L148.233 215.95Z" fill="black"/>
<path d="M126.902 292.375C127.399 292.011 131.591 298.289 131.591 298.289C131.591 298.289 130.658 304.834 132.55 309.052C134.441 313.27 130.774 312.906 127.71 308.91L120.162 298.999C117.995 296.184 121.769 296.113 126.902 292.375Z" fill="#263238"/>
<path d="M133.012 303.023C132.061 302.801 131.44 300.092 131.324 299.551V299.471C131.324 299.471 131.324 299.471 131.324 299.409V299.355H131.386C131.475 299.355 133.251 298.769 134.201 299.355C134.348 299.438 134.475 299.551 134.573 299.688C134.671 299.824 134.738 299.98 134.77 300.146C134.85 300.519 134.77 300.776 134.574 300.918C134.379 301.06 133.598 300.963 132.967 300.67C133.394 301.062 133.701 301.567 133.855 302.126C133.875 302.236 133.871 302.35 133.843 302.458C133.816 302.567 133.765 302.669 133.695 302.756C133.627 302.859 133.537 302.944 133.43 303.006C133.324 303.067 133.205 303.104 133.083 303.112L133.012 303.023ZM133.1 302.641C133.1 302.641 133.26 302.641 133.447 302.437C133.483 302.391 133.508 302.338 133.522 302.281C133.536 302.224 133.537 302.165 133.527 302.108C133.447 301.487 132.505 300.572 131.848 300.021C132.141 301.185 132.656 302.552 133.1 302.641ZM132.008 299.586C133.02 300.217 134.139 300.714 134.423 300.474C134.503 300.421 134.477 300.226 134.423 300.11C134.402 300 134.356 299.897 134.29 299.806C134.224 299.716 134.139 299.641 134.042 299.586C133.766 299.449 133.461 299.382 133.154 299.391C132.766 299.414 132.382 299.479 132.008 299.586Z" fill="#068EFF"/>
<path d="M142.363 304.781C142.363 304.169 149.902 304.648 149.902 304.648C149.902 304.648 154.538 309.355 159.04 310.421C163.543 311.486 161.021 314.177 155.994 314.177H143.562C140.001 314.177 142.239 311.131 142.363 304.781Z" fill="#263238"/>
<path d="M150.773 305.616C150.749 305.606 150.727 305.591 150.71 305.571C150.708 305.553 150.708 305.535 150.71 305.518C150.707 305.497 150.707 305.476 150.71 305.456C150.71 305.456 150.71 305.393 150.71 305.376C150.71 305.358 151.368 303.537 152.389 303.111C152.541 303.041 152.706 303.005 152.873 303.005C153.04 303.005 153.205 303.041 153.357 303.111C153.703 303.28 153.872 303.493 153.854 303.751C153.836 304.008 153.295 304.541 152.682 304.87C153.251 304.772 153.836 304.836 154.369 305.056C154.469 305.107 154.557 305.178 154.628 305.265C154.698 305.352 154.749 305.454 154.778 305.562C154.832 305.699 154.843 305.848 154.81 305.991C154.776 306.134 154.7 306.263 154.591 306.361C154.398 306.5 154.162 306.566 153.925 306.548C152.827 306.428 151.759 306.112 150.773 305.616ZM151.456 305.491C152.566 305.962 153.952 306.379 154.307 306.086C154.307 306.086 154.431 305.98 154.351 305.687C154.335 305.63 154.308 305.578 154.271 305.532C154.235 305.486 154.19 305.448 154.138 305.42C153.859 305.297 153.555 305.242 153.25 305.26C152.646 305.277 152.045 305.354 151.456 305.491ZM152.504 303.484C151.908 303.866 151.456 304.434 151.217 305.1C152.327 304.674 153.401 304.088 153.428 303.751C153.428 303.644 153.259 303.546 153.153 303.502C153.044 303.45 152.926 303.423 152.806 303.422C152.702 303.421 152.599 303.442 152.504 303.484Z" fill="#068EFF"/>
<path d="M155.684 208.171L173.897 198.651C168.178 181.263 163.019 171.396 163.019 171.396C145.133 174.46 146.768 188.598 146.768 188.598C146.768 188.598 151.323 198.011 155.684 208.171Z" fill="#068EFF"/>
<path opacity="0.2" d="M154.538 205.489C154.929 206.377 155.311 207.265 155.701 208.153L173.897 198.651C168.178 181.263 163.019 171.396 163.019 171.396C151.98 173.297 148.375 179.389 147.229 183.829C146.809 185.391 146.65 187.011 146.759 188.625C146.759 188.625 150.542 196.413 154.538 205.489Z" fill="white"/>
<path opacity="0.2" d="M154.538 205.488C150.542 196.412 146.759 188.615 146.759 188.615C146.65 187.002 146.809 185.381 147.229 183.82C147.799 183.447 148.43 183.179 149.094 183.029C149.094 183.029 153.961 190.658 154.538 205.488Z" fill="black"/>
<path d="M150.071 212.096L149.467 182.995L163.889 178.785C163.889 178.785 162.761 165.465 161.074 158.849C161.074 158.849 137.647 153.014 134.077 160.962C134.077 160.962 134.077 161.086 134.024 161.131L133.971 161.202C133.971 161.202 127.239 173.04 129.246 212.096H150.071Z" fill="#068EFF"/>
<path opacity="0.2" d="M150.071 212.096L149.467 182.995L163.889 178.785C163.889 178.785 162.761 165.465 161.074 158.849C161.074 158.849 137.647 153.014 134.077 160.962C134.077 160.962 134.077 161.086 134.024 161.131L133.971 161.202C133.971 161.202 127.239 173.04 129.246 212.096H150.071Z" fill="white"/>
<path d="M133.793 156.93V160.9L160.719 158.822V154.124L133.793 156.93Z" fill="#068EFF"/>
<path d="M142.928 155.244L141.58 155.313L141.931 162.169L143.279 162.1L142.928 155.244Z" fill="#068EFF"/>
<path d="M154.676 155.082L148.741 155.613L149.144 160.107L155.079 159.575L154.676 155.082Z" fill="white"/>
<path d="M159.5 153.431L158.152 153.5L158.503 160.356L159.851 160.287L159.5 153.431Z" fill="#068EFF"/>
<path opacity="0.2" d="M142.928 155.244L141.58 155.313L141.931 162.169L143.279 162.1L142.928 155.244Z" fill="white"/>
<path opacity="0.2" d="M159.5 153.431L158.152 153.5L158.503 160.356L159.851 160.287L159.5 153.431Z" fill="white"/>
<path d="M161.012 154.603L133.917 156.912C133.716 152.717 133.281 148.536 132.612 144.39C131.82 139.923 130.761 135.508 129.442 131.167C128.669 128.503 127.754 125.644 126.662 122.349C126.147 120.774 125.582 119.108 124.966 117.349C128.648 116.169 132.411 115.261 136.226 114.632C140.253 113.932 144.325 113.52 148.41 113.397C153.685 113.397 159.751 113.948 159.751 113.948C159.751 113.948 160.639 114.161 161.154 119.747C161.651 124.986 162.139 135.492 161.012 154.603Z" fill="#263238"/>
<path d="M127.488 210.906L151.252 210.692L150.835 214.271L128.536 214.058L127.488 210.906Z" fill="#068EFF"/>
<path d="M154.201 207.957L173.969 197.229L175.025 200.382L155.879 209.849L154.201 207.957Z" fill="#068EFF"/>
<path d="M146.173 119.374C139.486 118.486 137.47 115.654 137.47 115.654C140.205 113.087 139.708 109.277 139.015 106.906C138.802 106.156 138.526 105.425 138.189 104.722L146.244 106.222C146.054 107.344 145.947 108.478 145.924 109.615C145.902 110.453 145.979 111.291 146.155 112.11C146.705 114.517 148.073 114.543 148.073 114.543C149.467 117.19 146.173 119.374 146.173 119.374Z" fill="#EEC1BB"/>
<path opacity="0.2" d="M145.915 109.615C145.893 110.453 145.97 111.291 146.146 112.11C142.949 111.684 140.525 109.126 139.042 106.906C138.829 106.156 138.553 105.425 138.216 104.722L146.27 106.222C146.069 107.343 145.95 108.477 145.915 109.615Z" fill="black"/>
<path d="M144.601 83.9329C151.598 84.1905 153.712 88.0268 153.961 95.2644C154.263 104.305 152.034 110.637 143.348 108.381C131.555 105.326 132.967 83.5067 144.601 83.9329Z" fill="#EEC1BB"/>
<path d="M149.467 94.749C149.989 95.8136 150.636 96.8123 151.394 97.724C151.18 98.0068 150.891 98.2246 150.56 98.3532C150.23 98.4818 149.87 98.516 149.521 98.4522L149.467 94.749Z" fill="#D4827D"/>
<path d="M145.293 89.1271C144.743 89.0396 144.179 89.0798 143.646 89.2446C143.114 89.4093 142.626 89.6942 142.221 90.0773" stroke="#263238" stroke-width="0.628704" stroke-linecap="round" stroke-linejoin="round"/>
<path d="M150.355 89.0205C150.839 88.9188 151.339 88.9275 151.819 89.0459C152.299 89.1643 152.745 89.3894 153.126 89.7043" stroke="#263238" stroke-width="0.628704" stroke-linecap="round" stroke-linejoin="round"/>
<path d="M148.384 101.116C148.028 101.895 147.732 102.699 147.496 103.522L147.052 103.46C145.018 103.176 144.174 102.377 143.846 101.578C143.697 101.181 143.646 100.755 143.695 100.334C143.714 100.095 143.765 99.8591 143.846 99.6328C145.02 100.37 146.342 100.84 147.718 101.009C148.108 101.089 148.384 101.116 148.384 101.116Z" fill="#263238"/>
<path d="M147.691 101.009L147.407 101.711C145.488 101.444 144.183 101 143.668 100.334C143.688 100.095 143.738 99.8591 143.819 99.6328C144.993 100.37 146.315 100.84 147.691 101.009Z" fill="white"/>
<path d="M147.025 103.461C144.992 103.177 144.148 102.377 143.819 101.578C144.589 101.701 145.331 101.956 146.013 102.333C146.456 102.598 146.809 102.991 147.025 103.461Z" fill="#DE5753"/>
<path d="M136.51 95.4506C136.51 95.4506 140 89.8204 139.663 85.3624C139.663 85.3624 153.747 80.2028 153.872 94.3139C153.872 94.3139 155.648 81.8813 143.659 81.1353C131.671 80.3893 131.031 98.0082 137.052 103.496C137.097 103.496 134.37 98.9762 136.51 95.4506Z" fill="#263238"/>
<path d="M137.594 96.9687C137.577 96.5663 137.481 96.1711 137.311 95.8059C137.141 95.4407 136.9 95.1127 136.603 94.8405C136.306 94.5683 135.959 94.3573 135.58 94.2196C135.202 94.082 134.8 94.0203 134.397 94.0382C132.221 94.198 131.023 98.6116 136.378 99.8815C137.141 100.077 137.612 99.3221 137.594 96.9687Z" fill="#EEC1BB"/>
<path d="M140.667 79.3057C144.45 78.2578 154.547 78.1157 156.936 88.5591L155.533 89.2607C153.161 88.0712 150.596 87.3134 147.958 87.0228C147.397 86.0254 146.74 85.0855 145.995 84.2166C146.072 85.103 146.072 85.9943 145.995 86.8807C145.995 86.8807 139.406 87.8398 136.458 90.5217C131.831 94.7311 131.556 97.3952 131.556 97.3952C131.556 97.3952 128.341 82.7335 140.667 79.3057Z" fill="#263238"/>
<path d="M140.107 80.0786C140.107 80.0786 153.641 75.3808 157.868 88.2131" stroke="#263238" stroke-width="0.43378" stroke-linecap="round" stroke-linejoin="round"/>
<path d="M143.251 93.9763C143.251 93.9763 144.894 92.582 145.666 94.4558C144.915 94.0942 144.084 93.9292 143.251 93.9763Z" fill="#263238"/>
<path d="M151.048 95.015C151.048 95.015 151.936 93.1146 153.161 94.4555C152.422 94.4708 151.698 94.6627 151.048 95.015Z" fill="#263238"/>
<path opacity="0.3" d="M153.712 123.309H157.637C157.78 123.315 157.919 123.355 158.042 123.427C158.165 123.498 158.27 123.598 158.347 123.718C158.423 123.838 158.47 123.975 158.482 124.117C158.495 124.259 158.473 124.402 158.419 124.534L156.794 128.033C156.723 128.166 156.62 128.278 156.494 128.36C156.368 128.442 156.223 128.491 156.073 128.501C155.923 128.512 155.773 128.484 155.636 128.421C155.5 128.358 155.382 128.261 155.293 128.14L152.984 124.65C152.905 124.517 152.863 124.367 152.86 124.213C152.857 124.059 152.894 123.907 152.967 123.772C153.04 123.637 153.148 123.523 153.278 123.442C153.409 123.361 153.558 123.315 153.712 123.309Z" fill="white"/>
<path opacity="0.2" d="M132.594 144.426C131.802 139.959 130.743 135.544 129.424 131.203L130.898 128.539C132.748 133.618 133.331 139.071 132.594 144.426Z" fill="black"/>
<path d="M124.966 117.385C122.426 120.599 121.28 143.644 116.139 152.987C110.997 162.329 103.768 175.01 103.768 175.01L109.043 179.593C109.043 179.593 125.285 160.624 127.879 153.333C130.472 146.042 131.173 136.353 131.173 136.353C132.594 123.308 124.966 117.385 124.966 117.385Z" fill="#263238"/>
<path opacity="0.6" d="M126.902 292.375C127.399 292.011 131.591 298.289 131.591 298.289C131.591 298.289 130.658 304.834 132.55 309.052C134.441 313.27 130.774 312.906 127.71 308.91L120.162 298.999C117.995 296.184 121.769 296.113 126.902 292.375Z" fill="white"/>
<path opacity="0.6" d="M142.363 304.781C142.363 304.169 149.902 304.648 149.902 304.648C149.902 304.648 154.538 309.355 159.04 310.421C163.543 311.486 161.021 314.177 155.994 314.177H143.562C140.001 314.177 142.239 311.131 142.363 304.781Z" fill="white"/>
<path d="M179.608 134.471C184.172 136.309 188.035 131.736 188.213 126.292C188.213 126.292 192.378 123.628 197.093 120.733C200.648 118.499 204.315 116.448 208.078 114.588C208.694 114.3 209.228 113.864 209.633 113.318C213.274 108.593 211.595 94.9795 211.595 94.9795C203.159 95.9208 186.303 111.204 178.924 118.575C171.544 125.946 175.043 132.624 179.608 134.471Z" fill="#068EFF"/>
<path opacity="0.2" d="M197.093 120.733C200.648 118.499 204.315 116.448 208.078 114.588C208.694 114.3 209.228 113.864 209.632 113.318L203.718 108.069C203.718 108.069 198.452 114.916 197.093 120.733Z" fill="black"/>
<path d="M207.386 307.56L200.184 308.324L198.825 292.783L206.036 292.02L207.386 307.56Z" fill="#EBB376"/>
<path d="M243.334 307.037H236.354L235.776 290.865H242.765L243.334 307.037Z" fill="#EBB376"/>
<path d="M235.386 306.228H243.867C244.006 306.227 244.142 306.274 244.25 306.361C244.358 306.449 244.433 306.571 244.462 306.707L245.838 312.924C245.894 313.191 245.84 313.469 245.69 313.697C245.541 313.925 245.306 314.085 245.039 314.14C244.965 314.15 244.891 314.15 244.817 314.14C242.073 314.096 240.075 313.927 236.629 313.927C234.507 313.927 228.104 314.149 225.174 314.149C222.243 314.149 221.861 311.254 223.06 310.988C228.442 309.815 232.491 308.19 234.214 306.645C234.537 306.361 234.956 306.212 235.386 306.228Z" fill="#263238"/>
<path d="M233.077 307.454C232.603 307.49 232.13 307.365 231.736 307.099C231.607 306.993 231.507 306.856 231.446 306.7C231.385 306.545 231.366 306.376 231.39 306.211C231.386 306.114 231.411 306.019 231.462 305.937C231.512 305.854 231.586 305.789 231.674 305.749C232.447 305.349 234.702 306.735 234.951 306.894C234.979 306.909 235.003 306.932 235.017 306.961C235.031 306.99 235.036 307.023 235.031 307.054C235.027 307.088 235.012 307.119 234.99 307.144C234.968 307.17 234.939 307.188 234.906 307.196C234.308 307.348 233.694 307.435 233.077 307.454ZM232.056 306.006C231.982 305.998 231.907 306.014 231.843 306.051C231.798 306.051 231.745 306.113 231.736 306.246C231.722 306.356 231.735 306.467 231.774 306.571C231.812 306.675 231.876 306.767 231.958 306.841C232.741 307.196 233.63 307.241 234.445 306.965C233.718 306.493 232.907 306.168 232.056 306.006Z" fill="#068EFF"/>
<path d="M234.862 307.204H234.782C234.063 306.814 232.668 305.277 232.81 304.54C232.835 304.417 232.902 304.307 232.999 304.227C233.096 304.148 233.218 304.105 233.343 304.105C233.469 304.089 233.596 304.099 233.717 304.136C233.838 304.173 233.95 304.235 234.045 304.318C234.853 304.975 235.022 306.982 235.03 307.08C235.031 307.11 235.024 307.14 235.01 307.166C234.996 307.192 234.976 307.215 234.951 307.231C234.919 307.232 234.888 307.222 234.862 307.204ZM233.459 304.372H233.379C233.166 304.372 233.148 304.496 233.139 304.54C233.05 304.993 233.938 306.157 234.658 306.698C234.612 305.903 234.324 305.14 233.832 304.514C233.727 304.425 233.596 304.375 233.459 304.372Z" fill="#068EFF"/>
<path d="M199.42 306.006H207.901C208.04 306.005 208.175 306.052 208.284 306.14C208.392 306.227 208.467 306.349 208.496 306.486L209.872 312.702C209.927 312.969 209.874 313.247 209.724 313.476C209.574 313.704 209.34 313.863 209.073 313.919C208.999 313.928 208.925 313.928 208.851 313.919C206.107 313.874 204.109 313.705 200.663 313.705C198.541 313.705 192.138 313.927 189.207 313.927C186.277 313.927 185.895 311.032 187.094 310.766C192.475 309.594 196.525 307.969 198.248 306.423C198.57 306.139 198.99 305.99 199.42 306.006Z" fill="#263238"/>
<path d="M197.111 307.231C196.637 307.267 196.165 307.142 195.77 306.876C195.641 306.77 195.541 306.633 195.48 306.478C195.42 306.322 195.4 306.153 195.424 305.988C195.42 305.892 195.445 305.796 195.496 305.714C195.547 305.632 195.62 305.566 195.708 305.526C196.481 305.127 198.736 306.512 198.985 306.672C199.014 306.686 199.037 306.71 199.051 306.739C199.066 306.767 199.07 306.8 199.065 306.832C199.061 306.865 199.047 306.896 199.025 306.922C199.002 306.947 198.973 306.965 198.941 306.974C198.342 307.126 197.729 307.212 197.111 307.231ZM196.072 305.784C195.998 305.776 195.924 305.791 195.859 305.828C195.815 305.828 195.761 305.89 195.753 306.023C195.739 306.133 195.752 306.245 195.79 306.348C195.829 306.452 195.892 306.545 195.975 306.618C196.758 306.974 197.646 307.018 198.461 306.743C197.735 306.271 196.923 305.945 196.072 305.784Z" fill="#068EFF"/>
<path d="M198.896 306.992H198.816C198.097 306.601 196.702 305.065 196.845 304.327C196.869 304.204 196.936 304.094 197.033 304.014C197.13 303.935 197.252 303.892 197.377 303.892C197.503 303.876 197.63 303.886 197.751 303.923C197.872 303.96 197.984 304.022 198.079 304.105C198.887 304.763 199.056 306.77 199.065 306.867C199.065 306.897 199.058 306.927 199.044 306.953C199.03 306.979 199.01 307.002 198.985 307.018C198.953 307.019 198.922 307.01 198.896 306.992ZM197.493 304.159H197.422C197.209 304.159 197.191 304.283 197.182 304.327C197.093 304.78 197.981 305.944 198.701 306.485C198.656 305.69 198.367 304.927 197.875 304.301C197.769 304.207 197.634 304.153 197.493 304.15V304.159Z" fill="#068EFF"/>
<path opacity="0.2" d="M206.036 292.02L198.825 292.783L199.536 300.793L206.738 300.039L206.036 292.02Z" fill="black"/>
<path opacity="0.2" d="M242.765 290.874H235.776L236.078 299.213H243.067L242.765 290.874Z" fill="black"/>
<path d="M239.879 156.121H202.83C199.278 175.356 188.284 236.338 196.187 296.992L208.735 295.447C208.735 295.447 207.572 222.023 218.646 192.256C219.925 208.187 221.434 218.009 222.749 227.058C225.972 249.26 232.872 297.774 232.872 297.774H245.643C245.643 297.774 243.032 251.338 241.824 229.518C240.501 205.816 239.932 160.988 239.879 156.121Z" fill="#263238"/>
<path d="M194.758 299.914L210.281 297.605L209.81 293.307L193.657 295.429L194.758 299.914Z" fill="#068EFF"/>
<path d="M231.336 297.872H246.398V293.369L230.768 293.076L231.336 297.872Z" fill="#068EFF"/>
<path opacity="0.2" d="M218.646 192.248C216.825 197.452 215.441 202.798 214.508 208.232C213.469 194.024 217.616 179.016 217.616 179.016L218.646 192.248Z" fill="black"/>
<path d="M246.264 97.9629C244.213 105.499 242.729 113.179 241.824 120.937C241.531 123.317 241.291 125.652 241.096 127.917C240.838 130.794 240.661 133.565 240.519 136.193C240.341 139.523 240.288 143.458 240.297 147.329C240.297 156.21 240.67 162.115 240.67 162.115C233.565 163.892 213.034 162.71 201.818 161.893C200.499 152.062 200.154 142.123 200.788 132.224C201.161 125.101 201.947 118.005 203.141 110.973C203.743 107.218 204.58 103.505 205.645 99.8544C206.058 98.5605 206.832 97.4119 207.877 96.5447C208.922 95.6775 210.194 95.128 211.542 94.9613C212.9 94.7925 214.472 94.6238 216.124 94.5261C216.763 94.5261 217.403 94.464 218.051 94.4551C223.349 94.5154 228.639 94.8831 233.894 95.5563C234.889 95.6717 235.901 95.8227 236.878 95.9825C240.039 96.4771 243.173 97.1381 246.264 97.9629Z" fill="#068EFF"/>
<path d="M233.938 95.5119C230.537 98.6023 222.207 97.4567 222.207 97.4567C222.207 97.4567 217.003 96.0358 218.096 94.4107C221.159 93.9045 222.642 92.4748 223.255 90.6454C223.591 89.5114 223.696 88.3219 223.566 87.1465C223.515 86.4911 223.429 85.839 223.308 85.1928L223.939 84.731L226.088 83.1325L233.61 77.5645C232.909 80.1621 232.413 82.8107 232.127 85.4858C231.789 88.0391 231.955 90.6337 232.615 93.1231C232.884 94.0034 233.334 94.8174 233.938 95.5119Z" fill="#EBB376"/>
<path opacity="0.2" d="M242.099 119.019C242.357 116.968 242.668 114.925 242.987 112.891V112.838C242.685 112.332 240.208 108.185 239.959 105.219C239.75 106.095 239.608 106.985 239.533 107.883C239.266 110.734 239.391 115.298 242.099 119.019Z" fill="black"/>
<path d="M260.518 140.589L248.929 163.829C245.749 164.327 242.375 177.932 241.593 179.095C240.812 180.258 250.794 180.089 251.655 179.095C252.516 178.1 256.202 169.504 254.994 167L270.011 144.106C270.011 144.106 267.151 139.426 260.518 140.589Z" fill="#EBB376"/>
<path d="M246.265 97.9628C247.801 97.7941 273.918 120.937 273.563 133.485C273.208 146.033 269.7 146.424 269.7 146.424L259.932 144.399C259.932 144.399 262.107 133.671 259.763 131.256C257.419 128.84 242.535 115.768 242.535 115.768C242.535 115.768 237.446 98.9397 246.265 97.9628Z" fill="#068EFF"/>
<path opacity="0.6" d="M209.615 107.785C209.615 107.785 226.133 108.531 232.828 110.147C232.828 110.147 229.933 133.903 229.987 140.998C229.987 140.998 211.187 140.172 205.858 139.924C205.858 139.924 207.928 114.552 209.615 107.785Z" fill="white"/>
<path d="M182.902 123.308L205.903 126.025C207.83 123.894 219.623 128.032 220.875 128.023C222.128 128.014 217.119 135.367 215.982 135.545C214.846 135.723 206.613 134.239 205.326 132.117H180.904C180.904 132.117 178.773 127.686 182.902 123.308Z" fill="#EBB376"/>
<path opacity="0.2" d="M232.615 93.1233C227.243 93.7095 224.871 88.1059 223.939 84.7313L226.088 83.1328C228.139 83.8153 230.155 84.6007 232.127 85.4861C231.789 88.0393 231.955 90.634 232.615 93.1233Z" fill="black"/>
<path d="M241.824 65.9398C241.824 65.9398 243.006 73.8612 237.899 77.5554C232.793 81.2497 232.793 63.3467 232.793 63.3467L241.824 65.9398Z" fill="#263238"/>
<path d="M223.113 85.2023C224.183 86.7862 225.744 87.975 227.555 88.5863C229.366 89.1975 231.328 89.1973 233.139 88.5857C235.494 87.8355 237.478 86.2203 238.689 84.0656C238.858 83.7775 239.012 83.4811 239.151 83.1775C241.664 77.2986 242.463 67.015 236.247 63.1609C234.88 62.3024 233.316 61.8077 231.704 61.7237C230.092 61.6398 228.486 61.9695 227.037 62.6813C225.588 63.3932 224.346 64.4637 223.427 65.7911C222.509 67.1185 221.945 68.6586 221.79 70.2653C221.026 77.1299 220.253 81.135 223.113 85.2023Z" fill="#EBB376"/>
<path d="M231.807 73.9326C231.674 74.4743 231.922 74.9805 232.295 75.0427C232.668 75.1048 233.023 74.7052 233.121 74.1546C233.219 73.604 232.997 73.0978 232.633 73.0357C232.269 72.9735 231.905 73.3731 231.807 73.9326Z" fill="#263238"/>
<path d="M238.077 74.9981C237.952 75.5487 238.21 76.0549 238.565 76.117C238.92 76.1792 239.302 75.7707 239.4 75.229C239.498 74.6873 239.267 74.1722 238.911 74.1189C238.556 74.0657 238.174 74.4741 238.077 74.9981Z" fill="#263238"/>
<path d="M236.043 74.9355C236.409 76.7477 237.028 78.4994 237.881 80.1395C237.451 80.3415 236.981 80.4463 236.505 80.4463C236.029 80.4463 235.559 80.3415 235.128 80.1395L236.043 74.9355Z" fill="#D58745"/>
<path d="M230.209 71.5699C230.267 71.5884 230.329 71.5907 230.389 71.5766C230.448 71.5625 230.502 71.5326 230.546 71.49C230.842 71.2002 231.202 70.9834 231.597 70.857C231.991 70.7306 232.41 70.698 232.82 70.7618C232.904 70.7803 232.993 70.7646 233.066 70.718C233.139 70.6714 233.191 70.5978 233.21 70.5132C233.221 70.4717 233.223 70.4286 233.217 70.3864C233.21 70.3441 233.195 70.3036 233.173 70.2671C233.151 70.2307 233.121 70.1991 233.086 70.1743C233.052 70.1494 233.012 70.1318 232.971 70.1224C232.455 70.0304 231.925 70.0629 231.424 70.2174C230.924 70.3719 230.467 70.6438 230.093 71.0105C230.033 71.072 229.999 71.1549 229.999 71.2413C229.999 71.3278 230.033 71.4107 230.093 71.4722C230.127 71.5105 230.166 71.5434 230.209 71.5699Z" fill="#263238"/>
<path d="M241.149 73.3024C241.206 73.3349 241.27 73.3503 241.336 73.3468C241.42 73.322 241.491 73.2655 241.534 73.1893C241.577 73.113 241.588 73.0231 241.566 72.9383C241.429 72.4307 241.174 71.9629 240.82 71.5738C240.466 71.1846 240.025 70.8853 239.533 70.7004C239.491 70.6869 239.448 70.6819 239.404 70.6859C239.361 70.6898 239.319 70.7026 239.281 70.7234C239.242 70.7442 239.209 70.7725 239.182 70.8068C239.155 70.841 239.135 70.8804 239.124 70.9224C239.102 71.006 239.112 71.095 239.154 71.171C239.195 71.247 239.264 71.3043 239.346 71.3309C239.731 71.4832 240.075 71.723 240.351 72.0313C240.627 72.3396 240.827 72.7079 240.936 73.107C240.955 73.153 240.984 73.1943 241.021 73.228C241.058 73.2617 241.102 73.2871 241.149 73.3024Z" fill="#263238"/>
<path d="M231.949 59.2269C231.132 59.1114 230.315 59.0137 229.489 58.9782C227.11 58.7552 224.717 59.2337 222.607 60.3547C217.856 63.1698 218.673 70.3808 219.285 75.0519C220.102 81.2682 222.545 84.0833 222.545 84.0833C221.062 81.1173 221.506 75.3449 222.465 75.2029C223.424 75.0608 223.353 76.1619 223.353 76.1619C225.502 74.8299 227.429 71.0557 226.763 68.3915C226.248 66.349 228.539 64.8393 230.457 65.7984L231.043 66.0826L231.931 66.5089L231.949 59.2269Z" fill="#263238"/>
<path d="M217.847 75.3355C218.088 76.1638 218.491 76.9363 219.032 77.6084C219.573 78.2805 220.242 78.839 220.999 79.2518C223.033 80.3441 224.551 78.6479 224.418 76.4633C224.276 74.5274 223.068 71.5613 220.822 71.3926C218.575 71.2238 217.278 73.2752 217.847 75.3355Z" fill="#EBB376"/>
<path d="M219.339 64.8922C219.339 64.8922 218.451 57.8411 226.656 56.66C234.862 55.4789 241.975 53.6406 241.975 53.6406C241.975 53.6406 241.851 57.7878 240.341 58.9689C240.341 58.9689 243.289 59.1021 245.048 57.9299C245.048 57.9299 244.577 61.562 243.52 62.8497L245.048 61.6775C244.878 63.053 244.282 64.341 243.344 65.3616C242.406 66.3821 241.173 67.0842 239.817 67.3698C234.977 68.471 225.937 64.8922 225.937 64.8922H219.339Z" fill="#263238"/>
<path d="M234.915 82.4933C234.39 83.1417 233.912 83.8273 233.485 84.5447C233.352 84.4914 233.21 84.447 233.077 84.3848C231.23 83.6389 230.617 82.6798 230.501 81.845C230.455 81.4361 230.507 81.0221 230.652 80.6373C230.727 80.4168 230.832 80.2077 230.963 80.0156C231.902 80.981 233.034 81.7375 234.285 82.2357C234.666 82.4045 234.915 82.4933 234.915 82.4933Z" fill="#263238"/>
<path d="M234.285 82.2357L233.85 82.8219C232.074 82.1203 230.981 81.3832 230.653 80.6373C230.728 80.4168 230.832 80.2077 230.964 80.0156C231.902 80.981 233.034 81.7375 234.285 82.2357Z" fill="white"/>
<path d="M233.077 84.3845C231.23 83.6386 230.617 82.6795 230.501 81.8447C231.201 82.14 231.841 82.5581 232.393 83.0791C232.747 83.4355 232.985 83.8905 233.077 84.3845Z" fill="#DE5753"/>
</svg>
