<svg width="366" height="348" viewBox="0 0 366 348" fill="none" xmlns="http://www.w3.org/2000/svg">
<path d="M252.479 57.0989L232.669 57.2061L232.783 78.2191L252.592 78.1119L252.479 57.0989Z" fill="#EBEBEB"/>
<path d="M272.193 56.9993L252.383 57.1064L252.497 78.1195L272.307 78.0123L272.193 56.9993Z" fill="#F5F5F5"/>
<path d="M232.699 63.0285C245.866 63.1393 259.065 63.0285 272.224 62.8464C272.273 62.8369 272.316 62.8108 272.348 62.7725C272.38 62.7342 272.397 62.6862 272.397 62.6366C272.397 62.587 272.38 62.5389 272.348 62.5007C272.316 62.4624 272.273 62.4363 272.224 62.4268C259.057 62.3555 245.858 62.4268 232.699 62.6643C232.651 62.6643 232.605 62.6835 232.57 62.7176C232.536 62.7518 232.517 62.7981 232.517 62.8464C232.517 62.8947 232.536 62.941 232.57 62.9752C232.605 63.0093 232.651 63.0285 232.699 63.0285Z" fill="#E0E0E0"/>
<path d="M256.314 78.0592L220.321 78.2539L220.413 95.3795L256.406 95.1847L256.314 78.0592Z" fill="#EBEBEB"/>
<path d="M292.139 77.8648L256.146 78.0596L256.239 95.1851L292.232 94.9904L292.139 77.8648Z" fill="#F5F5F5"/>
<path d="M220.34 83.0284C244.251 83.2976 268.249 83.0284 292.16 82.6721C292.209 82.6626 292.253 82.6364 292.285 82.5982C292.316 82.5599 292.333 82.5118 292.333 82.4623C292.333 82.4127 292.316 82.3646 292.285 82.3263C292.253 82.2881 292.209 82.2619 292.16 82.2524C268.249 82.1258 244.251 82.1416 220.348 82.6641C220.299 82.6641 220.253 82.6833 220.219 82.7175C220.185 82.7516 220.166 82.798 220.166 82.8463C220.166 82.8946 220.185 82.9409 220.219 82.975C220.253 83.0092 220.299 83.0284 220.348 83.0284H220.34Z" fill="#E0E0E0"/>
<path d="M346.325 95.1025H206.88V101.239H346.325V95.1025Z" fill="#EBEBEB"/>
<path d="M235.375 98.0479H229.714V118.982H235.375V98.0479Z" fill="#EBEBEB"/>
<path d="M319.88 98.0479H314.219V118.982H319.88V98.0479Z" fill="#EBEBEB"/>
<path d="M279.421 54.6357H352.881C352.881 54.6357 352.128 84.9602 332.406 88.6815L332.097 95.1185H299.009V88.5707C299.009 88.5707 279.421 83.5351 279.421 54.6357Z" fill="#E0E0E0"/>
<path d="M332.406 88.6812C332.406 88.7921 324.908 88.8713 315.66 88.8713C306.412 88.8713 298.906 88.7921 298.906 88.6812C298.906 88.5704 306.404 88.4912 315.66 88.4912C324.916 88.4912 332.406 88.5625 332.406 88.6812Z" fill="white"/>
<path d="M350.062 70.281L349.587 70.3365L348.209 70.4552C346.427 70.6289 344.629 70.5409 342.873 70.1939C341.598 69.9374 340.38 69.4519 339.278 68.7609C337.956 67.9316 336.899 66.7422 336.23 65.3325C335.882 64.5337 335.709 63.6699 335.723 62.7989C335.728 61.8538 336.036 60.9352 336.602 60.1782C336.907 59.7862 337.3 59.4716 337.75 59.2597C338.22 59.0553 338.739 58.9867 339.246 59.0618C339.764 59.1624 340.254 59.3765 340.68 59.6886C341.105 60.0007 341.457 60.4031 341.709 60.867C342.206 61.8439 342.354 62.9614 342.128 64.034C341.907 65.1422 341.477 66.1982 340.861 67.1457C339.568 69.1718 337.65 70.7224 335.398 71.5637C332.968 72.4563 330.295 72.4281 327.884 71.4845C326.635 71.002 325.482 70.2994 324.48 69.4101C323.411 68.5112 322.608 67.3364 322.16 66.0134C321.954 65.3157 321.954 64.5734 322.16 63.8757C322.261 63.5162 322.432 63.1801 322.663 62.8867C322.894 62.5932 323.18 62.3482 323.506 62.1655C324.197 61.8607 324.968 61.787 325.704 61.9553C326.44 62.1237 327.102 62.525 327.591 63.0998C328.544 64.2524 329.139 65.6589 329.302 67.1457C329.53 68.6326 329.484 70.1486 329.167 71.6191C328.55 74.668 326.865 77.3967 324.417 79.315C323.161 80.2768 321.726 80.9792 320.196 81.3815C318.644 81.7686 317.036 81.8758 315.446 81.6982C312.251 81.3773 309.3 79.8478 307.196 77.4227C306.167 76.2373 305.47 74.8003 305.177 73.2581C304.896 71.7098 305.231 70.113 306.111 68.8084C306.523 68.1522 307.095 67.612 307.774 67.2393C308.453 66.8665 309.216 66.6735 309.991 66.6785C310.75 66.7148 311.486 66.9543 312.121 67.3722C312.756 67.79 313.267 68.3708 313.601 69.0538C313.915 69.7481 313.969 70.5324 313.751 71.2628C313.531 71.9709 313.13 72.6094 312.588 73.1155C311.535 74.0769 310.254 74.7529 308.866 75.0791C306.323 75.7775 303.643 75.8084 301.084 75.1691C298.525 74.5297 296.174 73.2417 294.258 71.4291C293.382 70.5698 292.704 69.5294 292.271 68.3808C291.859 67.2625 291.79 66.0468 292.073 64.8891C292.329 63.7639 292.967 62.7622 293.878 62.0546C294.775 61.3945 295.895 61.1104 296.998 61.2629C298.048 61.3913 299.009 61.9185 299.682 62.7355C300.306 63.5109 300.654 64.472 300.672 65.4671C300.678 66.4091 300.375 67.3271 299.809 68.0799C299.286 68.7738 298.629 69.3554 297.877 69.7901C296.529 70.5421 295.078 71.0891 293.569 71.4133C292.313 71.7106 291.038 71.9222 289.753 72.0467C287.976 72.2245 286.186 72.2245 284.409 72.0467C283.789 71.9864 283.173 71.8913 282.564 71.7616L283.039 71.8171C283.348 71.8566 283.831 71.9121 284.417 71.9675C286.187 72.1245 287.969 72.1113 289.737 71.9279C291.013 71.796 292.278 71.5738 293.522 71.2628C295.011 70.941 296.442 70.3936 297.766 69.6397C298.489 69.213 299.121 68.648 299.626 67.977C300.155 67.2633 300.434 66.3949 300.418 65.5067C300.404 64.5658 300.068 63.6581 299.468 62.9335C298.831 62.1755 297.932 61.6839 296.95 61.5558C295.922 61.411 294.878 61.6692 294.037 62.2763C293.182 62.9465 292.586 63.8922 292.35 64.9525C292.086 66.0541 292.158 67.2094 292.556 68.27C292.975 69.3715 293.629 70.3685 294.472 71.1916C296.347 72.9501 298.642 74.1987 301.137 74.8182C303.632 75.4378 306.244 75.4077 308.724 74.7307C310.051 74.4113 311.279 73.7664 312.295 72.8543C312.79 72.3914 313.155 71.8074 313.356 71.1599C313.546 70.5076 313.498 69.8088 313.221 69.1884C312.914 68.566 312.448 68.0363 311.869 67.6536C311.29 67.271 310.62 67.0492 309.927 67.0111C309.222 66.9875 308.524 67.1661 307.916 67.5257C307.301 67.8962 306.775 68.396 306.372 68.9905C305.547 70.2137 305.234 71.7118 305.501 73.1631C305.789 74.6302 306.458 75.9957 307.441 77.1219C309.485 79.4712 312.348 80.9523 315.446 81.2628C316.988 81.4345 318.548 81.3299 320.054 80.954C321.535 80.563 322.923 79.8821 324.139 78.9508C326.513 77.0866 328.149 74.441 328.755 71.4845C329.065 70.0586 329.11 68.588 328.89 67.1457C328.745 65.7347 328.195 64.3957 327.306 63.2898C326.869 62.7759 326.279 62.4151 325.623 62.2598C324.966 62.1046 324.277 62.1631 323.656 62.4268C323.084 62.752 322.663 63.2897 322.485 63.9232C322.299 64.5591 322.299 65.235 322.485 65.8709C322.906 67.1695 323.682 68.3242 324.725 69.2042C325.693 70.0737 326.812 70.758 328.027 71.2232C330.359 72.1424 332.946 72.179 335.303 71.3262C337.495 70.5106 339.364 69.008 340.632 67.0427C341.229 66.1263 341.648 65.1056 341.867 64.034C342.094 63.0201 341.959 61.9587 341.487 61.0333C341.256 60.6036 340.933 60.2298 340.542 59.9384C340.151 59.647 339.7 59.4451 339.222 59.3468C338.764 59.2761 338.294 59.3365 337.869 59.521C337.455 59.7156 337.092 60.0028 336.808 60.3603C336.264 61.0633 335.954 61.9188 335.921 62.8068C335.899 63.6446 336.061 64.4771 336.396 65.2454C337.041 66.6227 338.065 67.7874 339.349 68.6025C340.425 69.2971 341.619 69.7882 342.873 70.0514C344.614 70.405 346.397 70.5143 348.169 70.3761L349.555 70.2969L350.062 70.281Z" fill="white"/>
<path d="M137.593 0.0595703H30.8872V146.955H137.593V0.0595703Z" fill="#E0E0E0"/>
<path d="M130.91 0.0595703H20.7207V146.955H130.91V0.0595703Z" fill="#EBEBEB"/>
<path d="M120.443 10.3281H31.2432V135.617H120.443V10.3281Z" fill="white"/>
<path d="M31.2432 135.617H120.451V102.751H31.2432V135.617Z" fill="#F5F5F5"/>
<path d="M85.6922 66.6235L88.5743 73.3535C88.5743 73.3535 81.9868 78.1595 82.9448 85.5704C83.9029 92.9813 89.3977 107.946 89.3977 107.946H100.934C100.934 107.946 106.698 87.0827 106.555 83.6464C106.413 80.2102 101.448 73.4881 101.448 73.4881L104.053 66.6235C104.053 66.6235 93.792 60.3053 85.6922 66.6235Z" fill="#E0E0E0"/>
<path d="M85.0907 88.7288C82.858 86.7177 80.0868 84.2157 79.1763 80.8112C78.9516 80.157 78.8797 79.4601 78.9662 78.7739C79.0527 78.0876 79.2951 77.4303 79.6751 76.8524C80.0864 76.3678 80.6062 75.9869 81.1922 75.7407C81.7782 75.4945 82.414 75.3898 83.048 75.4351C84.1558 75.52 85.242 75.7876 86.2625 76.2269L85.7321 77.6441C84.8654 77.2651 83.9428 77.0297 83.0005 76.9474C82.6065 76.9112 82.2095 76.9675 81.8411 77.1119C81.4727 77.2562 81.1431 77.4845 80.8785 77.7787C80.6486 78.1798 80.5077 78.6257 80.4653 79.0861C80.423 79.5465 80.4802 80.0106 80.6331 80.447C81.4249 83.424 84.0218 85.7597 86.1042 87.6362L85.0907 88.7288Z" fill="#E0E0E0"/>
<path d="M105.408 89.6632L104.252 88.6814C105.641 87.135 106.755 85.3623 107.545 83.44C107.917 82.6142 108.142 81.7301 108.21 80.8271C108.267 80.0145 108.018 79.2101 107.514 78.5706C107.205 78.238 106.821 77.9841 106.394 77.8298C105.967 77.6756 105.509 77.6255 105.059 77.6838C104.085 77.8104 103.185 78.269 102.51 78.9823L101.449 77.8897C102.374 76.9288 103.601 76.3141 104.925 76.1478C105.617 76.0715 106.317 76.1593 106.969 76.4041C107.621 76.649 108.207 77.044 108.678 77.5572C109.433 78.4826 109.811 79.6586 109.738 80.8509C109.665 81.9452 109.397 83.0177 108.947 84.0179C108.1 86.0892 106.903 87.999 105.408 89.6632Z" fill="#E0E0E0"/>
<path d="M104.085 66.6855C103.235 67.0169 102.347 67.2403 101.441 67.3506C99.2726 67.7252 97.0773 67.9212 94.8771 67.9365C92.6745 67.9529 90.4741 67.7914 88.2975 67.4536C87.3871 67.3628 86.4927 67.1525 85.6372 66.8281C86.5469 66.8381 87.4545 66.9149 88.353 67.0577C90.5174 67.2846 92.6929 67.3904 94.8692 67.3744C97.0473 67.3549 99.2227 67.2148 101.385 66.9547C102.277 66.7939 103.18 66.7039 104.085 66.6855Z" fill="#EBEBEB"/>
<path d="M120.451 27.2806C119.334 25.7525 114.014 23.8285 112.153 23.5197C103.824 22.1737 95.1619 22.0154 87.1968 24.6598C79.2316 27.3043 71.9791 33.005 68.8516 40.8197C67.2681 44.8419 66.7455 49.3074 64.6394 53.0999C61.9712 57.9218 57.086 61.0176 53.3727 65.1031C48.625 70.3031 45.8633 77.011 45.5737 84.0465C45.284 91.0819 47.4849 97.9941 51.7891 103.567L74.1802 103.844C73.6339 95.0396 73.6576 86.0373 76.2783 77.6129C78.8991 69.1886 84.4572 61.3264 92.4857 57.6763C100.926 53.8521 111.638 54.7785 120.807 56.0928L120.451 27.2806Z" fill="#EBEBEB"/>
<path d="M63.6655 10.2969C66.1438 14.129 62.953 20.3681 59.7067 23.5668C56.4605 26.7655 52.3038 29.4892 50.7757 33.7964C49.2476 38.1036 50.7757 42.8858 50.0631 47.383C49.7294 49.4218 48.9308 51.3565 47.7293 53.0371C46.5277 54.7177 44.9554 56.0992 43.1341 57.0745C41.3129 58.0498 39.2916 58.5928 37.2267 58.6614C35.1619 58.73 33.109 58.3224 31.2271 57.4701V10.2969H63.6655Z" fill="#EBEBEB"/>
<path d="M54.8216 91.8954C54.8216 91.8954 56.0409 93.5977 55.5501 94.6903C55.0592 95.7829 49.216 103.566 51.4171 108.942C53.6182 114.318 57.9808 120.13 57.9808 120.13H71.607C71.607 120.13 78.3132 109.552 78.1707 106.02C77.9411 100.177 73.6735 94.1044 73.6735 94.1044L74.7661 91.9191C74.7661 91.9191 62.1217 88.2454 54.8216 91.8954Z" fill="#E0E0E0"/>
<path d="M120.451 135.617C120.451 135.617 120.451 135.411 120.451 135.007C120.451 134.604 120.451 134.01 120.451 133.242C120.451 131.658 120.451 129.386 120.451 126.401C120.451 120.423 120.451 111.698 120.38 100.661C120.38 78.6024 120.308 47.3198 120.261 10.3287L120.514 10.5821H31.3222L31.5993 10.297C31.5993 57.2248 31.5993 100.629 31.5438 135.585L31.3222 135.364L96.1675 135.483L114.156 135.538H118.907H120.546C120.546 135.538 120.015 135.538 118.962 135.538H114.275L96.3417 135.593L31.3538 135.712H30.9817V135.483C30.9817 100.526 30.9817 57.0981 30.9263 10.1941V9.91699H31.2192H120.411H120.665V10.297C120.609 47.3515 120.57 78.6974 120.538 100.795C120.538 111.809 120.482 120.51 120.467 126.48C120.467 129.441 120.467 131.714 120.467 133.274C120.467 134.026 120.467 134.604 120.467 135.007C120.467 135.411 120.451 135.617 120.451 135.617Z" fill="#E0E0E0"/>
<path d="M130.918 0.0591085C131.037 0.169955 128.82 2.6165 125.875 5.39559C122.929 8.17467 120.546 10.4312 120.451 10.2966C120.356 10.162 122.549 7.74712 125.495 4.96012C128.44 2.17311 130.807 -0.0438206 130.918 0.0591085Z" fill="#E0E0E0"/>
<path d="M20.4276 0.00396865C20.5384 -0.106878 23.0641 2.11797 26.0728 4.9604C29.0815 7.80282 31.4252 10.2177 31.3222 10.3285C31.2193 10.4394 28.7015 8.22246 25.6849 5.37212C22.6683 2.52177 20.3247 0.138568 20.4276 0.00396865Z" fill="#E0E0E0"/>
<path d="M20.689 146.956C20.5781 146.845 22.8267 144.359 25.7008 141.413C28.5749 138.468 30.9977 136.132 31.1086 136.243C31.2194 136.354 28.9787 138.84 26.0967 141.785C23.2147 144.731 20.8315 147.066 20.689 146.956Z" fill="#E0E0E0"/>
<path d="M130.57 147.138C130.42 147.233 128.598 144.256 125.772 141.049C122.945 137.843 120.23 135.626 120.372 135.507C121.053 135.859 121.682 136.304 122.241 136.829C123.658 138.016 124.982 139.31 126.199 140.701C127.415 142.087 128.519 143.567 129.501 145.127C129.952 145.742 130.312 146.419 130.57 147.138Z" fill="#E0E0E0"/>
<path d="M197.782 272.837C197.782 272.837 195.922 269.258 194.204 268.403C192.485 267.548 183.032 265.236 181.314 264.959C179.596 264.682 168.709 263.241 166.991 264.959C166.991 264.959 165.407 266.392 167.996 268.126L174.441 270.137H169.54L166.484 268.933C166.484 268.933 166.674 265.695 164.813 264.975C162.953 264.254 162.525 266.123 161.805 267.271L156.365 264.104C156.365 264.104 154.212 263.795 155.217 267.271C156.223 270.747 161.377 273.716 161.377 273.716C161.377 273.716 162.232 277.58 163.38 278.157C163.38 278.157 164.813 282.908 166.246 283.454C167.167 284.989 168.171 286.472 169.255 287.896C170.253 289.036 174.552 291.332 174.552 291.332C174.552 291.332 191.021 289.749 193.317 288.751L197.782 272.837Z" fill="#9E7361"/>
<path d="M222.366 266.13C221.574 266.835 225.897 278.632 225.897 278.632L194.425 271.672L191.4 288.727C191.4 288.727 238.724 307.119 241.986 307.119C245.248 307.119 257.592 308.07 255.723 290.366L250.181 274.53L246.048 269.922L222.366 266.13Z" fill="#9E7361"/>
<path d="M239.864 289.519C239.817 289.519 239.176 288.783 238.059 287.603C236.603 286.072 235.034 284.653 233.364 283.359C231.693 282.072 229.924 280.915 228.075 279.899C226.65 279.107 225.739 278.688 225.763 278.632C225.787 278.577 226.017 278.68 226.444 278.846C226.872 279.012 227.473 279.274 228.21 279.638C232.035 281.555 235.452 284.196 238.273 287.413C238.803 288.031 239.223 288.553 239.484 288.925C239.641 289.102 239.769 289.303 239.864 289.519Z" fill="#755043"/>
<path d="M337.211 270.691C337.211 270.691 365.857 299.417 364.464 326.748V332.963L339.413 333.161L310.181 276.155L337.211 270.691Z" fill="#263238"/>
<path d="M183.349 152.703C185.96 156.206 187.652 160.307 188.269 164.632C188.886 168.958 188.408 173.369 186.88 177.462C185.463 181.167 183.151 184.659 182.921 188.617C182.644 193.004 184.948 197.113 185.779 201.428C186.611 205.743 184.94 211.373 180.585 211.998C186.484 215.997 193.697 217.707 200.823 218.023C207.949 218.34 215.075 217.366 222.121 216.377C226.08 215.83 230.253 215.157 233.119 212.418C236.832 208.863 237.078 203.115 237.078 197.984C237.078 183.067 237.078 168.15 237.078 153.234" fill="#263238"/>
<path d="M230.007 116.107C229.425 114.664 228.323 113.492 226.918 112.822C225.514 112.152 223.91 112.033 222.422 112.489L190.205 110.961C180.055 114.073 177.307 135.593 180.846 145.608C184.805 156.693 191.488 169.314 196.214 176.851C205.716 191.998 216.871 187.889 216.871 187.889L230.759 212.987L262.548 200.161L230.007 116.107Z" fill="#9E7361"/>
<path d="M191.306 157.002C191.531 157.549 191.961 157.986 192.504 158.219C193.047 158.453 193.659 158.465 194.211 158.253C194.485 158.161 194.738 158.015 194.954 157.823C195.171 157.632 195.347 157.399 195.472 157.139C195.598 156.879 195.67 156.596 195.684 156.307C195.699 156.019 195.656 155.73 195.557 155.458C195.332 154.912 194.902 154.475 194.359 154.241C193.816 154.007 193.203 153.995 192.652 154.207C192.377 154.299 192.124 154.444 191.907 154.636C191.689 154.827 191.513 155.059 191.387 155.32C191.262 155.581 191.19 155.864 191.176 156.153C191.162 156.442 191.206 156.731 191.306 157.002Z" fill="#263238"/>
<path d="M186.911 151.824C187.228 151.927 188.772 151.033 191.171 150.605C193.57 150.177 195.486 150.534 195.708 150.336C195.93 150.138 195.478 150.027 194.639 149.869C193.424 149.657 192.181 149.657 190.965 149.869C189.791 150.049 188.659 150.441 187.624 151.025C186.959 151.468 186.761 151.777 186.911 151.824Z" fill="#263238"/>
<path d="M211.202 148.213C211.428 148.76 211.858 149.197 212.401 149.43C212.944 149.664 213.556 149.676 214.108 149.464C214.382 149.371 214.635 149.224 214.852 149.032C215.068 148.84 215.244 148.606 215.37 148.345C215.495 148.084 215.567 147.801 215.582 147.512C215.596 147.223 215.553 146.934 215.454 146.661C215.228 146.116 214.797 145.681 214.254 145.449C213.711 145.217 213.099 145.206 212.548 145.418C212.274 145.51 212.021 145.655 211.804 145.847C211.586 146.038 211.41 146.27 211.284 146.531C211.159 146.792 211.087 147.075 211.073 147.364C211.059 147.653 211.103 147.942 211.202 148.213Z" fill="#263238"/>
<path d="M209.738 144.105C210.094 144.05 211.06 142.331 213.143 140.7C215.225 139.069 217.236 138.404 217.347 138.096C217.402 137.953 216.951 137.905 216.056 138.175C214.783 138.6 213.595 139.249 212.549 140.091C211.517 140.878 210.646 141.856 209.983 142.973C209.572 143.725 209.564 144.105 209.738 144.105Z" fill="#263238"/>
<path d="M207.838 162.394C207.798 162.267 206.302 162.615 203.918 163.288C203.317 163.478 202.731 163.597 202.462 163.241C202.161 162.67 202.042 162.021 202.121 161.38C202.074 159.797 202.018 158.078 201.955 156.297C201.662 149.084 201.163 143.257 200.894 143.272C200.625 143.288 200.609 149.139 200.894 156.352C200.984 158.126 201.065 159.82 201.139 161.436C201.073 162.281 201.309 163.123 201.804 163.811C201.974 163.976 202.179 164.101 202.404 164.176C202.629 164.252 202.868 164.276 203.103 164.246C203.457 164.197 203.803 164.101 204.132 163.961C206.468 163.106 207.885 162.528 207.838 162.394Z" fill="#263238"/>
<path d="M216.943 188.047C224.645 184.9 231.322 179.675 236.23 172.956C236.23 172.956 236.23 186.954 219.35 192.37L216.943 188.047Z" fill="#755043"/>
<path d="M210.538 167.691C210.934 165.545 212.121 163.732 213.626 162.996C214.119 162.729 214.682 162.617 215.24 162.675C215.798 162.733 216.325 162.958 216.753 163.321C217.255 163.821 217.628 164.435 217.843 165.11C218.058 165.785 218.108 166.502 217.988 167.2C217.892 167.923 217.586 168.602 217.107 169.153C216.629 169.703 215.999 170.101 215.296 170.296C214.066 170.452 212.817 170.237 211.71 169.678C211.364 169.57 211.051 169.377 210.799 169.116C210.654 168.946 210.549 168.745 210.491 168.528C210.434 168.312 210.425 168.085 210.467 167.865" fill="#755043"/>
<path d="M215.106 161.135C214.726 161.27 215.763 163.7 214.417 166.321C213.071 168.942 210.363 169.773 210.458 170.122C210.458 170.288 211.25 170.351 212.342 169.908C213.779 169.323 214.963 168.249 215.684 166.875C216.371 165.555 216.521 164.02 216.103 162.592C215.794 161.523 215.264 161.048 215.106 161.135Z" fill="#263238"/>
<path d="M203.704 135.086C204.235 135.553 206.214 134.104 208.891 133.019C211.567 131.935 213.966 131.507 214.013 130.802C214.013 130.478 213.372 130.121 212.24 130.011C210.77 129.925 209.3 130.174 207.941 130.739C206.582 131.304 205.369 132.17 204.393 133.273C203.673 134.152 203.467 134.864 203.704 135.086Z" fill="#263238"/>
<path d="M184.117 147.184C184.821 147.477 186.492 146.123 188.804 145.11C191.116 144.096 193.206 143.613 193.428 142.885C193.515 142.544 192.984 142.172 191.923 142.053C190.482 141.953 189.04 142.226 187.735 142.845C186.421 143.425 185.281 144.336 184.425 145.49C183.832 146.384 183.792 147.026 184.117 147.184Z" fill="#263238"/>
<path d="M263.039 149.868C258.708 143.17 244.932 121.642 233.554 112.101C222.176 102.56 212.802 100.755 204.868 101.887C201.825 102.241 198.924 103.375 196.447 105.178C193.97 106.981 192 109.393 190.727 112.18C188.748 116.432 191.242 125.268 191.242 125.268C191.242 125.268 210.039 121.721 220.023 129.029C231.487 137.421 235.517 142.386 235.517 142.386L240.308 147.611C240.308 147.611 251.091 175.719 252.912 181.918L282.374 173.787C276.38 169.583 267.37 156.566 263.039 149.868Z" fill="#263238"/>
<path d="M190.799 125.569C190.799 125.569 180.506 128.736 181.662 141.357C182.169 147.073 187.941 161.982 187.941 161.982C187.941 161.982 180.76 151.214 178.44 144.421C176.12 137.628 175.875 127.929 178.962 121.143C181.939 114.572 185.162 110.708 194.14 107.485C194.14 107.485 190.665 110.652 189.849 114.912C189.445 117.089 189.564 118.713 190.799 125.569Z" fill="#263238"/>
<path d="M235.771 143.313C234.409 139.647 237.291 135.569 241.179 136.029C243.316 136.29 245.478 137.715 246.958 141.571C250.917 151.927 239.69 153.748 239.563 153.447C239.437 153.147 237.362 147.581 235.771 143.313Z" fill="#9E7361"/>
<path d="M241.226 148.325C241.226 148.277 241.456 148.38 241.812 148.404C242.311 148.424 242.799 148.251 243.174 147.921C244.116 147.129 244.377 145.015 243.712 143.17C243.398 142.278 242.89 141.467 242.224 140.795C242.003 140.509 241.716 140.281 241.388 140.129C241.06 139.977 240.7 139.907 240.34 139.924C240.112 139.95 239.9 140.055 239.74 140.219C239.579 140.384 239.481 140.598 239.461 140.827C239.461 141.167 239.579 141.349 239.532 141.389C239.484 141.428 239.247 141.302 239.168 140.843C239.129 140.568 239.185 140.289 239.326 140.051C239.528 139.728 239.85 139.497 240.221 139.409C240.678 139.333 241.146 139.374 241.583 139.529C242.019 139.685 242.409 139.949 242.715 140.296C243.501 141.024 244.094 141.935 244.441 142.949C245.169 145.055 244.845 147.414 243.514 148.42C243.267 148.605 242.982 148.733 242.68 148.795C242.377 148.857 242.065 148.85 241.765 148.776C241.345 148.57 241.203 148.356 241.226 148.325Z" fill="#755043"/>
<path d="M200.522 102.996C200.522 103.067 199.136 103.629 197.054 104.873C194.31 106.47 192.269 109.042 191.337 112.078C190.329 115.077 190.025 118.269 190.451 121.405C190.783 123.78 191.314 125.237 191.242 125.26C191.075 124.947 190.945 124.614 190.854 124.271C190.559 123.347 190.334 122.402 190.181 121.444C189.662 118.26 189.934 114.997 190.973 111.943C191.923 108.821 194.057 106.195 196.919 104.627C197.76 104.149 198.63 103.723 199.524 103.352C199.843 103.2 200.178 103.08 200.522 102.996Z" fill="#455A64"/>
<path d="M248.344 146.598C248.317 146.543 248.299 146.484 248.289 146.424L248.17 145.909C248.122 145.671 248.059 145.394 247.996 145.078C247.932 144.761 247.806 144.365 247.695 143.945C245.984 137.992 242.252 132.821 237.141 129.322C233.362 126.879 229.08 125.323 224.615 124.769C222.309 124.444 219.984 124.264 217.655 124.23C215.399 124.175 213.222 124.31 211.131 124.23C207.438 124.12 203.759 123.725 200.126 123.051C197.022 122.481 194.544 121.887 192.842 121.467C191.994 121.238 191.337 121.056 190.894 120.921L190.387 120.77C190.276 120.77 190.213 120.707 190.221 120.699H190.395L190.91 120.818L192.881 121.285C194.591 121.689 197.078 122.243 200.173 122.774C203.794 123.406 207.457 123.771 211.131 123.866C213.198 123.866 215.391 123.755 217.663 123.803C220.008 123.834 222.349 124.013 224.67 124.341C229.191 124.906 233.523 126.493 237.339 128.981C240.402 131.094 242.984 133.83 244.916 137.01C246.22 139.139 247.202 141.449 247.83 143.866C247.932 144.294 248.02 144.658 248.099 145.006L248.241 145.854C248.241 146.067 248.297 146.241 248.32 146.376C248.341 146.448 248.349 146.523 248.344 146.598Z" fill="#455A64"/>
<path d="M249.049 141.729C249.017 141.68 248.99 141.627 248.97 141.571L248.764 141.08C248.582 140.653 248.36 140.003 247.972 139.196C245.481 133.521 241.769 128.466 237.101 124.39C233.695 121.424 229.828 119.033 225.652 117.311C221.444 115.655 217.026 114.589 212.525 114.144C208.384 113.669 204.607 113.543 201.44 113.392C198.273 113.242 195.732 113.115 193.966 112.973C193.087 112.909 192.382 112.83 191.939 112.783L191.416 112.719H191.234C191.294 112.706 191.357 112.706 191.416 112.719H191.947L193.974 112.83C195.739 112.933 198.297 113.028 201.448 113.123C204.599 113.218 208.376 113.345 212.533 113.796C217.07 114.214 221.526 115.267 225.771 116.923C229.989 118.66 233.89 121.084 237.315 124.097C240.096 126.563 242.54 129.385 244.583 132.489C245.955 134.584 247.127 136.803 248.083 139.117C248.423 139.908 248.621 140.589 248.78 141.025C248.851 141.231 248.906 141.397 248.946 141.531C248.995 141.589 249.03 141.656 249.049 141.729Z" fill="#455A64"/>
<path d="M298.352 177.263L321.559 204.057L290.039 227.018C290.039 227.018 265.803 203.922 265.803 188.791C265.803 176.179 271.084 164.944 284.718 168.681C289.996 170.164 294.732 173.145 298.352 177.263Z" fill="#455A64"/>
<path d="M274.464 168.483L250.608 177.193C250.608 177.193 249.247 206.654 241.986 207.739C240.743 207.921 239.54 208.531 238.312 208.689C231.313 209.544 227.339 202.49 222.018 197.866L213.475 204.2C213.475 204.2 203.752 211.326 200.379 222.078C197.909 229.995 209.69 268 209.69 268L243.451 269.203C243.451 269.203 257.204 283.606 262.841 285.157C270.806 287.351 319.191 278.934 324.86 277.501C333.522 275.324 338.28 270.953 338.28 270.953L274.464 168.483Z" fill="#455A64"/>
<path d="M259.009 283.13C258.875 283.07 258.748 282.996 258.629 282.908L257.592 282.211C256.682 281.61 255.407 280.668 253.871 279.464C249.901 276.278 246.243 272.723 242.945 268.847C239.662 264.967 236.624 260.887 233.847 256.63C232.77 254.999 231.923 253.668 231.353 252.742L230.704 251.665C230.619 251.545 230.55 251.415 230.498 251.277C230.498 251.277 230.601 251.388 230.775 251.626L231.488 252.655C232.137 253.605 233.016 254.888 234.085 256.463C236.928 260.663 239.991 264.709 243.261 268.585C246.55 272.438 250.163 276 254.061 279.234C255.565 280.462 256.8 281.444 257.679 282.077L258.677 282.869C258.899 283.027 259.009 283.114 259.009 283.13Z" fill="#263238"/>
<path d="M326.309 283.375C330.189 281.444 342.311 276.091 342.311 276.091L336.57 268.118L332.121 270.359C325.244 273.811 317.83 276.068 310.197 277.033L259.524 283.423C259.524 283.423 249.856 321.245 246.507 332.963L352.089 332.853L326.309 283.375Z" fill="#E0E0E0"/>
<path d="M244.077 152.988C242.066 155.664 243.214 159.52 244.869 162.442C246.524 165.364 248.653 168.333 248.416 171.674C248.155 175.348 245.075 178.277 244.457 181.903C243.919 184.991 245.249 188.063 245.795 191.143C246.341 194.223 245.795 198.047 242.984 199.401C251.844 202.037 261.271 202.086 270.158 199.544L271.322 185.205L275.66 192.917C277.925 192.505 279.619 190.454 280.237 188.245C280.732 185.99 280.691 183.65 280.118 181.413C278.742 174.621 275.899 168.211 271.789 162.632" fill="#263238"/>
<path d="M305.28 304.99C303.546 303.066 300.11 305.259 297.846 304.008C297.135 303.52 296.521 302.905 296.032 302.195C295.789 301.838 295.476 301.534 295.111 301.303C294.746 301.071 294.337 300.917 293.911 300.849C293.245 300.849 292.652 301.601 292.446 302.496C292.205 301.856 291.807 301.287 291.288 300.841C290.769 300.395 290.146 300.088 289.477 299.947C288.78 299.937 288.093 300.115 287.487 300.46C286.882 300.805 286.38 301.306 286.032 301.91C285.351 303.124 284.807 304.409 284.409 305.742C283.998 307.085 283.165 308.259 282.034 309.092C280.759 309.883 279.168 309.883 277.711 310.255C276.254 310.628 274.726 311.752 274.869 313.248C275.003 314.618 276.452 315.441 277.774 315.814C279.097 316.186 280.577 316.392 281.504 317.397C283.182 319.226 282.351 322.884 284.615 323.882C285.945 324.468 287.458 323.612 288.574 322.662C289.69 321.712 290.775 320.564 292.224 320.437C294.599 320.224 296.254 322.749 298.558 323.367C299.275 323.561 300.031 323.557 300.745 323.354C301.459 323.151 302.104 322.757 302.612 322.215C303.119 321.673 303.469 321.003 303.624 320.277C303.778 319.55 303.733 318.796 303.491 318.094C303.095 316.954 302.208 315.996 302.042 314.8C301.789 312.963 303.277 311.419 304.417 309.986C305.557 308.553 306.515 306.368 305.28 304.99Z" fill="#068EFF"/>
<g opacity="0.2">
<path d="M281.97 242.046C263.847 238.142 244.94 237.295 226.753 240.913L230.664 246.741C232.343 249.235 235.415 250.446 238.4 250.866C241.385 251.285 244.425 251.064 247.41 251.428C259.073 252.869 267.655 262.663 277.877 268.451C295.462 278.411 319.437 275.363 333.965 261.325C317.449 252.861 300.078 245.949 281.97 242.046Z" fill="black"/>
</g>
<path d="M316.737 207.738C316.737 207.738 328.265 230.026 332.976 241.705C337.687 253.383 334.353 256.075 333.459 260.565C332.564 265.054 322.421 267.619 322.421 267.619C322.421 267.619 294.631 267.619 275.581 255.616C261.487 246.748 245.565 246.448 245.565 246.448L241.986 230.85L299.563 233.573L294.686 223.122L316.737 207.738Z" fill="#9E7361"/>
<path d="M299.563 233.573C299.887 233.491 300.219 233.443 300.553 233.431C301.195 233.351 302.137 233.288 303.285 233.233C306.308 233.05 309.342 233.317 312.287 234.024C313.9 234.443 315.474 235.002 316.99 235.695C318.4 236.305 319.627 236.938 320.648 237.476C321.669 238.015 322.485 238.474 323.023 238.807C323.321 238.96 323.602 239.143 323.863 239.353C323.543 239.25 323.236 239.115 322.944 238.949L320.498 237.738C319.46 237.231 318.225 236.629 316.824 236.043C315.317 235.382 313.76 234.839 312.168 234.42C309.257 233.731 306.268 233.425 303.277 233.51L300.553 233.581C300.224 233.615 299.892 233.612 299.563 233.573Z" fill="#755043"/>
<path d="M243.277 230.945C243.277 230.945 218.131 228.697 215.209 229.821C212.288 230.945 210.72 231.405 208.258 230.724C205.795 230.043 201.068 229.322 201.068 229.322C201.068 229.322 199.825 233.479 204.988 236.171L198.598 240.922L194.338 251.602C194.861 252.101 195.539 252.406 196.259 252.467C196.979 252.527 197.698 252.34 198.297 251.935C200.767 250.589 204.362 243.431 204.362 243.431L211.361 240.922L209.778 250.035C209.778 250.035 215.391 258.562 217.41 258.792C219.429 259.021 227.965 258.119 227.965 256.765C227.965 256.765 232.675 254.746 232.675 252.054C232.675 249.362 232.003 248.237 232.003 248.237L230.657 246.654L232.675 245.53L241.654 247.549C241.654 247.549 245.47 247.097 247.046 245.965L243.277 230.945Z" fill="#9E7361"/>
<path d="M213.958 236.447C213.842 236.103 213.823 235.733 213.903 235.379C214.01 234.508 214.304 233.672 214.764 232.926C215.225 232.179 215.841 231.542 216.571 231.056C216.856 230.825 217.198 230.675 217.561 230.62C216.577 231.276 215.746 232.136 215.125 233.141C214.503 234.147 214.105 235.275 213.958 236.447Z" fill="#755043"/>
<path d="M219.508 238.324C219.407 238.02 219.368 237.699 219.393 237.379C219.417 237.06 219.505 236.749 219.65 236.463C220.03 235.474 220.711 234.88 220.783 234.991C220.854 235.102 220.379 235.703 220.038 236.614C219.698 237.524 219.627 238.324 219.508 238.324Z" fill="#755043"/>
<path d="M222.018 258.197C221.744 258.17 221.476 258.098 221.226 257.983C220.547 257.746 219.883 257.465 219.239 257.144C218.263 256.673 217.385 256.023 216.65 255.228C215.762 254.201 215.263 252.895 215.24 251.538C215.217 250.212 215.442 248.893 215.906 247.651C216.301 246.51 216.753 245.529 217.101 244.697C217.822 243.043 218.115 241.966 218.17 241.974C218.169 242.243 218.126 242.51 218.043 242.765C217.856 243.458 217.631 244.14 217.37 244.808C217.054 245.663 216.634 246.653 216.262 247.777C215.842 248.983 215.635 250.253 215.652 251.53C215.686 252.787 216.15 253.994 216.966 254.951C217.659 255.727 218.485 256.374 219.405 256.859C221.004 257.738 222.042 258.118 222.018 258.197Z" fill="#755043"/>
<path d="M224.916 242.457C224.957 242.677 224.957 242.902 224.916 243.122C224.846 243.727 224.719 244.323 224.536 244.904C224.314 245.632 223.99 246.487 223.641 247.421C223.248 248.419 222.982 249.461 222.85 250.525C222.705 251.573 222.884 252.639 223.364 253.581C223.793 254.331 224.396 254.967 225.122 255.434C226.373 256.226 227.291 256.535 227.26 256.606C227.036 256.59 226.816 256.537 226.61 256.448C226.033 256.247 225.481 255.981 224.964 255.656C224.061 255.154 223.334 254.386 222.882 253.457C222.43 252.528 222.275 251.482 222.438 250.462C222.575 249.373 222.857 248.308 223.277 247.295C223.649 246.353 223.998 245.529 224.251 244.817C224.774 243.391 224.845 242.449 224.916 242.457Z" fill="#755043"/>
<path d="M228.36 253.368C228.258 253.297 229.231 251.951 229.881 250.035C230.53 248.119 230.601 246.472 230.728 246.472C230.832 247.723 230.674 248.982 230.265 250.169C229.856 251.357 229.205 252.446 228.353 253.368H228.36Z" fill="#755043"/>
<path d="M225.676 239.789C225.621 239.789 225.581 239.544 225.676 239.18C225.845 238.71 226.158 238.305 226.571 238.024C226.979 237.733 227.471 237.586 227.972 237.604C228.352 237.604 228.558 237.747 228.55 237.794C227.934 237.863 227.339 238.057 226.8 238.364C225.969 238.934 225.755 239.813 225.676 239.789Z" fill="#755043"/>
<path d="M194.314 251.365C194.419 251.513 194.572 251.62 194.746 251.669C194.92 251.718 195.106 251.706 195.272 251.634C195.599 251.472 195.892 251.249 196.135 250.977C196.382 250.705 196.721 250.536 197.086 250.502C197.45 250.502 197.822 250.858 197.711 251.207C197.948 250.958 198.25 250.779 198.582 250.692C198.667 250.671 198.755 250.667 198.841 250.681C198.928 250.695 199.01 250.726 199.084 250.773C199.158 250.819 199.222 250.88 199.272 250.952C199.321 251.024 199.356 251.105 199.374 251.191C199.374 251.507 199.105 251.745 198.835 251.903C198.131 252.37 197.305 252.618 196.46 252.616C196.031 252.605 195.613 252.477 195.25 252.247C194.888 252.017 194.595 251.693 194.402 251.31" fill="#068EFF"/>
<path d="M210.205 233.122C209.273 233.879 208.262 234.532 207.188 235.07C206.18 235.722 205.098 236.253 203.966 236.653C204.895 235.893 205.907 235.24 206.982 234.706C207.99 234.051 209.071 233.519 210.205 233.122Z" fill="#755043"/>
<path d="M262.802 249.647C263.554 249.94 263.325 248.063 262.802 247.454C262.255 246.855 261.582 246.387 260.831 246.084C260.074 245.787 259.423 245.272 258.962 244.603C258.241 243.344 258.74 241.397 257.513 240.644C256.531 240.035 255.28 240.739 254.409 241.492C253.538 242.244 252.501 243.123 251.385 242.838C250.712 242.671 250.205 242.101 249.54 241.88C248.963 241.755 248.361 241.831 247.834 242.096C247.306 242.361 246.886 242.799 246.642 243.336C246.178 244.427 245.991 245.616 246.096 246.796C246.096 246.796 257.141 247.454 262.802 249.647Z" fill="#068EFF"/>
<path d="M313.744 292.274C313.679 292.449 313.603 292.618 313.514 292.781C313.348 293.098 313.126 293.573 312.785 294.183C311.845 295.879 310.809 297.521 309.682 299.099C305.932 304.298 301.494 308.964 296.491 312.971C291.496 316.967 286.202 320.575 280.656 323.763C278.542 325.006 276.808 325.964 275.604 326.621L274.203 327.357C274.044 327.451 273.877 327.53 273.704 327.595C273.845 327.475 273.999 327.371 274.163 327.286L275.525 326.494L280.505 323.533C285.988 320.273 291.24 316.638 296.222 312.654C301.193 308.66 305.636 304.049 309.444 298.933C310.877 296.954 311.938 295.283 312.611 294.103C312.976 293.517 313.221 293.05 313.403 292.742C313.501 292.575 313.615 292.419 313.744 292.274Z" fill="#263238"/>
<path d="M366 332.964C366 333.075 284.061 333.17 183.008 333.17C81.9553 333.17 0 333.075 0 332.964C0 332.853 81.9157 332.758 183.008 332.758C284.1 332.758 366 332.845 366 332.964Z" fill="#263238"/>
<path d="M192.802 76.172L205.517 67.7793C213.362 71.9174 222.471 72.9713 231.054 70.734C239.636 68.4968 247.072 63.1301 251.898 55.6889C256.724 48.2478 258.593 39.2704 257.136 30.5215C255.679 21.7726 251.003 13.885 244.026 8.4092C237.048 2.93342 228.275 0.265534 219.431 0.929964C210.586 1.59439 202.31 5.54308 196.23 11.9998C190.149 18.4566 186.703 26.9543 186.57 35.8227C186.437 44.691 189.625 53.2885 195.509 59.9251L192.802 76.172Z" fill="white"/>
<path d="M192.802 76.1709C192.921 75.4424 193.744 70.2722 195.391 59.9001C195.393 59.8866 195.397 59.8735 195.404 59.8617C195.412 59.8499 195.421 59.8397 195.432 59.8316C195.443 59.8235 195.456 59.8176 195.469 59.8145C195.482 59.8113 195.496 59.8108 195.51 59.813H195.549L195.415 59.9714C193.525 57.8413 191.891 55.4976 190.545 52.9881C188.956 50.001 187.805 46.8013 187.125 43.4869C186.744 41.6623 186.524 39.8077 186.468 37.9446C186.468 36.9786 186.412 35.9968 186.428 34.9992C186.444 34.0016 186.594 33.004 186.681 31.9826C187.823 22.9674 192.352 14.7243 199.35 8.92649C203.227 5.70751 207.749 3.35607 212.612 2.03024C217.756 0.661601 223.138 0.442637 228.376 1.38891C233.843 2.36541 239 4.62885 243.419 7.99221L245.106 9.33029C245.676 9.76576 246.151 10.3042 246.689 10.7871C247.228 11.2701 247.75 11.7452 248.201 12.2994L249.579 13.8829C250.044 14.4125 250.473 14.9733 250.862 15.5615L252.073 17.2875L253.11 19.1006C253.474 19.6943 253.799 20.3105 254.084 20.9454C256.411 25.8455 257.607 31.2058 257.584 36.6302C257.581 41.7607 256.446 46.8272 254.258 51.4679C250.327 59.8181 243.337 66.3379 234.734 69.6784C231.073 71.0266 227.228 71.8063 223.332 71.9903C219.949 72.1227 216.565 71.7653 213.285 70.9294C210.558 70.2268 207.922 69.2091 205.43 67.8969H205.533L192.762 76.2104L205.43 67.7307C205.446 67.7229 205.464 67.7189 205.482 67.7189C205.5 67.7189 205.517 67.7229 205.533 67.7307C208.015 69.0242 210.641 70.0207 213.356 70.6998C216.615 71.519 219.975 71.8604 223.332 71.7132C227.195 71.5197 231.006 70.7346 234.631 69.3854C243.136 66.0674 250.042 59.6112 253.926 51.3491C256.078 46.7546 257.194 41.7434 257.196 36.6698C257.215 31.3044 256.027 26.0032 253.72 21.1592C253.439 20.533 253.119 19.9248 252.762 19.3382L251.733 17.5409L250.569 15.8386C250.185 15.2557 249.762 14.7002 249.302 14.1759L247.932 12.5924C247.489 12.046 246.943 11.6026 246.444 11.0959C245.945 10.5892 245.454 10.0904 244.86 9.66283L243.197 8.34058C238.826 5.01102 233.723 2.77177 228.312 1.80855C223.136 0.865457 217.815 1.07906 212.73 2.43404C207.931 3.72966 203.464 6.03491 199.627 9.19569C192.674 14.9168 188.159 23.0695 186.998 31.9984C186.911 33.0119 186.832 34.0095 186.745 34.9913C186.658 35.9731 186.745 36.947 186.745 37.905C186.797 39.7676 187.012 41.622 187.386 43.4473C188.047 46.7429 189.178 49.9266 190.743 52.901C192.069 55.4 193.682 57.7356 195.549 59.8605C195.568 59.8797 195.578 59.9053 195.578 59.9318C195.578 59.9584 195.568 59.9839 195.549 60.0031C195.531 60.016 195.509 60.0229 195.486 60.0229C195.463 60.0229 195.441 60.016 195.423 60.0031L195.581 59.9318L192.802 76.1709Z" fill="#263238"/>
<path d="M233.324 32.6715C233.325 30.5362 232.752 28.44 231.665 26.6018C230.579 24.7636 229.019 23.2509 227.148 22.2217C225.277 21.1925 223.164 20.6845 221.03 20.7509C218.896 20.8172 216.819 21.4554 215.015 22.5989C213.212 23.7423 211.749 25.349 210.779 27.2511C209.808 29.1532 209.367 31.281 209.5 33.4121C209.633 35.5432 210.336 37.5995 211.535 39.3661C212.734 41.1328 214.386 42.545 216.317 43.4553V46.464H226.769C226.769 46.464 226.832 44.7775 226.856 43.2969C228.811 42.297 230.451 40.7746 231.593 38.8988C232.734 37.0231 233.334 34.8675 233.324 32.6715Z" fill="#068EFF"/>
<path d="M222.992 46.409C222.992 46.409 222.992 46.3615 222.992 46.2665C222.992 46.1715 222.992 46.0211 223.039 45.839C223.087 45.4589 223.158 44.8968 223.261 44.1842C223.364 43.4716 223.506 42.6007 223.736 41.5951C223.984 40.4552 224.347 39.3436 224.821 38.2776C225.088 37.6542 225.414 37.0577 225.795 36.4962C225.996 36.1908 226.267 35.9383 226.586 35.7598C226.761 35.6683 226.955 35.6204 227.152 35.6204C227.35 35.6204 227.544 35.6683 227.719 35.7598C227.902 35.8594 228.038 36.0273 228.099 36.227C228.158 36.4318 228.141 36.6513 228.051 36.8445C227.847 37.2105 227.518 37.4913 227.125 37.6363C226.308 37.9074 225.417 37.8448 224.647 37.4621C224.246 37.2609 223.891 36.9802 223.602 36.6372C223.313 36.2942 223.098 35.896 222.968 35.4669C222.818 35.0258 222.793 34.5515 222.897 34.0971C222.96 33.861 223.102 33.6537 223.299 33.5096C223.497 33.3656 223.737 33.2935 223.981 33.3054C224.108 33.3216 224.229 33.3682 224.334 33.4413C224.439 33.5144 224.524 33.6117 224.583 33.725C224.699 33.9519 224.736 34.2113 224.686 34.4613C224.537 34.9352 224.244 35.3506 223.847 35.649C223.465 35.9686 223.02 36.2043 222.542 36.3407C222.063 36.4771 221.561 36.5112 221.068 36.4407C220.572 36.3619 220.104 36.1645 219.701 35.8653C219.298 35.5662 218.974 35.1741 218.756 34.7226C218.645 34.5005 218.581 34.2581 218.567 34.0103C218.554 33.7625 218.591 33.5145 218.677 33.2816C218.723 33.1621 218.793 33.0533 218.883 32.9621C218.973 32.8708 219.08 32.799 219.199 32.7511C219.32 32.7113 219.448 32.6971 219.575 32.7093C219.702 32.7216 219.824 32.7601 219.936 32.8224C220.155 32.9397 220.332 33.1223 220.442 33.345C220.546 33.561 220.608 33.7947 220.624 34.0338C220.652 34.4952 220.59 34.9576 220.442 35.3956C220.154 36.251 219.551 36.9646 218.756 37.3909C218.002 37.7942 217.129 37.915 216.293 37.7313C215.881 37.6652 215.503 37.4648 215.217 37.1613C215.078 37.005 214.997 36.8066 214.985 36.5982C214.974 36.3899 215.033 36.1837 215.153 36.0132C215.292 35.859 215.485 35.7652 215.692 35.7519C215.886 35.7362 216.08 35.7746 216.254 35.8628C216.575 36.044 216.833 36.3207 216.99 36.6545C217.283 37.3038 217.529 37.9293 217.782 38.531C218.732 40.9063 219.405 42.9174 219.864 44.2871C220.086 44.9759 220.252 45.5064 220.363 45.8706L220.49 46.2903C220.507 46.3364 220.521 46.3842 220.529 46.4328C220.508 46.3865 220.489 46.3389 220.474 46.2903L220.339 45.8786C220.213 45.5143 220.038 44.9839 219.809 44.295C219.334 42.9332 218.645 40.9617 217.679 38.5627C217.434 37.9688 217.188 37.3354 216.887 36.702C216.752 36.3712 216.513 36.0933 216.206 35.9103C216.055 35.8227 215.879 35.7876 215.706 35.8105C215.532 35.8334 215.372 35.913 215.248 36.037C215.145 36.1845 215.094 36.363 215.106 36.5429C215.117 36.7229 215.19 36.8936 215.312 37.0267C215.582 37.3047 215.934 37.488 216.317 37.5492C217.123 37.7244 217.965 37.6065 218.692 37.2167C219.445 36.7997 220.012 36.1119 220.276 35.2927C220.421 34.8733 220.48 34.429 220.45 33.9863C220.45 33.7674 220.393 33.5523 220.287 33.3611C220.18 33.17 220.026 33.0091 219.841 32.8937C219.747 32.842 219.644 32.8098 219.538 32.7989C219.432 32.788 219.325 32.7987 219.223 32.8303C219.122 32.871 219.03 32.9321 218.954 33.0098C218.878 33.0874 218.818 33.18 218.78 33.2816C218.7 33.4968 218.666 33.7261 218.68 33.955C218.694 34.1839 218.755 34.4075 218.859 34.6118C219.067 35.0408 219.376 35.4132 219.759 35.6971C220.143 35.9811 220.589 36.1683 221.06 36.2428C221.534 36.3051 222.016 36.2668 222.474 36.1303C222.933 35.9939 223.357 35.7625 223.72 35.451C224.092 35.1755 224.369 34.7908 224.512 34.3505C224.559 34.1357 224.528 33.9112 224.425 33.7171C224.379 33.6224 224.31 33.5409 224.224 33.48C224.138 33.4191 224.038 33.3808 223.934 33.3687C223.827 33.3585 223.72 33.3701 223.618 33.4028C223.515 33.4355 223.421 33.4885 223.34 33.5587C223.175 33.6994 223.056 33.8872 223 34.0971C222.9 34.5253 222.925 34.973 223.071 35.3877C223.319 36.1896 223.875 36.8602 224.618 37.2522C225.36 37.6441 226.228 37.7253 227.03 37.478C227.391 37.3462 227.692 37.0872 227.877 36.7495C227.958 36.5898 227.976 36.4052 227.926 36.2331C227.876 36.061 227.762 35.9144 227.608 35.8232C227.449 35.7432 227.274 35.7015 227.097 35.7015C226.92 35.7015 226.745 35.7432 226.586 35.8232C226.268 35.9851 225.996 36.2247 225.795 36.5199C225.464 37.093 225.186 37.6945 224.963 38.3172C224.489 39.3763 224.12 40.4795 223.863 41.611C223.625 42.6086 223.483 43.4795 223.364 44.1921C223.245 44.9047 223.174 45.4589 223.118 45.839C223.118 46.0211 223.071 46.1636 223.055 46.2665L222.992 46.409Z" fill="#263238"/>
<path d="M225.961 48.3968H216.99C216.811 48.3968 216.64 48.3259 216.514 48.1997C216.388 48.0734 216.317 47.9023 216.317 47.7238C216.317 47.5453 216.388 47.3741 216.514 47.2479C216.64 47.1217 216.811 47.0508 216.99 47.0508H225.961C226.049 47.0508 226.136 47.0682 226.218 47.102C226.3 47.1358 226.374 47.1854 226.436 47.2479C226.499 47.3104 226.549 47.3846 226.582 47.4662C226.616 47.5479 226.634 47.6354 226.634 47.7238C226.634 47.8122 226.616 47.8997 226.582 47.9813C226.549 48.063 226.499 48.1372 226.436 48.1997C226.374 48.2622 226.3 48.3117 226.218 48.3455C226.136 48.3794 226.049 48.3968 225.961 48.3968Z" fill="#263238"/>
<path d="M225.961 48.9814H216.99C216.811 48.9814 216.64 49.0524 216.514 49.1786C216.388 49.3048 216.317 49.476 216.317 49.6544C216.317 49.8329 216.388 50.0041 216.514 50.1303C216.64 50.2565 216.811 50.3274 216.99 50.3274H217.98L219.286 52.8136C219.361 52.9581 219.474 53.0787 219.615 53.1613C219.755 53.244 219.915 53.2854 220.078 53.2807H223.245C223.408 53.2856 223.57 53.2434 223.71 53.1592C223.851 53.075 223.964 52.9523 224.037 52.8057L225.311 50.3274H225.976C226.155 50.3274 226.326 50.2565 226.452 50.1303C226.578 50.0041 226.649 49.8329 226.649 49.6544C226.649 49.476 226.578 49.3048 226.452 49.1786C226.326 49.0524 226.155 48.9814 225.976 48.9814H225.961Z" fill="#263238"/>
<g opacity="0.2">
<path d="M213.744 25.0701C214.444 24.4165 215.246 23.8816 216.119 23.4866C216.702 23.2201 217.321 23.0413 217.956 22.9561C218.407 22.9086 218.669 22.9561 218.692 23.0511C218.74 23.2649 217.837 23.5816 216.618 24.3971C215.049 25.4288 213.788 26.865 212.968 28.5539C212.21 30.2713 211.936 32.1632 212.176 34.025C212.335 35.4818 212.675 36.4003 212.477 36.4794C212.279 36.5586 212.192 36.3528 211.939 35.9806C211.584 35.4426 211.317 34.8521 211.147 34.2308C210.884 33.3074 210.775 32.3472 210.822 31.3884C210.876 30.1952 211.159 29.0234 211.654 27.9363" fill="white"/>
</g>
<g opacity="0.2">
<path d="M221.566 23.5586C220.775 23.5586 220.141 23.3448 220.062 22.941C220.062 22.743 220.173 22.5293 220.442 22.363C220.789 22.1747 221.18 22.0819 221.574 22.0938C221.968 22.0866 222.356 22.185 222.699 22.3788C222.968 22.5451 223.102 22.7589 223.071 22.9568" fill="white"/>
</g>
<path d="M223.855 53.0516C223.648 52.9991 223.445 52.9356 223.245 52.8615C222.249 52.5782 221.191 52.6086 220.213 52.9486C220.015 53.0383 219.811 53.115 219.603 53.1782C219.771 53.0357 219.965 52.9256 220.173 52.8536C220.663 52.6516 221.187 52.5416 221.717 52.529C222.255 52.5068 222.793 52.5874 223.301 52.7665C223.5 52.8298 223.687 52.9262 223.855 53.0516Z" fill="#455A64"/>
<path d="M225.312 50.3593C225.312 50.3989 223.688 50.4385 221.693 50.4306C219.698 50.4227 218.067 50.4306 218.067 50.3593C218.067 50.2881 219.65 50.2881 221.693 50.2881C223.736 50.2881 225.312 50.3198 225.312 50.3593Z" fill="#455A64"/>
<path d="M224.75 51.4688C224.46 51.5219 224.166 51.551 223.871 51.5558C223.325 51.5558 222.564 51.6192 221.733 51.635C220.902 51.6509 220.15 51.635 219.587 51.635C219.29 51.6391 218.993 51.6152 218.701 51.5638C218.996 51.5414 219.292 51.5414 219.587 51.5638H221.725H223.863C224.155 51.5057 224.452 51.4739 224.75 51.4688Z" fill="#455A64"/>
<path d="M160.665 174.057C162.248 184.421 157.228 245.624 157.228 245.624L172.272 262.172L144.774 287.968L130.253 263.66L137.917 194.065L147.133 153.526C147.133 153.526 159.2 164.587 160.665 174.057Z" fill="#455A64"/>
<path d="M65.5265 124.556L85.9698 124.437H92.9215L97.6166 121.888L134.457 138.451V144.105L144.101 149.299L152.494 160.906L142.517 203.716L108.891 281.309L62.5099 252.18C62.5099 252.18 47.6802 183.946 47.6802 183.202C47.6802 182.458 65.5265 124.556 65.5265 124.556Z" fill="#455A64"/>
<path d="M74.9171 123.186C74.9171 123.186 71.0216 174.128 66.9044 180.842C62.7873 187.556 61.4809 189.725 61.4809 189.725L33.1199 214.27L29.7154 258.363C29.7154 258.363 30.3804 264.428 29.4462 269.084C29.1295 270.667 24.6006 276.716 24.2047 278.703C20.4122 297.785 14.0464 332.955 14.0464 332.955H136.603L130.269 271.776C128.393 269.931 142.985 201.206 142.985 201.206V148.332L138.234 145.078L134.703 201.214C134.703 201.214 127.767 204.674 116.714 201.427C105.661 198.181 80.2931 182.568 80.2931 182.568C80.2931 182.568 84.8378 138.791 85.7088 128.823L85.9226 124.437L74.9171 123.186Z" fill="#E0E0E0"/>
<path d="M74.9166 123.186L86.0013 124.389H86.0488V124.437C85.9696 125.862 85.9221 127.414 85.8112 129.1C85.7004 130.787 85.4629 132.6 85.2729 134.54C84.8849 138.419 84.4811 142.814 83.9664 147.691C82.9926 157.453 81.8208 169.156 80.4827 182.584L80.4273 182.465C87.656 186.844 95.6449 191.507 104.505 195.996C105.613 196.551 106.73 197.113 107.878 197.643C109.026 198.174 110.174 198.712 111.346 199.227C113.716 200.3 116.177 201.159 118.701 201.792C121.308 202.419 123.985 202.709 126.666 202.655C128.032 202.636 129.394 202.498 130.736 202.243C132.097 202.016 133.427 201.625 134.695 201.079L134.608 201.206C135.653 184.199 136.817 165.244 138.052 145.078V144.761L138.313 144.936L143.064 148.19L143.143 148.245V148.34C143.143 165.149 143.143 182.845 143.143 201.214V201.262C140.799 212.399 138.461 223.861 136.128 235.648C134.98 241.538 133.84 247.524 132.755 253.51C132.216 256.527 131.694 259.559 131.219 262.607C130.981 264.127 130.76 265.663 130.57 267.199C130.482 267.991 130.387 268.736 130.332 269.504C130.332 269.891 130.285 270.295 130.277 270.659C130.277 270.842 130.277 271.04 130.277 271.222C130.281 271.31 130.295 271.397 130.316 271.483V271.594C130.32 271.603 130.322 271.612 130.322 271.621C130.322 271.631 130.32 271.64 130.316 271.649L130.38 271.776C131.963 287.033 133.634 303.106 135.328 319.424C135.793 323.958 136.26 328.466 136.729 332.947V333.177H136.5H13.943H13.7134V332.955C16.2629 319.374 18.7226 306.265 21.0926 293.629C21.6891 290.461 22.275 287.339 22.8503 284.262C23.1459 282.71 23.4336 281.171 23.7133 279.646C23.8004 279.258 23.84 278.854 23.9509 278.49C24.0704 278.111 24.2213 277.743 24.4022 277.389C24.7585 276.693 25.1464 276.02 25.5423 275.355L27.9176 271.451C28.3117 270.813 28.6635 270.149 28.9706 269.464C29.1764 268.753 29.3116 268.024 29.3744 267.287C29.6714 264.338 29.6714 261.367 29.3744 258.419C30.6096 242.52 31.7497 227.857 32.7948 214.326V214.262L32.8424 214.223L61.2191 189.678L65.36 182.901C66.1359 181.853 66.8194 180.741 67.4028 179.575C67.8257 178.424 68.1748 177.247 68.4479 176.052C69.5485 171.301 70.1898 166.812 70.8232 162.592C71.9871 154.183 72.7313 146.986 73.3252 141.143C73.919 135.3 74.3149 130.803 74.5841 127.77C74.7107 126.258 74.8137 125.11 74.8849 124.334C74.9562 123.558 74.9879 123.162 74.9879 123.162C74.9879 123.162 74.9879 123.558 74.9166 124.334C74.8453 125.11 74.7662 126.258 74.6474 127.778C74.402 130.811 74.0219 135.308 73.4518 141.159C72.8818 147.01 72.1533 154.207 71.0132 162.616C70.4194 166.82 69.7781 171.325 68.6854 176.076C68.414 177.284 68.0649 178.475 67.6403 179.639C67.1132 180.8 66.4936 181.917 65.7876 182.98L61.6546 189.765L33.3095 214.31L33.357 214.207C32.3198 227.746 31.1955 242.409 29.9762 258.308C30.2771 261.283 30.2771 264.28 29.9762 267.255C29.9086 268.021 29.7681 268.78 29.5565 269.519C29.2146 270.231 28.8258 270.918 28.3927 271.578L26.0174 275.489C25.6215 276.146 25.2256 276.811 24.8931 277.492C24.7203 277.828 24.5772 278.177 24.4655 278.538C24.3626 278.886 24.3151 279.29 24.2359 279.67C23.9509 281.198 23.6579 282.734 23.3729 284.278C22.7923 287.376 22.209 290.501 21.6231 293.652C19.2584 306.273 16.8065 319.379 14.2676 332.971L14.0776 332.749H136.634L136.429 332.979C135.969 328.498 135.502 323.987 135.027 319.448C133.333 303.13 131.662 287.057 130.079 271.8L130.142 271.926C130.095 271.862 130.055 271.793 130.023 271.72C129.997 271.674 129.973 271.627 129.952 271.578C129.928 271.474 129.914 271.368 129.912 271.261C129.912 271.055 129.912 270.857 129.912 270.659C129.912 270.264 129.912 269.868 129.976 269.48C130.031 268.688 130.118 267.896 130.213 267.152C130.403 265.616 130.633 264.08 130.863 262.552C131.345 259.496 131.868 256.463 132.406 253.447C133.491 247.421 134.631 241.467 135.787 235.584C138.099 223.808 140.44 212.341 142.81 201.182V201.222C142.81 182.853 142.81 165.157 142.81 148.348L142.889 148.498L138.139 145.244L138.424 145.102C137.165 165.268 135.993 184.223 134.932 201.238V201.333H134.853C133.56 201.891 132.204 202.293 130.815 202.528C129.456 202.775 128.079 202.913 126.698 202.94C123.992 202.995 121.29 202.697 118.661 202.053C116.12 201.42 113.642 200.556 111.258 199.472C110.079 198.957 108.883 198.435 107.775 197.889C106.666 197.342 105.51 196.796 104.402 196.234C95.542 191.729 87.5531 187.057 80.3243 182.663H80.261V182.584C81.6307 169.163 82.8184 157.461 83.816 147.746C84.3148 142.869 84.7582 138.475 85.162 134.595C85.3599 132.647 85.542 130.842 85.7162 129.156C85.8904 127.469 85.8904 125.917 85.9696 124.5L86.0171 124.548L74.9166 123.186Z" fill="#263238"/>
<path d="M129.881 269.504H129.089H126.159C123.618 269.504 119.936 269.504 115.391 269.504C106.294 269.456 93.7289 269.235 79.8493 268.926C65.9697 268.617 53.4123 268.348 44.315 268.221L33.547 268.079L30.6175 268.031H29.8257H29.5645C29.6512 268.021 29.739 268.021 29.8257 268.031H30.6175H33.547C36.0886 268.031 39.7703 268.031 44.315 268.031C53.4123 268.079 65.9776 268.3 79.8572 268.617C93.7368 268.934 106.294 269.195 115.391 269.322L126.159 269.456L129.089 269.504H129.881Z" fill="#263238"/>
<path d="M129.517 262.172H129.255H128.464H125.558C123.04 262.172 119.39 262.172 114.885 262.172C105.867 262.124 93.4122 261.911 79.6593 261.594C65.9064 261.277 53.452 261.024 44.4338 260.897L33.7608 260.762L30.863 260.715H30.0712H29.8179C29.9019 260.703 29.9872 260.703 30.0712 260.715H30.863H33.7608C36.2866 260.715 39.9287 260.715 44.4417 260.715C53.4599 260.762 65.9143 260.984 79.6672 261.293C93.4201 261.602 105.867 261.871 114.885 261.998L125.558 262.132L128.464 262.18H129.255L129.517 262.172Z" fill="#263238"/>
<path d="M134.702 206.361C134.523 206.451 134.334 206.523 134.14 206.575C133.76 206.685 133.214 206.907 132.477 207.081C130.407 207.635 128.284 207.972 126.143 208.087C122.982 208.266 119.81 208.061 116.698 207.477C112.884 206.764 109.165 205.616 105.613 204.057C98.0595 200.715 91.9709 196.313 87.6637 193.115C85.5101 191.531 83.792 190.153 82.6122 189.219C82.058 188.76 81.6067 188.427 81.2662 188.126C81.1013 188.009 80.9499 187.874 80.8149 187.723C80.9891 187.824 81.1558 187.938 81.3137 188.063L82.7152 189.084L87.8379 192.877C92.1846 196.044 98.2733 200.367 105.779 203.677C109.298 205.224 112.979 206.374 116.753 207.105C119.837 207.704 122.981 207.935 126.12 207.794C128.235 207.702 130.337 207.413 132.398 206.931C133.135 206.78 133.689 206.582 134.077 206.495C134.28 206.428 134.49 206.383 134.702 206.361Z" fill="#263238"/>
<path d="M117.236 158.958C117.028 159.13 116.806 159.283 116.571 159.417C116.128 159.71 115.479 160.138 114.671 160.716C112.419 162.314 110.313 164.108 108.377 166.076L108.21 166.242L108.107 166.036C106.152 162.077 103.871 157.018 101.694 151.476C99.3402 145.475 97.2896 139.361 95.55 133.154C94.8928 130.779 94.394 128.831 94.0773 127.485L93.7289 125.902C93.6818 125.722 93.6474 125.54 93.626 125.355C93.7054 125.525 93.7664 125.703 93.8081 125.886C93.911 126.274 94.0535 126.781 94.2356 127.414C94.5998 128.752 95.1382 130.676 95.8192 133.043C97.2285 137.794 99.3108 144.279 102.074 151.294C104.244 156.836 106.492 161.848 108.408 165.854L108.139 165.807C110.106 163.845 112.256 162.077 114.56 160.526C115.392 159.971 116.057 159.568 116.516 159.298C116.745 159.163 116.986 159.049 117.236 158.958Z" fill="#263238"/>
<path d="M133.357 151.896C133.31 152.234 133.225 152.566 133.104 152.885L132.312 155.53C131.591 157.755 130.57 160.819 129.414 164.2L127.91 168.562L127.799 168.903L127.577 168.649C126.096 166.717 124.838 165.063 123.959 163.899L122.945 162.513C122.813 162.355 122.703 162.179 122.621 161.99C122.621 161.99 122.787 162.133 123.048 162.434L124.149 163.756C125.075 164.896 126.374 166.519 127.886 168.428L127.545 168.483L129.026 164.112C130.182 160.732 131.243 157.683 132.035 155.482L132.993 152.877C133.082 152.539 133.204 152.21 133.357 151.896Z" fill="#263238"/>
<path d="M118.313 226.511C117.871 225.73 117.263 225.057 116.53 224.538C115.798 224.019 114.961 223.669 114.078 223.51C112.09 223.051 109.747 223.075 108.416 221.523C107.569 220.541 107.387 219.148 106.762 218.016C106.337 217.243 105.717 216.596 104.964 216.138C104.212 215.679 103.352 215.426 102.471 215.404C101.59 215.382 100.718 215.59 99.9427 216.01C99.1675 216.429 98.5157 217.044 98.0523 217.794C97.8452 218.245 97.5552 218.653 97.1972 218.997C96.8075 219.223 96.365 219.342 95.9145 219.342C95.464 219.342 95.0216 219.223 94.6319 218.997C93.8549 218.533 92.9837 218.249 92.0824 218.166C91.7493 218.184 91.4293 218.301 91.1639 218.503C90.8984 218.705 90.6998 218.982 90.5939 219.298C88.4878 222.022 89.8655 227.255 93.1117 228.396C94.6239 228.926 96.3896 228.807 97.6802 229.742C99.9763 231.396 99.2637 234.975 100.459 237.548C100.935 238.555 101.703 239.395 102.662 239.959C103.622 240.523 104.73 240.785 105.84 240.71C106.951 240.636 108.014 240.229 108.89 239.542C109.766 238.855 110.415 237.92 110.752 236.86C111.275 235.118 111.101 232.901 112.637 231.903C113.872 231.111 115.55 231.681 116.896 231.111C118.543 230.407 119.089 228.126 118.313 226.511Z" fill="#068EFF"/>
<path d="M162.842 78.6021C164.124 71.0232 162.506 63.2392 158.311 56.7988C154.115 50.3583 147.648 45.7333 140.197 43.8437L138.661 43.4558C121.86 40.2333 109.738 52.6956 106.991 69.5839L97.6323 121.896L120.593 159.631L131.678 143.527L134.695 131.302C134.695 131.302 151.235 132.885 155.463 117.003C157.442 109.33 160.364 93.218 162.842 78.6021Z" fill="#FFBE9D"/>
<path d="M134.766 131.302C127.374 129.433 120.675 125.481 115.463 119.916C115.463 119.916 117.466 132.584 133.673 135.205L134.766 131.302Z" fill="#EB996E"/>
<path d="M154.631 89.5199C154.479 90.1087 154.107 90.6168 153.591 90.9394C153.076 91.262 152.456 91.3745 151.86 91.2538C151.565 91.2035 151.283 91.0946 151.031 90.9335C150.778 90.7724 150.561 90.5624 150.391 90.3159C150.222 90.0694 150.103 89.7914 150.042 89.4983C149.982 89.2052 149.981 88.9029 150.039 88.6094C150.18 88.0159 150.549 87.5016 151.066 87.1774C151.583 86.8531 152.206 86.7446 152.802 86.8754C153.098 86.9248 153.381 87.033 153.634 87.1937C153.887 87.3544 154.105 87.5643 154.276 87.8109C154.446 88.0575 154.566 88.3358 154.627 88.6294C154.688 88.9229 154.689 89.2257 154.631 89.5199Z" fill="#263238"/>
<path d="M157.442 85.5137C157.086 85.7433 155.692 84.0331 153.246 83.4156C150.799 82.798 148.693 83.5739 148.495 83.2097C148.4 83.0434 148.82 82.5763 149.746 82.2121C150.99 81.7449 152.349 81.6758 153.634 82.0141C154.907 82.3286 156.047 83.0414 156.888 84.049C157.497 84.817 157.616 85.4187 157.442 85.5137Z" fill="#263238"/>
<path d="M130.973 85.371C130.821 85.9599 130.449 86.4679 129.933 86.7905C129.418 87.1131 128.798 87.2257 128.202 87.105C127.907 87.0556 127.626 86.9476 127.373 86.7873C127.121 86.627 126.904 86.4177 126.734 86.1718C126.564 85.926 126.445 85.6485 126.385 85.3559C126.324 85.0633 126.323 84.7615 126.381 84.4684C126.531 83.8781 126.903 83.3682 127.419 83.044C127.934 82.7198 128.555 82.6062 129.152 82.7265C129.447 82.7769 129.729 82.8858 129.981 83.0469C130.234 83.208 130.451 83.418 130.621 83.6645C130.791 83.911 130.909 84.189 130.97 84.4821C131.03 84.7752 131.031 85.0775 130.973 85.371Z" fill="#263238"/>
<path d="M133.293 79.8839C132.937 80.1056 131.535 78.3954 129.097 77.7858C126.658 77.1761 124.544 77.9362 124.346 77.572C124.251 77.4057 124.671 76.9465 125.597 76.5744C126.841 76.1072 128.2 76.0381 129.485 76.3764C130.758 76.6966 131.897 77.4117 132.739 78.4192C133.349 79.1793 133.467 79.781 133.293 79.8839Z" fill="#263238"/>
<path d="M137.577 100.264C137.577 100.122 139.16 100.264 141.725 100.557C142.367 100.644 142.992 100.676 143.206 100.272C143.421 99.6401 143.437 98.9579 143.254 98.3163C143.048 96.6616 142.842 94.9197 142.612 93.0986C141.765 85.6798 141.322 79.6387 141.615 79.6387C141.908 79.6387 142.85 85.5927 143.697 93.0115C143.887 94.8405 144.077 96.5824 144.251 98.2451C144.453 99.0979 144.349 99.9945 143.958 100.779C143.813 100.977 143.624 101.139 143.405 101.252C143.187 101.365 142.945 101.425 142.699 101.428C142.329 101.438 141.959 101.398 141.599 101.309C139.089 100.787 137.545 100.407 137.577 100.264Z" fill="#263238"/>
<path d="M129.952 100.13C130.356 100.209 129.683 102.861 131.48 105.324C133.277 107.786 136.175 108.206 136.096 108.586C136.096 108.76 135.304 108.942 134.14 108.665C132.578 108.299 131.198 107.39 130.245 106.1C129.33 104.859 128.93 103.313 129.129 101.784C129.311 100.652 129.77 100.066 129.952 100.13Z" fill="#263238"/>
<path d="M136.357 70.4706C135.946 71.0723 133.586 70.138 130.625 69.758C127.664 69.3779 125.154 69.568 124.924 68.8791C124.829 68.5466 125.392 68.024 126.508 67.6202C127.956 67.1445 129.493 67.0064 131.003 67.2164C132.513 67.4263 133.954 67.9788 135.217 68.8316C136.144 69.5125 136.54 70.1697 136.357 70.4706Z" fill="#263238"/>
<path d="M158.337 78.2137C157.767 78.6571 156.231 77.6595 154.212 77.1132C152.193 76.5668 150.38 76.5431 150.126 75.8622C150.031 75.5375 150.443 75.0704 151.322 74.7141C152.484 74.3174 153.741 74.2952 154.916 74.6508C156.103 74.9729 157.16 75.6564 157.941 76.6064C158.511 77.3586 158.598 77.992 158.337 78.2137Z" fill="#263238"/>
<path d="M172.224 66.1473C172.277 65.3878 172.056 64.6345 171.599 64.0252C171.143 63.416 170.482 62.9916 169.738 62.8298C170.594 62.8296 171.442 62.66 172.232 62.331C172.625 62.1624 172.962 61.8852 173.203 61.5318C173.445 61.1783 173.58 60.7634 173.594 60.3357C173.538 59.0056 172.01 58.3167 170.902 57.6121C169.405 56.6886 168.235 55.3213 167.553 53.7008C166.587 51.3888 166.697 48.7522 165.969 46.3453C165.495 44.7837 164.676 43.3485 163.574 42.1455C162.471 40.9425 161.112 40.0024 159.598 39.3945C158.083 38.7865 156.452 38.5264 154.823 38.6331C153.195 38.7398 151.611 39.2108 150.189 40.0112C149.327 38.4253 148.098 37.0682 146.606 36.0524C145.114 35.0367 143.401 34.3917 141.609 34.171C139.817 33.9504 137.999 34.1604 136.305 34.7837C134.61 35.4069 133.089 36.4255 131.868 37.7547C130.006 36.2837 127.784 35.34 125.433 35.0223C123.081 34.7046 120.688 35.0247 118.503 35.9489C116.318 36.8731 114.421 38.3675 113.012 40.2759C111.602 42.1842 110.731 44.4363 110.49 46.7966L118.637 55.5931C118.93 54.8702 119.372 54.2173 119.934 53.6769C120.496 53.1365 121.166 52.7208 121.9 52.457C122.634 52.1932 123.415 52.0872 124.193 52.146C124.97 52.2048 125.727 52.427 126.413 52.7982C129.136 54.4925 130.071 58.4672 133.087 59.5677C135.462 60.4228 138.004 59.1402 140.506 59.1718C143.538 59.1718 146.199 61.175 148.344 63.3207C150.49 65.4663 152.398 67.9287 155.035 69.441C158.115 71.2145 161.86 71.4758 165.391 71.0641C166.914 70.9569 168.398 70.5307 169.746 69.8131C170.422 69.4448 171 68.9197 171.431 68.2818C171.862 67.6439 172.134 66.912 172.224 66.1473Z" fill="#263238"/>
<path d="M121.655 51.4049L166.785 63.8039C166.16 60.3201 164.267 57.1768 162.034 54.4215C157.281 48.3699 150.739 43.9727 143.341 41.8562C135.978 39.8689 118.646 45.1024 111.995 48.8554C106.682 51.8641 105.819 55.4033 105.819 55.4033C103.658 61.1119 105.273 68.6336 105.13 74.7381C105.059 77.9051 104.093 87.2321 104.093 87.2321C106.595 87.8497 108.052 86.092 108.266 83.5267L110.229 73.7088C110.229 73.7088 120.253 69.8054 119.002 57.731C118.614 56.6859 118.25 52.2996 121.655 51.4049Z" fill="#263238"/>
<path d="M122.541 88.2217C122.479 88.2248 122.417 88.209 122.364 88.1763C122.311 88.1436 122.269 88.0956 122.243 88.0385C122.218 87.9815 122.211 87.9182 122.222 87.8568C122.233 87.7955 122.263 87.739 122.307 87.6949C122.351 87.6508 122.408 87.6211 122.469 87.6097C122.53 87.5983 122.594 87.6057 122.651 87.631C122.708 87.6564 122.756 87.6983 122.789 87.7515C122.821 87.8046 122.837 87.8664 122.834 87.9287C122.832 88.0058 122.8 88.0791 122.746 88.1337C122.691 88.1882 122.618 88.2197 122.541 88.2217Z" fill="#EB996E"/>
<path d="M127.474 88.3403C127.433 88.3337 127.394 88.3189 127.359 88.2968C127.324 88.2747 127.294 88.2458 127.27 88.2119C127.247 88.1779 127.23 88.1395 127.221 88.099C127.213 88.0585 127.213 88.0167 127.221 87.9761C127.216 87.8934 127.244 87.8122 127.299 87.7501C127.354 87.6879 127.431 87.6497 127.514 87.6436C127.596 87.659 127.669 87.7055 127.717 87.7733C127.766 87.8411 127.786 87.9251 127.775 88.0078C127.777 88.0494 127.771 88.091 127.757 88.1302C127.743 88.1695 127.721 88.2056 127.693 88.2365C127.665 88.2673 127.632 88.2924 127.594 88.3102C127.556 88.3281 127.516 88.3383 127.474 88.3403Z" fill="#EB996E"/>
<path d="M130.641 89.0608C130.49 89.0608 130.395 88.8232 130.419 88.5778C130.443 88.3323 130.601 88.1423 130.752 88.1581C130.902 88.174 131.005 88.3957 130.973 88.6411C130.942 88.8866 130.791 89.0845 130.641 89.0608Z" fill="#EB996E"/>
<path d="M124.093 91.7285C123.942 91.7285 123.84 91.586 123.863 91.491C123.887 91.3959 124.03 91.3484 124.18 91.388C124.33 91.4276 124.425 91.5305 124.402 91.6256C124.378 91.7206 124.243 91.7681 124.093 91.7285Z" fill="#EB996E"/>
<path d="M128.63 91.8482C128.552 91.8312 128.485 91.7841 128.442 91.7174C128.399 91.6506 128.384 91.5696 128.4 91.4919C128.408 91.4135 128.447 91.3413 128.507 91.2909C128.568 91.2406 128.646 91.2161 128.725 91.2227C128.802 91.2398 128.87 91.2868 128.913 91.3536C128.956 91.4203 128.971 91.5014 128.954 91.579C128.946 91.6575 128.908 91.7297 128.847 91.78C128.786 91.8304 128.708 91.8549 128.63 91.8482Z" fill="#EB996E"/>
<path d="M151.599 94.817C151.521 94.8071 151.449 94.7666 151.4 94.7044C151.351 94.6421 151.329 94.5631 151.338 94.4845C151.338 94.406 151.368 94.3307 151.423 94.2745C151.478 94.2183 151.552 94.1857 151.631 94.1836C151.709 94.1935 151.781 94.234 151.83 94.2962C151.879 94.3585 151.901 94.4375 151.892 94.5161C151.892 94.5946 151.862 94.6699 151.807 94.7261C151.752 94.7823 151.678 94.8149 151.599 94.817Z" fill="#EB996E"/>
<path d="M154.853 95.3313C154.773 95.3073 154.706 95.2537 154.665 95.1815C154.624 95.1093 154.612 95.0241 154.631 94.9433C154.631 94.7454 154.806 94.6108 154.964 94.6345C155.044 94.6585 155.111 94.7121 155.152 94.7843C155.193 94.8565 155.205 94.9417 155.186 95.0225C155.154 95.2125 155.003 95.355 154.853 95.3313Z" fill="#EB996E"/>
<path d="M148.764 94.223C148.695 94.223 148.628 94.1954 148.579 94.1464C148.53 94.0974 148.503 94.031 148.503 93.9617C148.503 93.8882 148.532 93.8177 148.584 93.7657C148.636 93.7138 148.707 93.6846 148.78 93.6846C148.854 93.6846 148.924 93.7138 148.976 93.7657C149.028 93.8177 149.057 93.8882 149.057 93.9617C149.056 93.9985 149.048 94.0346 149.032 94.068C149.017 94.1014 148.995 94.1312 148.967 94.1557C148.94 94.1802 148.908 94.1988 148.873 94.2104C148.838 94.2219 148.801 94.2262 148.764 94.223Z" fill="#EB996E"/>
<path d="M150.316 97.9606C150.239 97.9612 150.163 97.9341 150.104 97.8841C150.045 97.8341 150.005 97.7646 149.993 97.688C149.981 97.6115 149.996 97.533 150.036 97.4668C150.077 97.4006 150.14 97.3511 150.213 97.3272C150.291 97.3265 150.366 97.3536 150.425 97.4036C150.485 97.4536 150.524 97.5232 150.537 97.5997C150.549 97.6763 150.534 97.7547 150.493 97.8209C150.453 97.8871 150.39 97.9367 150.316 97.9606Z" fill="#EB996E"/>
<path d="M153.174 98.1106C153.113 98.0813 153.066 98.0295 153.042 97.966C153.019 97.9024 153.021 97.8322 153.048 97.7701C153.066 97.7417 153.09 97.7172 153.118 97.6981C153.146 97.6791 153.178 97.6659 153.211 97.6592C153.244 97.6526 153.278 97.6527 153.311 97.6595C153.345 97.6663 153.376 97.6797 153.404 97.6989C153.465 97.7281 153.513 97.7799 153.536 97.8435C153.56 97.907 153.558 97.9772 153.531 98.0393C153.492 98.0951 153.434 98.1337 153.367 98.147C153.301 98.1603 153.231 98.1473 153.174 98.1106Z" fill="#EB996E"/>
<path d="M109.738 72.8451C109.691 64.2228 109.984 55.078 114.655 47.8254L113.325 47.4216L112.652 47.675C111.502 46.89 110.131 46.492 108.74 46.5389C107.348 46.5858 106.008 47.0751 104.913 47.9358C103.818 48.7964 103.027 49.9837 102.653 51.325C102.279 52.6663 102.342 54.0919 102.834 55.3947C101.5 55.0034 100.069 55.1164 98.8138 55.7121C97.5581 56.3078 96.5654 57.3447 96.0249 58.6251C95.336 60.4145 95.6369 62.4176 96.0249 64.302C96.4128 66.1864 96.777 68.1421 96.2782 69.9869C95.7794 71.8317 94.0217 73.5102 92.1294 73.2093C92.3056 74.2684 92.8395 75.235 93.642 75.9482C94.4445 76.6614 95.4671 77.078 96.5395 77.1286C95.4589 78.5158 94.0064 79.5675 92.3511 80.161C94.7264 82.9876 98.9465 83.431 102.573 82.7738C104.726 82.3859 106.951 81.5941 108.281 79.8522C109.722 77.9203 109.754 75.2996 109.738 72.8451Z" fill="#263238"/>
<path d="M106.389 81.9672C106.152 81.7772 96.2785 75.9577 93.8716 86.9237C91.4646 97.8896 102.969 98.0479 103.056 97.7391C103.143 97.4303 106.389 81.9672 106.389 81.9672Z" fill="#FFBE9D"/>
<path d="M101.575 93.0835C101.575 93.0439 101.354 93.1785 100.997 93.2576C100.501 93.3497 99.9879 93.2477 99.5643 92.9726C98.5034 92.2917 97.9254 90.241 98.3133 88.222C98.4924 87.2755 98.8791 86.3805 99.4456 85.6013C99.6241 85.2823 99.8773 85.0112 100.183 84.8113C100.489 84.6113 100.839 84.4885 101.203 84.4532C101.439 84.4429 101.67 84.5169 101.856 84.6621C102.042 84.8072 102.17 85.014 102.217 85.245C102.296 85.5855 102.177 85.7913 102.217 85.823C102.256 85.8547 102.494 85.6884 102.502 85.2133C102.51 84.9243 102.412 84.6423 102.225 84.4216C102.101 84.2741 101.949 84.1526 101.777 84.0643C101.606 83.976 101.419 83.9225 101.227 83.9069C100.757 83.8965 100.291 84.0067 99.8754 84.227C99.4596 84.4474 99.1072 84.7706 98.8518 85.1658C98.1785 86.0147 97.7219 87.0147 97.5216 88.0795C97.102 90.3044 97.7829 92.6242 99.2635 93.4239C99.5389 93.5756 99.8451 93.663 100.159 93.6794C100.473 93.6959 100.787 93.641 101.077 93.5189C101.496 93.3447 101.607 93.1151 101.575 93.0835Z" fill="#EB996E"/>
<path d="M97.7035 69.8693C97.6639 69.8693 97.5135 69.3784 97.854 68.555C98.1272 67.9958 98.521 67.5041 99.007 67.1153C99.493 66.7265 100.059 66.4502 100.665 66.3063C102.193 65.8788 104.053 66.1955 105.946 66.5043C107.838 66.8131 110.031 66.8843 111.575 65.3879C112.959 63.8927 113.813 61.9844 114.006 59.9564C114.259 58.072 114.243 56.2906 114.402 54.81C114.639 51.7934 115.692 50.1227 115.779 50.2019C115.348 51.7207 115.083 53.2816 114.988 54.8575C114.909 56.3143 114.988 58.072 114.774 60.0673C114.6 62.2985 113.667 64.4028 112.129 66.0292C111.257 66.84 110.146 67.348 108.962 67.4782C107.903 67.5732 106.836 67.5119 105.795 67.2961C103.863 66.9318 102.161 66.5993 100.783 66.9081C100.244 67.0127 99.7312 67.226 99.2766 67.535C98.8219 67.844 98.4349 68.2422 98.139 68.7054C97.9682 69.0832 97.8227 69.4721 97.7035 69.8693Z" fill="#455A64"/>
<path d="M96.4209 64.4296C96.3734 64.4296 96.2705 64.0495 96.3576 63.3607C96.5152 62.3686 96.9773 61.45 97.6798 60.732C98.1612 60.2236 98.7438 59.8218 99.39 59.5523C100.146 59.2596 100.955 59.1274 101.765 59.1643C102.538 59.2221 103.314 59.1334 104.054 58.9031C104.398 58.7318 104.699 58.4858 104.936 58.1831C105.173 57.8804 105.34 57.5285 105.423 57.1533C105.685 56.3615 105.803 55.4431 106.065 54.58C106.309 53.759 106.633 52.9636 107.031 52.2047C107.7 50.9194 108.589 49.7617 109.659 48.7843C110.022 48.4209 110.47 48.1532 110.962 48.0054C111.454 47.8575 111.975 47.8341 112.478 47.9371C113.19 48.143 113.396 48.5468 113.357 48.5706C113.317 48.5943 113.032 48.3489 112.415 48.2697C111.976 48.2394 111.537 48.3116 111.132 48.4806C110.726 48.6497 110.366 48.9109 110.079 49.2436C108.588 50.806 107.501 52.7084 106.912 54.7859C106.674 55.5777 106.571 56.4644 106.278 57.3908C106.156 57.8847 105.924 58.345 105.601 58.7381C105.278 59.1312 104.871 59.4473 104.41 59.6631C103.564 59.93 102.672 60.0243 101.789 59.9403C101.134 59.8724 100.472 59.9447 99.8465 60.1521C99.2214 60.3596 98.6474 60.6976 98.1628 61.1437C96.4288 62.7827 96.5793 64.4771 96.4209 64.4296Z" fill="#455A64"/>
<path d="M167.561 53.7174C167.624 53.7174 166.579 54.0737 165.352 53.0127C164.667 52.3656 164.127 51.5802 163.768 50.7087C163.333 49.6207 162.694 48.6262 161.884 47.7792C160.818 46.7197 159.468 45.9909 157.997 45.6804C156.527 45.37 154.998 45.4912 153.594 46.0294C152.011 46.6232 150.427 47.6129 148.559 48.3414C147.587 48.7232 146.545 48.8907 145.502 48.8322C144.422 48.7204 143.391 48.3213 142.517 47.6763C140.768 46.4332 139.564 44.8101 138.06 43.7175C136.622 42.6253 134.988 41.8189 133.246 41.3422C130.283 40.5197 127.132 40.7007 124.283 41.8568C122.359 42.6456 120.614 43.8143 119.153 45.2931C118.131 46.3619 117.672 47.0508 117.609 47.0112C117.545 46.9716 117.68 46.8053 117.878 46.4649C118.204 45.9979 118.561 45.5535 118.947 45.1347C120.359 43.5114 122.114 42.2215 124.085 41.358C127.048 40.057 130.365 39.8029 133.491 40.6375C135.337 41.1078 137.073 41.9305 138.606 43.0603C140.237 44.2321 141.464 45.8631 143.056 47.0191C143.803 47.5823 144.69 47.93 145.621 48.0246C146.536 48.076 147.451 47.9302 148.305 47.5971C150.047 46.9716 151.639 45.9581 153.357 45.3406C155.004 44.7056 156.812 44.6223 158.511 45.103C159.978 45.5195 161.308 46.3172 162.367 47.415C163.201 48.3334 163.842 49.4105 164.251 50.582C164.54 51.417 164.995 52.1846 165.589 52.8386C166.123 53.3533 166.821 53.6644 167.561 53.7174Z" fill="#455A64"/>
<path d="M113.951 107.929C113.436 107.771 113.452 106.947 113.887 106.631C114.121 106.498 114.384 106.424 114.653 106.416C114.922 106.408 115.189 106.465 115.431 106.583C115.913 106.82 116.424 106.993 116.951 107.098C117.49 107.153 118.155 107.011 118.495 107.438C118.954 108.016 118.25 108.792 118.076 109.513C118.019 110.21 118.168 110.909 118.503 111.524C118.671 111.831 118.751 112.178 118.734 112.527C118.717 112.876 118.605 113.214 118.408 113.503C118.21 113.68 117.969 113.802 117.71 113.858C117.45 113.913 117.181 113.9 116.928 113.82C116.421 113.656 115.929 113.453 115.455 113.21C114.244 112.704 112.723 112.569 112.011 111.468C111.806 111.157 111.692 110.795 111.681 110.422C111.671 110.05 111.764 109.681 111.95 109.359C112.137 109.036 112.409 108.771 112.737 108.594C113.065 108.418 113.436 108.335 113.808 108.357" fill="#068EFF"/>
<g opacity="0.3">
<path d="M128.313 293.391C122.319 285.038 116.159 276.566 107.782 270.644C97.3391 263.265 84.4017 260.533 71.8681 257.976C59.3345 255.418 42.0661 251.887 29.3979 249.298L30.1185 260.723C34.2277 265.236 39.0099 266.614 44.964 267.952C50.918 269.29 57.0542 269.599 63.1033 270.438C84.6709 273.415 104.845 283.201 122.636 295.774C123.776 296.566 125.011 297.413 126.365 297.492C127.719 297.572 129.287 296.503 129.168 295.117C129.042 294.476 128.747 293.88 128.313 293.391Z" fill="black"/>
</g>
<g opacity="0.3">
<path d="M50.5304 228.482C52.494 229.575 54.8693 227.572 55.574 225.434C56.2786 223.296 56.1282 220.897 57.1575 218.918C58.3372 216.717 60.7521 215.505 62.4069 213.645C64.5526 211.269 65.3206 207.92 65.5264 204.714C65.7323 201.507 65.4552 198.277 65.8352 195.086C66.4686 189.813 68.8835 184.951 70.657 179.947C72.4381 175.218 72.3589 169.989 70.4353 165.315C66.7457 189.52 63.4995 182.837 62.2802 188.775C61.0609 194.714 62.106 192.362 61.243 198.364C59.612 209.749 51.2509 212.924 44.9644 222.552L50.5304 228.482Z" fill="black"/>
</g>
<path d="M99.588 254.887L61.5676 238.062L49.3032 262.172L100.087 272.75L99.588 254.887Z" fill="#FFBE9D"/>
<path d="M65.5265 124.555C64.4101 124.555 42.5654 121.958 34.3707 140.873C26.1759 159.789 13.9749 205.402 13.9749 205.402C13.9749 205.402 9.05012 209.226 10.3407 213.32C11.6313 217.413 13.5632 219.123 13.5632 219.123C11.8955 220.822 10.7004 222.927 10.0963 225.229C9.4922 227.532 9.50002 229.952 10.119 232.251C10.119 232.251 7.53785 244.523 17.4349 253.129L25.1862 257.001C25.1862 257.001 33.5789 259.804 35.5187 259.376C37.4585 258.949 45.0199 265.623 48.8599 263.042L61.5281 238.07C61.5281 238.07 53.9905 230.54 50.5464 228.569C47.1022 226.597 50.7681 227.492 50.7681 227.492C51.942 226.627 52.8883 225.49 53.5255 224.178C54.1627 222.867 54.4717 221.42 54.426 219.962C54.2122 215.014 53.1354 215.014 53.1354 215.014C53.1354 215.014 60.4513 211.356 60.4513 207.69C60.4513 204.024 65.4869 175.046 65.4869 175.046" fill="#455A64"/>
<path d="M65.5266 175.07C65.5266 175.07 65.5266 175.331 65.4157 175.862C65.3049 176.392 65.2099 177.121 65.0515 178.087C64.7348 180.058 64.2597 182.94 63.6501 186.662C63.0404 190.383 62.3041 194.951 61.5202 200.264C61.3223 201.594 61.1244 202.972 60.9502 204.397C60.8472 205.11 60.776 205.83 60.6968 206.566C60.6968 206.939 60.6493 207.303 60.6256 207.675C60.6096 208.068 60.5377 208.458 60.4118 208.831C60.1382 209.575 59.7182 210.256 59.1766 210.834C58.6445 211.437 58.0588 211.991 57.4268 212.489C56.1194 213.522 54.717 214.428 53.2384 215.197L53.1513 214.888C53.3275 214.924 53.4833 215.026 53.5868 215.173C53.6788 215.288 53.7584 215.413 53.8243 215.545C53.9478 215.799 54.0459 216.064 54.1173 216.337C54.2623 216.883 54.3681 217.438 54.434 218C54.5981 219.151 54.6273 220.317 54.5211 221.475C54.3596 222.695 53.953 223.87 53.3258 224.928C52.6985 225.987 51.8635 226.908 50.871 227.635L50.8156 227.675H50.7444C50.4047 227.6 50.061 227.545 49.7151 227.509C49.5603 227.484 49.4027 227.484 49.2479 227.509C49.2936 227.565 49.3439 227.618 49.3984 227.667C49.9841 228.085 50.592 228.471 51.2194 228.823C52.461 229.669 53.6508 230.589 54.7824 231.578C57.0943 233.558 59.3746 235.703 61.6548 237.952L61.7499 238.047L61.6865 238.166L49.0183 263.138V263.185C48.105 263.739 47.0226 263.944 45.97 263.763C44.944 263.608 43.943 263.318 42.993 262.9C41.0849 262.109 39.2955 261.024 37.4507 260.105C37.001 259.879 36.5285 259.702 36.0413 259.575C35.8001 259.536 35.5542 259.536 35.3129 259.575C35.0495 259.597 34.7846 259.597 34.5212 259.575C33.4537 259.446 32.3958 259.248 31.3541 258.981C29.2876 258.466 27.2369 257.849 25.1863 257.184L17.4428 253.304C14.7723 250.968 12.6939 248.032 11.378 244.737C10.6091 242.746 10.1112 240.661 9.89736 238.538C9.65849 236.429 9.71178 234.298 10.0557 232.204V232.299C9.41828 229.945 9.41828 227.464 10.0557 225.11C10.686 222.796 11.896 220.681 13.5711 218.965V219.266C12.6151 218.266 11.8336 217.113 11.2592 215.854C10.962 215.24 10.6977 214.611 10.4674 213.969C10.3438 213.651 10.2458 213.322 10.1745 212.988C10.0924 212.651 10.0499 212.305 10.0478 211.958C10.0828 210.594 10.5239 209.271 11.3146 208.158C12.0488 207.058 12.9427 206.073 13.967 205.236L13.8958 205.347C17.9179 190.597 21.9163 176.939 25.7722 164.785C27.7199 158.712 29.636 153.02 31.5837 147.786C32.5576 145.173 33.5473 142.679 34.5845 140.32C35.6085 138.064 36.9409 135.962 38.5433 134.073C41.2901 130.868 44.7807 128.386 48.7095 126.844C51.6228 125.697 54.6775 124.949 57.791 124.619C59.734 124.41 61.6894 124.341 63.6422 124.413C64.9723 124.469 65.6612 124.548 65.6612 124.548C65.6612 124.548 65.487 124.548 65.1465 124.548L63.6422 124.492C61.6932 124.444 59.7432 124.534 57.8069 124.762C54.7105 125.109 51.6747 125.871 48.7808 127.026C44.8932 128.574 41.4436 131.051 38.7333 134.239C37.1647 136.118 35.862 138.204 34.8616 140.439C33.8402 142.814 32.8585 145.284 31.8925 147.897C29.9606 153.13 28.0604 158.823 26.1285 164.896C22.2884 177.05 18.3059 190.707 14.2996 205.458V205.513L14.252 205.561C13.2611 206.367 12.3964 207.317 11.6867 208.38C10.9408 209.43 10.5246 210.679 10.4912 211.966C10.4872 212.284 10.5271 212.601 10.6099 212.908C10.673 213.228 10.7658 213.541 10.8871 213.843C11.1158 214.472 11.3801 215.088 11.6788 215.688C12.2325 216.897 12.9815 218.007 13.8958 218.973L14.0462 219.124L13.8958 219.274C12.277 220.936 11.108 222.982 10.4991 225.22C9.87753 227.507 9.87753 229.917 10.4991 232.204V232.299C10.1648 234.34 10.1115 236.418 10.3407 238.475C10.5608 240.561 11.0505 242.61 11.7976 244.571C13.0907 247.805 15.131 250.686 17.7516 252.98L25.4951 256.851C27.5378 257.516 29.5806 258.134 31.6312 258.641C32.6447 258.9 33.6733 259.096 34.7112 259.227C34.9748 259.244 35.2393 259.244 35.5029 259.227C35.7809 259.182 36.0642 259.182 36.3422 259.227C36.8662 259.355 37.3737 259.544 37.8545 259.789C39.7389 260.723 41.5045 261.8 43.3968 262.584C44.239 262.95 45.1213 263.215 46.0255 263.375C46.9801 263.545 47.9639 263.365 48.7966 262.869L48.7333 262.94C53.1513 254.159 57.4743 245.703 61.4094 237.984V238.189C59.137 235.949 56.8647 233.795 54.5686 231.855C53.4532 230.871 52.2764 229.959 51.0452 229.124C50.4035 228.752 49.7849 228.342 49.1925 227.897C49.1116 227.827 49.0398 227.747 48.9787 227.659C48.9325 227.58 48.9184 227.487 48.9391 227.398C48.9639 227.352 49.0003 227.313 49.0448 227.285C49.0892 227.257 49.1401 227.241 49.1925 227.239C49.3912 227.201 49.5955 227.201 49.7943 227.239C50.1565 227.279 50.516 227.34 50.871 227.422H50.7444C51.6986 226.72 52.5027 225.835 53.1092 224.818C53.7157 223.8 54.1123 222.672 54.2756 221.499C54.3776 220.365 54.3484 219.222 54.1885 218.095C54.1275 217.56 54.027 217.031 53.8877 216.511C53.8216 216.24 53.7315 215.975 53.6185 215.719C53.5369 215.514 53.3929 215.339 53.2067 215.22L52.8029 215.118L53.1355 214.943C54.5996 214.19 55.9888 213.299 57.2843 212.283C57.9022 211.806 58.4771 211.276 59.0024 210.699C59.5234 210.146 59.9297 209.495 60.198 208.783C60.376 208.063 60.469 207.324 60.4751 206.582C60.5543 205.846 60.6335 205.118 60.7364 204.405C60.9185 202.98 61.1244 201.602 61.3223 200.272C62.1141 194.959 62.9058 190.399 63.5234 186.67L65.004 178.118C65.1782 177.145 65.3128 176.408 65.4078 175.902C65.5028 175.395 65.5266 175.07 65.5266 175.07Z" fill="#263238"/>
<path d="M43.2459 245.869C42.3806 248.065 41.3893 250.209 40.2768 252.29C39.2882 254.435 38.1725 256.518 36.9355 258.529C37.8098 256.336 38.8036 254.193 39.9126 252.108C40.9042 249.967 42.0171 247.884 43.2459 245.869Z" fill="#263238"/>
<path d="M26.6349 220.272C25.9627 220.248 25.2931 220.173 24.6318 220.05C23.4046 219.884 21.7102 219.694 19.8258 219.591C17.9414 219.488 16.2312 219.504 14.996 219.535C14.3243 219.592 13.6488 219.592 12.9771 219.535C13.6301 219.354 14.3028 219.253 14.9802 219.234C18.2218 218.977 21.4831 219.151 24.6793 219.749C25.3511 219.838 26.0085 220.013 26.6349 220.272Z" fill="#263238"/>
<path d="M24.3233 207.223C22.6842 206.562 20.995 206.033 19.2719 205.64C17.5211 205.381 15.7526 205.262 13.9829 205.283C14.4912 205.102 15.0267 205.008 15.5664 205.006C18.1243 204.835 20.6834 205.32 23.0011 206.416C23.4834 206.61 23.9303 206.883 24.3233 207.223Z" fill="#263238"/>
<path d="M44.9961 204.191C45.6489 204.404 46.2636 204.719 46.8171 205.126C48.1925 206.008 49.4417 207.074 50.5305 208.293C51.6174 209.513 52.5361 210.874 53.2621 212.339C53.6005 212.927 53.8436 213.566 53.9826 214.231C52.9416 212.209 51.6803 210.307 50.2217 208.562C48.6464 206.917 46.8938 205.451 44.9961 204.191Z" fill="#263238"/>
<path d="M123.729 259.1C123.729 259.1 127.688 264.246 129.865 265.656C132.042 267.065 136.896 271.491 136.571 273.146C136.246 274.8 132.05 275.948 130.799 275.331C129.548 274.713 125.653 272.362 125.653 272.362C125.653 272.362 127.371 277.825 128.147 278.134C128.923 278.443 143.452 290.264 143.452 290.264C143.452 290.264 146.421 294.634 143.452 295.877C143.452 295.877 144.544 300.248 142.984 302.124H140.957L122.826 291.53L113.95 283.454C113.95 283.454 98.2815 274.12 98.1865 272.37C98.0756 270.786 99.5879 254.896 99.5879 254.896C99.5879 254.896 113.325 257.081 114.259 256.922C115.194 256.764 120.348 255.664 123.729 259.1Z" fill="#FFBE9D"/>
<path d="M125.685 272.75C125.59 272.829 124.426 271.57 122.803 270.216C121.179 268.862 119.754 267.92 119.81 267.841C121.015 268.33 122.121 269.036 123.072 269.923C124.109 270.697 124.994 271.655 125.685 272.75Z" fill="#EB996E"/>
<path d="M120.403 280.699C119.212 280.598 118.084 280.121 117.181 279.338C116.191 278.662 115.437 277.693 115.027 276.566C115.756 277.441 116.55 278.259 117.403 279.013C118.356 279.655 119.36 280.219 120.403 280.699Z" fill="#EB996E"/>
<path d="M143.76 296.225C143.434 296.093 143.121 295.929 142.826 295.735C142.232 295.402 141.385 294.903 140.34 294.278C138.25 293.027 135.384 291.269 132.28 289.226C129.176 287.184 126.437 285.228 124.505 283.747C123.539 283.003 122.771 282.385 122.248 281.95C121.959 281.74 121.693 281.498 121.457 281.229C121.766 281.402 122.06 281.601 122.335 281.823L124.663 283.51C126.635 284.935 129.414 286.851 132.494 288.886C135.574 290.921 138.432 292.718 140.475 294.032L142.89 295.616C143.201 295.787 143.493 295.991 143.76 296.225Z" fill="#EB996E"/>
<path d="M133.341 268.236C133.098 268.329 132.892 268.5 132.756 268.722C132.62 268.944 132.561 269.205 132.589 269.464C132.663 269.976 132.788 270.48 132.961 270.968C133.048 271.212 133.08 271.473 133.052 271.73C133.025 271.988 132.939 272.236 132.802 272.456C132.454 272.908 131.765 273.026 131.464 273.509C131.358 273.701 131.308 273.919 131.321 274.137C131.333 274.356 131.408 274.567 131.536 274.745C131.792 275.091 132.153 275.347 132.565 275.473C133.326 275.713 134.15 275.666 134.879 275.34C135.608 275.015 136.193 274.434 136.524 273.707C136.689 273.356 136.751 272.964 136.702 272.578C136.653 272.193 136.495 271.829 136.247 271.53C135.579 270.216 134.59 269.091 133.372 268.26" fill="#068EFF"/>
<path d="M190.079 305.022C190.079 305.022 192.066 305.458 192.945 304.468C193.19 304.157 193.333 303.777 193.353 303.381C193.373 302.985 193.269 302.593 193.056 302.259L194.275 300.493C194.614 300.029 194.787 299.465 194.767 298.89C194.747 298.316 194.535 297.765 194.164 297.326C194.791 297.345 195.408 297.162 195.924 296.804C196.44 296.446 196.828 295.933 197.03 295.339C198.028 293.13 196.151 291.032 196.151 291.032C196.151 291.032 198.685 289.266 198.574 287.073C198.463 284.88 194.164 283.32 192.834 281.594C192.083 280.59 191.148 279.738 190.079 279.084C190.079 279.084 190.522 278.466 193.056 280.01C195.589 281.554 196.587 281.594 196.587 281.594C199.683 280.755 200.126 278.245 198.574 277.033C197.389 275.979 196.327 274.794 195.407 273.502L186.959 270.913C185.036 271.176 183.167 271.737 181.417 272.576C179.288 273.714 177.223 274.97 175.233 276.337L166.199 262.172L151.211 274.476L145.985 280.699L167.062 296.186C167.062 296.186 168.495 298.656 169.39 299.836C170.285 301.016 190.079 305.022 190.079 305.022Z" fill="#FFBE9D"/>
<path d="M72.0347 338.775C72.0347 337.5 73.8953 329.44 75.1384 327.579C76.3814 325.719 81.7496 324.278 81.7496 324.278C81.7496 324.278 87.2919 315.014 90.6332 315.101C93.151 315.165 102.264 317.215 106.468 318.189C107.119 318.344 107.719 318.665 108.207 319.122C108.696 319.579 109.057 320.155 109.255 320.794L114.75 338.775H72.0347Z" fill="#068EFF"/>
<path d="M61.5596 343.858C61.5596 343.858 64.4178 340.58 64.8929 340.461C65.1304 340.398 66.4764 339.899 67.7195 339.416C68.0336 339.295 68.3687 339.238 68.7051 339.249C69.0415 339.26 69.3722 339.339 69.6778 339.48C69.9834 339.621 70.2576 339.821 70.4843 340.07C70.7109 340.319 70.8854 340.611 70.9974 340.928L72.0346 343.858H61.5596Z" fill="#068EFF"/>
<path d="M146.365 324.064C146.01 324.105 145.651 324.105 145.296 324.064C144.317 323.999 143.345 323.851 142.391 323.62C139.217 322.883 136.279 321.365 133.841 319.203C131.404 317.042 129.544 314.307 128.432 311.245C128.086 310.328 127.822 309.382 127.64 308.418C127.553 308.069 127.508 307.71 127.505 307.35C127.592 307.35 127.79 308.862 128.693 311.142C129.862 314.117 131.718 316.773 134.109 318.894C136.501 321.014 139.36 322.539 142.454 323.343C144.837 323.961 146.373 323.977 146.365 324.064Z" fill="#263238"/>
<path d="M145.272 320.208C145.004 320.194 144.739 320.148 144.481 320.073C143.756 319.905 143.044 319.686 142.351 319.416C141.318 319.023 140.317 318.549 139.358 317.999C137.001 316.639 134.928 314.838 133.254 312.694C132.568 311.825 131.956 310.901 131.425 309.931C131.061 309.282 130.746 308.607 130.482 307.912C130.363 307.661 130.277 307.394 130.229 307.12C130.3 307.12 130.728 308.173 131.678 309.773C132.236 310.708 132.861 311.602 133.546 312.449C135.228 314.522 137.259 316.285 139.548 317.658C140.481 318.219 141.452 318.713 142.454 319.139C144.156 319.875 145.288 320.129 145.272 320.208Z" fill="#263238"/>
<path d="M218.21 338.877C218.21 343.446 196.508 347.151 169.73 347.151C142.953 347.151 120.578 343.287 120.578 338.719C120.578 338.038 120.815 332.686 120.815 332.686C125.993 329.067 146.943 330.611 169.73 330.611C192.256 330.611 212.074 328.964 217.529 332.512C217.529 332.488 218.21 338.133 218.21 338.877Z" fill="#263238"/>
<path d="M169.049 341.753C195.819 341.753 217.521 338.052 217.521 333.487C217.521 328.922 195.819 325.221 169.049 325.221C142.279 325.221 120.578 328.922 120.578 333.487C120.578 338.052 142.279 341.753 169.049 341.753Z" fill="#455A64"/>
<path d="M194.211 284.247C194.211 279.246 192.868 274.337 190.322 270.033C187.777 265.729 184.122 262.187 179.74 259.778C175.358 257.369 170.41 256.18 165.411 256.337C160.413 256.494 155.549 257.989 151.326 260.668C147.104 263.347 143.678 267.11 141.407 271.565C139.136 276.02 138.102 281.004 138.415 285.994C138.728 290.985 140.375 295.8 143.184 299.937C145.993 304.074 149.862 307.381 154.386 309.512V316.55H178.859C178.859 316.55 179.009 312.592 179.065 309.068C183.627 306.722 187.454 303.165 190.126 298.786C192.798 294.407 194.212 289.376 194.211 284.247Z" fill="#068EFF"/>
<g opacity="0.3">
<path d="M170.015 316.416C170.015 316.416 170.015 316.297 170.015 316.068C170.015 315.838 170.079 315.498 170.126 315.062C170.237 314.175 170.395 312.869 170.641 311.198C170.886 309.528 171.219 307.477 171.749 305.125C172.34 302.46 173.189 299.859 174.283 297.358C174.923 295.9 175.692 294.501 176.579 293.178C177.062 292.457 177.718 291.869 178.487 291.468C178.903 291.265 179.361 291.167 179.823 291.181C180.285 291.194 180.737 291.32 181.139 291.547C181.572 291.788 181.896 292.186 182.043 292.659C182.19 293.132 182.15 293.644 181.931 294.088C181.469 294.954 180.701 295.617 179.778 295.949C178.805 296.269 177.778 296.392 176.757 296.309C175.736 296.226 174.742 295.94 173.834 295.467C172.926 294.994 172.121 294.344 171.468 293.555C170.815 292.766 170.326 291.854 170.031 290.874C169.675 289.839 169.617 288.725 169.865 287.659C169.994 287.091 170.318 286.585 170.781 286.231C171.244 285.877 171.816 285.696 172.398 285.719C172.7 285.748 172.989 285.854 173.238 286.026C173.488 286.197 173.689 286.43 173.824 286.701C174.097 287.23 174.176 287.838 174.045 288.419C173.706 289.532 173.017 290.507 172.082 291.198C171.191 291.953 170.15 292.511 169.029 292.836C167.907 293.161 166.73 293.245 165.573 293.083C164.415 292.899 163.319 292.437 162.378 291.736C161.438 291.036 160.681 290.118 160.174 289.061C159.911 288.541 159.758 287.972 159.725 287.39C159.693 286.808 159.781 286.226 159.984 285.68C160.09 285.4 160.255 285.145 160.466 284.932C160.678 284.719 160.931 284.553 161.211 284.445C161.492 284.346 161.791 284.309 162.087 284.336C162.384 284.363 162.671 284.454 162.929 284.603C163.441 284.874 163.854 285.301 164.109 285.822C164.35 286.318 164.495 286.856 164.536 287.406C164.607 288.479 164.462 289.556 164.109 290.573C163.434 292.58 162.018 294.254 160.15 295.252C158.378 296.193 156.33 296.474 154.37 296.044C153.409 295.887 152.526 295.416 151.86 294.706C151.534 294.341 151.341 293.876 151.312 293.387C151.283 292.899 151.421 292.415 151.702 292.014C151.861 291.834 152.054 291.688 152.27 291.583C152.486 291.479 152.721 291.418 152.961 291.404C153.419 291.374 153.878 291.464 154.291 291.665C155.058 292.096 155.66 292.771 156.001 293.582C156.698 295.094 157.268 296.566 157.838 297.968C160.071 303.597 161.654 308.261 162.715 311.428C163.246 313.011 163.634 314.286 163.895 315.141L164.188 316.107C164.251 316.329 164.275 316.44 164.275 316.44C164.23 316.334 164.19 316.225 164.156 316.115C164.077 315.893 163.974 315.569 163.832 315.157C163.547 314.302 163.127 313.059 162.588 311.467C161.488 308.3 159.873 303.645 157.608 298.007C157.038 296.614 156.46 295.125 155.763 293.645C155.444 292.892 154.888 292.264 154.18 291.855C153.824 291.656 153.413 291.577 153.009 291.628C152.604 291.679 152.226 291.859 151.931 292.141C151.693 292.489 151.579 292.907 151.608 293.328C151.637 293.749 151.806 294.148 152.09 294.46C152.721 295.124 153.558 295.557 154.465 295.688C156.348 296.087 158.311 295.806 160.007 294.896C161.795 293.927 163.145 292.313 163.784 290.383C164.124 289.402 164.262 288.362 164.188 287.327C164.187 286.812 164.056 286.307 163.805 285.858C163.554 285.409 163.192 285.031 162.755 284.761C162.538 284.637 162.298 284.56 162.049 284.537C161.8 284.514 161.55 284.545 161.314 284.627C161.078 284.718 160.865 284.859 160.687 285.039C160.51 285.219 160.372 285.435 160.284 285.672C160.103 286.176 160.025 286.711 160.056 287.246C160.088 287.781 160.227 288.304 160.467 288.783C160.952 289.79 161.673 290.664 162.569 291.331C163.466 291.999 164.51 292.439 165.613 292.616C166.722 292.765 167.85 292.681 168.924 292.369C169.999 292.057 170.996 291.523 171.852 290.802C172.724 290.155 173.369 289.249 173.697 288.213C173.811 287.71 173.743 287.183 173.507 286.725C173.395 286.507 173.231 286.321 173.029 286.183C172.827 286.044 172.594 285.959 172.351 285.933C171.849 285.899 171.354 286.057 170.965 286.376C170.579 286.702 170.302 287.139 170.174 287.627C169.943 288.633 169.998 289.684 170.332 290.66C170.625 291.622 171.11 292.514 171.758 293.283C172.406 294.052 173.203 294.681 174.101 295.133C175.823 295.993 177.813 296.14 179.643 295.545C180.499 295.246 181.213 294.639 181.646 293.843C181.834 293.466 181.871 293.033 181.751 292.63C181.63 292.227 181.361 291.885 180.997 291.673C180.635 291.475 180.231 291.364 179.819 291.35C179.406 291.336 178.996 291.42 178.622 291.594C177.89 291.974 177.267 292.532 176.809 293.217C175.927 294.52 175.162 295.898 174.52 297.334C173.419 299.819 172.56 302.404 171.955 305.054C171.409 307.39 171.06 309.433 170.791 311.095C170.522 312.758 170.348 314.056 170.213 314.951C170.15 315.379 170.102 315.743 170.063 315.957C170.023 316.17 170.015 316.416 170.015 316.416Z" fill="black"/>
</g>
<path d="M176.975 322.44H155.961C155.541 322.44 155.139 322.607 154.842 322.904C154.545 323.201 154.378 323.604 154.378 324.024C154.378 324.444 154.545 324.847 154.842 325.144C155.139 325.441 155.541 325.607 155.961 325.607H158.273L161.33 331.435C161.503 331.761 161.762 332.034 162.078 332.223C162.395 332.413 162.758 332.513 163.127 332.512H170.633C171.006 332.513 171.372 332.411 171.691 332.217C172.01 332.022 172.268 331.743 172.438 331.411L175.407 325.607H176.991C177.411 325.607 177.813 325.441 178.11 325.144C178.407 324.847 178.574 324.444 178.574 324.024C178.574 323.604 178.407 323.201 178.11 322.904C177.813 322.607 177.411 322.44 176.991 322.44H176.975Z" fill="#068EFF"/>
<path d="M154.386 316.526C152.691 317.081 149.437 321.507 149.801 324.864C150.142 327.967 151.496 331.324 151.995 331.38C151.297 331.459 150.623 331.681 150.016 332.033C149.408 332.385 148.88 332.859 148.464 333.425C148.048 333.991 147.754 334.636 147.6 335.321C147.446 336.006 147.435 336.716 147.569 337.405L180.308 336.922L178.859 316.526H154.386Z" fill="#068EFF"/>
<path d="M178.495 316.836H154.077C153.745 316.836 153.427 316.704 153.193 316.47C152.958 316.235 152.826 315.917 152.826 315.585C152.826 315.253 152.958 314.935 153.193 314.7C153.427 314.466 153.745 314.334 154.077 314.334H178.495C178.827 314.334 179.145 314.466 179.38 314.7C179.614 314.935 179.746 315.253 179.746 315.585C179.746 315.917 179.614 316.235 179.38 316.47C179.145 316.704 178.827 316.836 178.495 316.836Z" fill="#068EFF"/>
<path d="M178.63 314.437H154.204C154.04 314.437 153.877 314.404 153.725 314.341C153.574 314.278 153.436 314.186 153.32 314.07C153.203 313.954 153.111 313.816 153.048 313.664C152.985 313.513 152.953 313.35 152.953 313.186C152.953 313.021 152.985 312.859 153.048 312.707C153.111 312.555 153.203 312.417 153.32 312.301C153.436 312.185 153.574 312.093 153.725 312.03C153.877 311.967 154.04 311.935 154.204 311.935H178.63C178.794 311.935 178.956 311.967 179.108 312.03C179.259 312.093 179.396 312.185 179.512 312.301C179.627 312.418 179.719 312.556 179.781 312.707C179.843 312.859 179.874 313.022 179.873 313.186C179.874 313.349 179.843 313.512 179.781 313.664C179.719 313.815 179.627 313.953 179.512 314.07C179.396 314.186 179.259 314.278 179.108 314.341C178.956 314.404 178.794 314.437 178.63 314.437Z" fill="#068EFF"/>
<path d="M178.875 315.584C179.034 316.297 180.285 326.526 180.459 327.239C181.197 326.637 182.115 326.299 183.067 326.278C184.019 326.256 184.951 326.553 185.716 327.12C186.461 327.712 187.071 328.457 187.507 329.303C187.942 330.149 188.193 331.078 188.242 332.029C189.093 331.378 190.112 330.981 191.18 330.886C192.248 330.792 193.321 331.002 194.274 331.493C195.227 331.984 196.021 332.736 196.564 333.66C197.106 334.585 197.375 335.645 197.339 336.716H177.941L178.875 315.584Z" fill="#068EFF"/>
<g opacity="0.3">
<path d="M177.901 312.006C177.901 312.117 172.691 312.212 166.254 312.212C159.817 312.212 154.607 312.117 154.607 312.006C154.607 311.895 159.825 311.8 166.254 311.8C172.683 311.8 177.901 311.895 177.901 312.006Z" fill="black"/>
</g>
<g opacity="0.3">
<path d="M178.194 314.428C178.194 314.538 172.984 314.633 166.547 314.633C160.11 314.633 154.9 314.538 154.9 314.428C154.9 314.317 160.118 314.222 166.547 314.222C172.976 314.222 178.194 314.333 178.194 314.428Z" fill="black"/>
</g>
<g opacity="0.3">
<path d="M178.487 316.843C178.487 316.961 173.277 317.048 166.84 317.048C160.403 317.048 155.193 316.961 155.193 316.843C155.193 316.724 160.411 316.637 166.84 316.637C173.269 316.637 178.487 316.708 178.487 316.843Z" fill="black"/>
</g>
<g opacity="0.3">
<path d="M180.308 336.922C179.978 336.261 179.524 335.67 178.97 335.18C178.324 334.64 177.554 334.267 176.73 334.095C175.656 333.846 174.529 334.001 173.563 334.531L173.301 334.681V334.381C173.281 333.062 172.88 331.778 172.145 330.683C171.336 329.442 170.126 328.514 168.717 328.054C167.006 327.495 165.144 327.629 163.531 328.426L163.206 328.585L163.246 328.221C163.413 326.744 163.217 325.25 162.676 323.866C162.257 322.77 161.639 321.761 160.855 320.889C160.147 320.127 159.35 319.454 158.479 318.886C158.758 318.972 159.025 319.094 159.271 319.25C159.943 319.658 160.558 320.153 161.1 320.723C161.932 321.6 162.59 322.626 163.04 323.747C163.634 325.175 163.86 326.73 163.697 328.268L163.412 328.07C165.116 327.209 167.092 327.059 168.907 327.651C170.403 328.142 171.686 329.131 172.541 330.453C173.305 331.618 173.715 332.98 173.721 334.373L173.46 334.214C174.494 333.671 175.691 333.527 176.825 333.81C177.686 334.007 178.482 334.421 179.137 335.014C179.56 335.388 179.904 335.843 180.15 336.352C180.225 336.535 180.278 336.726 180.308 336.922Z" fill="black"/>
</g>
<path d="M153.65 261.459C153.65 261.522 152.604 262.251 151.029 263.565C150.11 264.35 149.242 265.194 148.432 266.091C147.444 267.192 146.533 268.362 145.708 269.59C144.901 270.833 144.179 272.13 143.547 273.47C143.04 274.568 142.604 275.697 142.24 276.851C141.615 278.822 141.401 280.097 141.322 280.081C141.321 279.778 141.353 279.475 141.417 279.179C141.546 278.363 141.726 277.557 141.955 276.764C142.291 275.585 142.709 274.432 143.206 273.312C143.823 271.94 144.543 270.616 145.36 269.353C146.2 268.111 147.132 266.933 148.147 265.83C148.988 264.934 149.89 264.098 150.847 263.328C151.482 262.807 152.152 262.328 152.85 261.894C153.098 261.718 153.367 261.572 153.65 261.459Z" fill="white"/>
<path d="M195.225 284.46C194.522 284.6 193.866 284.914 193.316 285.372C192.765 285.831 192.338 286.419 192.073 287.085C191.808 287.75 191.713 288.472 191.798 289.183C191.882 289.894 192.143 290.573 192.557 291.158C191.962 291.247 191.4 291.483 190.92 291.845C190.441 292.207 190.059 292.683 189.811 293.23C189.562 293.777 189.454 294.377 189.497 294.976C189.539 295.576 189.731 296.155 190.055 296.661C189.669 296.499 189.242 296.466 188.836 296.566C188.43 296.666 188.067 296.894 187.8 297.217C187.534 297.539 187.378 297.938 187.357 298.356C187.335 298.773 187.448 299.187 187.679 299.535C187.115 299.465 186.545 299.614 186.087 299.952C185.629 300.289 185.318 300.789 185.217 301.348C185.051 302.473 185.407 304.135 186.531 304.278L190.094 305.022L194.607 294.365L196.65 287.239L195.225 284.46Z" fill="#FFBE9D"/>
<g opacity="0.3">
<path d="M175.558 319.123C174.253 320.349 173.142 321.767 172.264 323.327C172.073 323.68 171.802 323.984 171.472 324.214C171.16 324.414 170.804 324.536 170.435 324.57C169.847 324.614 169.256 324.579 168.677 324.467C168.152 324.402 167.623 324.367 167.094 324.365C167.587 324.132 168.143 324.066 168.677 324.174C169.235 324.235 169.798 324.235 170.356 324.174C170.66 324.132 170.952 324.024 171.211 323.858C171.482 323.646 171.701 323.375 171.852 323.066C172.459 321.911 173.262 320.871 174.228 319.994C174.607 319.617 175.06 319.32 175.558 319.123Z" fill="black"/>
</g>
<path d="M192.968 310.312C193.08 310.473 193.156 310.657 193.19 310.85C193.338 311.365 193.416 311.898 193.42 312.433C193.469 314.216 192.838 315.951 191.654 317.285C190.47 318.619 188.822 319.452 187.046 319.615C186.518 319.664 185.986 319.648 185.463 319.567C185.266 319.554 185.075 319.5 184.9 319.409C185.604 319.421 186.307 319.392 187.006 319.322C188.682 319.095 190.22 318.275 191.343 317.012C192.466 315.748 193.099 314.124 193.127 312.433C193.115 311.724 193.062 311.015 192.968 310.312Z" fill="#263238"/>
<path d="M196.064 305.03C196.353 305.167 196.619 305.346 196.856 305.561C197.527 306.119 198.09 306.795 198.519 307.556C199.17 308.682 199.57 309.935 199.691 311.23C199.85 312.824 199.599 314.432 198.962 315.901C198.293 317.349 197.299 318.622 196.056 319.622C195.052 320.442 193.917 321.087 192.699 321.531C191.887 321.837 191.042 322.047 190.181 322.156C189.871 322.214 189.554 322.228 189.239 322.196C190.382 321.978 191.505 321.666 192.596 321.261C193.762 320.789 194.847 320.137 195.811 319.329C196.992 318.354 197.939 317.125 198.582 315.735C199.133 314.457 199.391 313.072 199.336 311.681C199.281 310.29 198.915 308.929 198.265 307.699C197.685 306.693 196.941 305.791 196.064 305.03Z" fill="#263238"/>
</svg>
